<svg id="Layer_1" xmlns="http://www.w3.org/2000/svg" viewBox="-643 993 78 16"><style>.st0{fill:#C3AA6B;}</style><title/><path class="st0" d="M-627.1 1007.4l-4.6-4.6c.7-1 1.1-2.2 1.1-3.6 0-3.4-2.8-6.2-6.2-6.2-3.4 0-6.2 2.8-6.2 6.2 0 3.4 2.8 6.2 6.2 6.2 1.3 0 2.5-.4 3.6-1.1l4.6 4.6c.1.1.2.1.3 0l1.2-1.2c.1-.1.1-.2 0-.3zm-9.7-3.4c-2.6 0-4.8-2.1-4.8-4.8 0-2.6 2.1-4.8 4.8-4.8 2.6 0 4.8 2.1 4.8 4.8 0 2.6-2.2 4.8-4.8 4.8zM-618.1 1003.4h-4.2l-.9 2.6h-1.4l3.8-10h1.2l3.8 10h-1.4l-.9-2.6zm-3.8-1.1h3.3l-1.6-4.5-1.7 4.5zM-612.7 996l3.2 8.1 3.2-8.1h1.7v10h-1.3v-3.9l.1-4-3.2 8h-.9l-3.2-8 .1 4v3.9h-1.3v-10h1.6zM-600.8 1002v4h-1.3v-10h3.8c1.1 0 1.9.3 2.5.8s.9 1.3.9 2.2c0 .9-.3 1.6-.9 2.2-.6.5-1.4.8-2.5.8h-2.5zm0-1.1h2.5c.7 0 1.2-.2 1.5-.5.3-.4.5-.8.5-1.4 0-.5-.2-1-.5-1.4-.3-.4-.8-.6-1.5-.6h-2.5v3.9zM-591.9 1004.9h4.7v1.1h-6.1v-10h1.3v8.9zM-584.2 1006h-1.4v-10h1.4v10zM-576.2 1003.4h-4.2l-.9 2.6h-1.4l3.8-10h1.2l3.8 10h-1.4l-.9-2.6zm-3.7-1.1h3.3l-1.6-4.5-1.7 4.5zM-571.2 1001.7v4.3h-1.3v-10h3.6c1.1 0 1.9.2 2.5.7s.9 1.2.9 2.1c0 .5-.1 1-.4 1.3-.3.4-.7.7-1.2.9.5.2.9.5 1.2.9.2.4.4.9.4 1.5v.9c0 .3 0 .6.1.8s.2.4.4.6v.2h-1.4c-.2-.2-.3-.4-.3-.7s-.1-.6-.1-.9v-.9c0-.5-.2-1-.5-1.3-.3-.3-.7-.5-1.3-.5h-2.6zm0-1.1h2.1c.8 0 1.3-.1 1.6-.4.3-.3.5-.7.5-1.3 0-.6-.2-1-.5-1.3-.3-.3-.8-.5-1.5-.5h-2.3v3.5z"/></svg>