<svg id="Layer_1" xmlns="http://www.w3.org/2000/svg" viewBox="-582 976 200 50"><style>.st0{opacity:0.7;fill:#69665D;} .st1{enable-background:new ;} .st2{fill:#FFFFFF;} .st3{fill:#69665D;} .st4{opacity:0.5;fill:#FFFFFF;}</style><path class="st0" d="M-582 976h200v50h-200z"/><g class="st1"><path class="st2" d="M-538.1 1017.2c0-.2-.1-.3-.1-.4v-.4c-.2.3-.4.5-.7.6-.3.2-.6.3-.9.3-.6 0-1-.1-1.3-.4-.3-.3-.4-.7-.4-1.2s.2-.9.6-1.2c.4-.3 1-.4 1.7-.4h1v-.5c0-.3-.1-.6-.3-.7-.2-.2-.5-.3-.8-.3-.3 0-.6.1-.8.2-.2.2-.3.3-.3.6h-.9c0-.4.2-.7.5-1.1.4-.3.9-.5 1.5-.5s1.1.2 1.4.5c.4.3.5.7.5 1.3v3s.1.3.1.5h-.8zm-1.6-.7c.3 0 .7-.1.9-.3.3-.2.5-.4.5-.6v-.9h-1.1c-.4 0-.7.1-.9.3-.2.2-.3.4-.3.7 0 .2.1.4.2.6.2.2.4.2.7.2zM-534.2 1015.7l.1.4.1-.4 1.2-3.7h1l-1.9 5.3h-.7l-2-5.3h1l1.2 3.7zM-530 1010.6h-1v-1h1v1zm0 6.6h-1v-5.3h1v5.3zM-525.6 1015.8c0-.2-.1-.4-.2-.5s-.5-.3-.9-.4c-.6-.1-1.1-.3-1.4-.6-.3-.2-.5-.6-.5-1s.2-.8.5-1.1c.4-.3.8-.5 1.4-.5.6 0 1.1.2 1.5.5.4.3.5.7.5 1.2h-.9c0-.2-.1-.4-.3-.6-.2-.2-.5-.3-.8-.3-.3 0-.6.1-.8.2s-.2.3-.2.5.1.4.2.5.4.2.9.3c.7.1 1.2.3 1.5.6.3.2.5.6.5 1 0 .5-.2.8-.6 1.1-.4.3-.9.4-1.5.4-.7 0-1.2-.2-1.6-.5-.4-.3-.6-.7-.6-1.2h.9c0 .3.1.6.4.7.2.2.5.2.8.2.3 0 .6-.1.8-.2.3.1.4 0 .4-.3zM-521.3 1017.3c-.7 0-1.3-.2-1.8-.7-.4-.5-.7-1.1-.7-1.9v-.2c0-.8.2-1.4.7-1.9.4-.5 1-.8 1.6-.8.7 0 1.3.2 1.6.6.4.4.5 1 .5 1.7v.6h-3.4c0 .5.1.9.4 1.2.2.3.6.5 1 .5.3 0 .6 0 .9-.1.2-.1.5-.2.6-.4l.4.6c-.2.2-.4.3-.7.5-.3.3-.7.3-1.1.3zm-.2-4.7c-.3 0-.6.1-.8.4-.2.3-.4.6-.4 1h2.4v-.1c0-.4-.1-.7-.3-.9-.2-.3-.5-.4-.9-.4zM-516.5 1014.6h-2.4v-.8h2.4v.8zM-514.8 1012l.1.7c.2-.3.4-.4.7-.6.3-.1.6-.2.9-.2s.7.1.9.2c.3.2.4.4.6.7.2-.3.4-.5.7-.7s.6-.3 1-.3c.5 0 1 .2 1.3.6.3.4.5.9.5 1.7v3.2h-1v-3.2c0-.5-.1-.9-.3-1.1-.2-.2-.4-.3-.8-.3-.3 0-.6.1-.8.3-.2.2-.3.5-.4.9v3.4h-1v-3.2c0-.5-.1-.9-.3-1.1-.2-.2-.4-.3-.8-.3-.3 0-.5.1-.7.2-.2.1-.3.3-.4.5v3.9h-1v-5.3h.8zM-504.9 1017.3c-.7 0-1.3-.2-1.8-.7-.4-.5-.7-1.1-.7-1.9v-.2c0-.8.2-1.4.7-1.9.4-.5 1-.8 1.6-.8.7 0 1.3.2 1.6.6.4.4.5 1 .5 1.7v.6h-3.4c0 .5.1.9.4 1.2.2.3.6.5 1 .5.3 0 .6 0 .9-.1.2-.1.5-.2.6-.4l.4.6c-.2.2-.4.3-.7.5-.3.3-.6.3-1.1.3zm-.1-4.7c-.3 0-.6.1-.8.4-.2.3-.4.6-.4 1h2.4v-.1c0-.4-.1-.7-.3-.9-.2-.3-.5-.4-.9-.4zM-499.7 1014.7c0-.8.2-1.5.5-2.1.4-.5.9-.8 1.5-.8.3 0 .6.1.8.2.2.1.5.3.6.5l.1-.6h.7v7.3h-1v-2.5c-.2.2-.4.3-.6.4-.2.1-.5.2-.8.2-.6 0-1.1-.2-1.5-.7-.4-.5-.5-1.1-.5-1.8v-.1zm.9.1c0 .5.1 1 .3 1.3s.6.5 1 .5c.3 0 .5-.1.7-.2.2-.1.3-.3.5-.5v-2.7c-.1-.2-.3-.4-.5-.5-.2-.1-.4-.2-.7-.2-.5 0-.8.2-1 .6-.2.4-.3.9-.3 1.5v.2zM-490.6 1016.5c-.2.3-.4.5-.6.7-.3.2-.6.2-.9.2-.6 0-1-.2-1.3-.6s-.5-.9-.5-1.7v-3.1h1v3.1c0 .6.1 1 .2 1.2s.4.3.8.3c.3 0 .6-.1.8-.2.2-.1.4-.3.5-.6v-3.8h1v5.3h-.9l-.1-.8zM-485.1 1017.2c0-.2-.1-.3-.1-.4v-.4c-.2.3-.4.5-.7.6-.3.2-.6.3-.9.3-.5 0-1-.1-1.3-.4-.3-.3-.4-.7-.4-1.2s.2-.9.6-1.2c.4-.3 1-.4 1.7-.4h1v-.5c0-.3-.1-.6-.3-.7-.2-.2-.5-.3-.8-.3-.3 0-.6.1-.8.2-.2.2-.3.3-.3.6h-.9c0-.4.2-.7.5-1.1.4-.3.9-.5 1.5-.5s1.1.2 1.4.5c.4.3.5.7.5 1.3v3s.1.3.1.5h-.8zm-1.6-.7c.3 0 .7-.1.9-.3.3-.2.5-.4.5-.6v-.9h-1.1c-.4 0-.7.1-.9.3-.2.2-.3.4-.3.7 0 .2.1.4.2.6.2.2.4.2.7.2zM-482.1 1012l.1.8c.2-.3.4-.5.7-.7.3-.2.6-.2.9-.2.6 0 1 .2 1.3.5.3.3.5.8.5 1.5v3.3h-1v-3.3c0-.5-.1-.8-.3-1-.2-.2-.5-.3-.8-.3-.3 0-.5.1-.7.2-.2.1-.4.3-.5.5v3.9h-1v-5.3h.8zM-477.6 1014.7c0-.8.2-1.5.5-2.1.4-.5.9-.8 1.5-.8.3 0 .6.1.8.2s.4.3.6.5v-2.9h1v7.6h-.8l-.1-.6-.6.6c-.3.1-.5.2-.9.2-.6 0-1.1-.2-1.5-.7-.4-.5-.5-1.1-.5-1.8v-.2zm1 .1c0 .5.1 1 .3 1.3.2.3.6.5 1 .5.3 0 .5-.1.7-.2s.4-.3.5-.5v-2.5c-.1-.2-.3-.4-.5-.5-.2-.1-.4-.2-.7-.2-.5 0-.8.2-1 .6s-.3.9-.3 1.5zM-472 1014.6c0-.8.2-1.4.6-1.9.4-.5 1-.8 1.7-.8s1.3.3 1.7.8.6 1.1.6 1.9v.1c0 .8-.2 1.4-.6 1.9-.4.5-1 .8-1.7.8s-1.3-.3-1.7-.8c-.4-.5-.6-1.1-.6-1.9v-.1zm1 .1c0 .6.1 1 .4 1.4.2.4.6.5 1.1.5.5 0 .8-.2 1-.5.2-.4.4-.8.4-1.4v-.1c0-.6-.1-1-.4-1.4-.2-.4-.6-.6-1.1-.6-.5 0-.8.2-1 .6-.2.4-.4.8-.4 1.4v.1zM-461.6 1017.3c-.7 0-1.3-.2-1.8-.7-.4-.5-.7-1.1-.7-1.9v-.2c0-.8.2-1.4.7-1.9.4-.5 1-.8 1.6-.8.7 0 1.3.2 1.6.6.4.4.5 1 .5 1.7v.6h-3.4c0 .5.1.9.4 1.2.2.3.6.5 1 .5.3 0 .6 0 .9-.1.2-.1.5-.2.6-.4l.4.6c-.2.2-.4.3-.7.5-.3.3-.7.3-1.1.3zm-.1-4.7c-.3 0-.6.1-.8.4-.2.3-.4.6-.4 1h2.4v-.1c0-.4-.1-.7-.3-.9-.2-.3-.5-.4-.9-.4zM-455.5 1015.8c0-.2-.1-.4-.2-.5s-.5-.3-.9-.4c-.6-.1-1.1-.3-1.4-.6-.3-.2-.5-.6-.5-1s.2-.8.5-1.1c.4-.3.8-.5 1.4-.5.6 0 1.1.2 1.5.5.4.3.5.7.5 1.2h-.9c0-.2-.1-.4-.3-.6-.2-.2-.5-.3-.8-.3-.3 0-.6.1-.8.2s-.2.3-.2.5.1.4.2.5.4.2.9.3c.7.1 1.2.3 1.5.6.3.2.5.6.5 1 0 .5-.2.8-.6 1.1-.4.3-.9.4-1.5.4-.7 0-1.2-.2-1.6-.5-.4-.3-.6-.7-.6-1.2h.9c0 .3.1.6.4.7.2.2.5.2.8.2.3 0 .6-.1.8-.2.3.1.4 0 .4-.3zM-452.2 1010.7v1.3h1v.7h-1v3.2c0 .2.1.4.2.5s.2.2.4.2h.4l.1.7c-.1.1-.2.1-.3.1-.1 0-.3.1-.4.1-.4 0-.7-.1-.9-.4-.2-.2-.3-.6-.3-1.1v-3.2h-.8v-.7h.8v-1.3h.8zM-449.1 1010.6h-1v-1h1v1zm0 6.6h-1v-5.3h1v5.3zM-445.9 1015.7l.1.4.1-.4 1.2-3.7h1l-1.9 5.3h-.7l-2-5.3h1l1.2 3.7zM-440.6 1017.3c-.7 0-1.3-.2-1.8-.7-.4-.5-.7-1.1-.7-1.9v-.2c0-.8.2-1.4.7-1.9.4-.5 1-.8 1.6-.8.7 0 1.3.2 1.6.6.4.4.5 1 .5 1.7v.6h-3.4c0 .5.1.9.4 1.2.2.3.6.5 1 .5.3 0 .6 0 .9-.1.2-.1.5-.2.6-.4l.4.6c-.2.2-.4.3-.7.5-.3.3-.7.3-1.1.3zm-.2-4.7c-.3 0-.6.1-.8.4-.2.3-.4.6-.4 1h2.4v-.1c0-.4-.1-.7-.3-.9-.2-.3-.5-.4-.9-.4zM-435.1 1012.8h-.5c-.3 0-.5.1-.6.2-.2.1-.3.3-.4.5v3.8h-1v-5.3h.9l.1.8c.1-.3.3-.5.6-.6s.5-.2.8-.2h.4l-.3.8zM-432.2 1014.7c0-.8.2-1.5.5-2.1.4-.5.9-.8 1.5-.8.3 0 .6.1.8.2s.4.3.6.5v-2.9h1v7.6h-.8l-.1-.6-.6.6c-.2.1-.5.2-.9.2-.6 0-1.1-.2-1.5-.7-.4-.5-.5-1.1-.5-1.8v-.2zm1 .1c0 .5.1 1 .3 1.3.2.3.6.5 1 .5.3 0 .5-.1.7-.2s.4-.3.5-.5v-2.5c-.1-.2-.3-.4-.5-.5-.2-.1-.4-.2-.7-.2-.5 0-.8.2-1 .6s-.3.9-.3 1.5zM-425.3 1010.6h-1v-1h1v1zm0 6.6h-1v-5.3h1v5.3zM-420.9 1015.8c0-.2-.1-.4-.2-.5s-.5-.3-.9-.4c-.6-.1-1.1-.3-1.4-.6-.3-.2-.5-.6-.5-1s.2-.8.5-1.1c.4-.3.8-.5 1.4-.5.6 0 1.1.2 1.5.5.4.3.5.7.5 1.2h-.9c0-.2-.1-.4-.3-.6-.2-.2-.5-.3-.8-.3-.3 0-.6.1-.8.2s-.2.3-.2.5.1.4.2.5.4.2.9.3c.7.1 1.2.3 1.5.6.3.2.5.6.5 1 0 .5-.2.8-.6 1.1-.4.3-.9.4-1.5.4-.7 0-1.2-.2-1.6-.5-.4-.3-.6-.7-.6-1.2h.9c0 .3.1.6.4.7.2.2.5.2.8.2.3 0 .6-.1.8-.2.3.1.4 0 .4-.3zM-414.3 1014.8c0 .8-.2 1.4-.5 1.8-.4.5-.9.7-1.5.7-.3 0-.6-.1-.9-.2-.2-.1-.5-.3-.6-.5v2.6h-1v-7.3h.7l.2.7c.2-.3.4-.4.6-.6.3-.1.6-.2.9-.2.7 0 1.2.3 1.5.8.4.5.5 1.2.5 2.1v.1zm-1-.1c0-.6-.1-1.1-.4-1.5-.2-.4-.6-.6-1-.6-.3 0-.5.1-.7.2s-.4.3-.5.5v2.6c.1.2.3.4.5.5s.4.2.7.2c.5 0 .8-.2 1-.5s.4-.8.4-1.3v-.1zM-413.4 1014.6c0-.8.2-1.4.6-1.9.4-.5 1-.8 1.7-.8s1.3.3 1.7.8.6 1.1.6 1.9v.1c0 .8-.2 1.4-.6 1.9-.4.5-1 .8-1.7.8s-1.3-.3-1.7-.8c-.4-.5-.6-1.1-.6-1.9v-.1zm.9.1c0 .6.1 1 .4 1.4.2.4.6.5 1.1.5.5 0 .8-.2 1-.5.2-.4.4-.8.4-1.4v-.1c0-.6-.1-1-.4-1.4-.2-.4-.6-.6-1.1-.6-.5 0-.8.2-1 .6-.2.4-.4.8-.4 1.4v.1zM-406.8 1012l.1.8c.2-.3.4-.5.7-.7.3-.2.6-.2.9-.2.6 0 1 .2 1.3.5.3.3.5.8.5 1.5v3.3h-1v-3.3c0-.5-.1-.8-.3-1-.2-.2-.5-.3-.8-.3-.3 0-.5.1-.7.2-.2.1-.4.3-.5.5v3.9h-1v-5.3h.8zM-401 1017.2h-1v-5.3h1v5.3zm-.1-7.2h1.1l-1.3 1.3h-.7l.9-1.3zM-397.9 1015.7l.1.4.1-.4 1.2-3.7h1l-1.9 5.3h-.7l-2-5.3h1l1.2 3.7zM-392.6 1017.3c-.7 0-1.3-.2-1.8-.7-.4-.5-.7-1.1-.7-1.9v-.2c0-.8.2-1.4.7-1.9.4-.5 1-.8 1.6-.8.7 0 1.3.2 1.6.6.4.4.5 1 .5 1.7v.6h-3.4c0 .5.1.9.4 1.2.2.3.6.5 1 .5.3 0 .6 0 .9-.1.2-.1.5-.2.6-.4l.4.6c-.2.2-.4.3-.7.5-.3.3-.6.3-1.1.3zm-.1-4.7c-.3 0-.6.1-.8.4-.2.3-.4.6-.4 1h2.4v-.1c0-.4-.1-.7-.3-.9-.2-.3-.5-.4-.9-.4zM-388.5 1017.2h-1v-7.6h1v7.6z"/></g><g class="st1"><path class="st2" d="M-509.6 995.7h-7.2v5.6h8.3v1.7h-10.4v-15.6h10.3v1.7h-8.1v5.1h7.2v1.5zM-497.5 999c0-.7-.3-1.3-.8-1.8s-1.5-.9-2.9-1.2c-1.7-.4-2.9-1-3.9-1.7-.9-.8-1.4-1.7-1.4-2.9s.5-2.2 1.5-3.1 2.3-1.2 3.9-1.2c1.7 0 3.1.5 4.1 1.4 1 .9 1.5 2 1.5 3.3v.1h-2c0-.9-.3-1.7-.9-2.2-.6-.6-1.5-.8-2.6-.8s-1.9.2-2.4.7c-.6.5-.8 1.1-.8 1.9 0 .7.3 1.2.9 1.7.6.5 1.6.9 3 1.2 1.6.4 2.9 1 3.8 1.8s1.3 1.8 1.3 3c0 1.3-.5 2.3-1.5 3-1 .8-2.4 1.1-4 1.1s-2.9-.4-4.1-1.3c-1.2-.8-1.8-2-1.7-3.4v-.1h2c0 1 .4 1.8 1.1 2.3.7.5 1.7.8 2.7.8 1.1 0 1.9-.2 2.5-.7s.7-1.2.7-1.9zM-481 1000.8c-.4.6-1 1.1-1.9 1.6-.9.5-2.1.7-3.6.7-1.9 0-3.4-.6-4.6-1.8-1.2-1.2-1.8-2.7-1.8-4.6v-3.2c0-1.9.6-3.4 1.7-4.6s2.6-1.8 4.4-1.8c1.8 0 3.2.4 4.2 1.3s1.5 2 1.6 3.4v.1h-2c-.1-.9-.4-1.7-1-2.2-.6-.6-1.5-.9-2.7-.9-1.2 0-2.2.4-2.9 1.3s-1.1 2-1.1 3.4v3.2c0 1.4.4 2.5 1.2 3.4.8.9 1.9 1.3 3.1 1.3.9 0 1.6-.1 2.2-.4.6-.2 1-.5 1.2-.8v-3.5h-3.4V995h5.5v5.8zM-465.5 996.5c0 1.9-.6 3.5-1.8 4.8-1.2 1.3-2.7 1.9-4.6 1.9-1.8 0-3.3-.6-4.5-1.9-1.1-1.3-1.7-2.8-1.7-4.8v-2.8c0-1.9.6-3.5 1.7-4.8 1.1-1.3 2.6-1.9 4.5-1.9s3.4.6 4.6 1.9c1.2 1.3 1.8 2.9 1.8 4.8v2.8zm-2.1-2.8c0-1.4-.4-2.6-1.2-3.5s-1.8-1.4-3.1-1.4c-1.2 0-2.2.5-2.9 1.4-.7.9-1.1 2.1-1.1 3.5v2.8c0 1.4.4 2.6 1.1 3.5.7.9 1.7 1.4 2.9 1.4 1.3 0 2.4-.5 3.1-1.4.8-.9 1.2-2.1 1.2-3.6v-2.7zM-452 988.9h-5v14h-2.1v-14h-5v-1.7h12.2v1.7zM-442.4 998.9h-6.6l-1.5 4h-2.2l6-15.6h1.8l6 15.6h-2.2l-1.3-4zm-5.9-1.8h5.3l-2.6-7.1h-.1l-2.6 7.1zM-436.6 1002.9v-15.6h4.8c2 0 3.7.6 4.9 1.9 1.2 1.3 1.9 2.9 1.9 4.9v2.1c0 2-.6 3.6-1.9 4.9-1.2 1.2-2.9 1.9-4.9 1.9h-4.8zm2.1-14v12.3h2.7c1.4 0 2.6-.5 3.4-1.4.8-1 1.3-2.2 1.3-3.7V994c0-1.5-.4-2.7-1.3-3.6-.8-1-2-1.4-3.4-1.4h-2.7zM-410.3 996.5c0 1.9-.6 3.5-1.8 4.8-1.2 1.3-2.7 1.9-4.6 1.9-1.8 0-3.3-.6-4.5-1.9-1.1-1.3-1.7-2.8-1.7-4.8v-2.8c0-1.9.6-3.5 1.7-4.8 1.1-1.3 2.6-1.9 4.5-1.9s3.4.6 4.6 1.9c1.2 1.3 1.8 2.9 1.8 4.8v2.8zm-2.1-2.8c0-1.4-.4-2.6-1.2-3.5s-1.8-1.4-3.1-1.4c-1.2 0-2.2.5-2.9 1.4-.7.9-1.1 2.1-1.1 3.5v2.8c0 1.4.4 2.6 1.1 3.5.7.9 1.7 1.4 2.9 1.4 1.3 0 2.4-.5 3.1-1.4.8-.9 1.2-2.1 1.2-3.6v-2.7z"/></g><path class="st3" d="M-582 976h35.8v50H-582z"/><path class="st4" d="M-564.6 986.4c-7.9-.1-14.3 6.3-14.4 14.1-.1 7.9 6.3 14.3 14.1 14.4 7.9.1 14.3-6.3 14.4-14.1.1-7.9-6.2-14.3-14.1-14.4zm-.2 26.5c-6.8-.1-12.2-5.6-12.1-12.4s5.6-12.2 12.4-12.1c6.8.1 12.2 5.6 12.1 12.4-.1 6.7-5.6 12.2-12.4 12.1z"/><circle class="st4" cx="-564.7" cy="1000.7" r="11"/><path class="st3" d="M-558.1 1003.9l-3.3 3.4-3.3-3.3-3.2 3.3-3.4-3.4 3.3-3.2-3.3-3.3 3.4-3.3 3.2 3.2 3.3-3.2 3.3 3.3-3.2 3.3z"/></svg>