<svg id="Layer_1" xmlns="http://www.w3.org/2000/svg" viewBox="-582 976 200 50"><style>.st0{opacity:0.7;fill:#69665D;} .st1{enable-background:new ;} .st2{fill:#FFFFFF;} .st3{fill:#69665D;} .st4{opacity:0.5;fill:#FFFFFF;}</style><path class="st0" d="M-582 976h200v50h-200z"/><g class="st1"><path class="st2" d="M-524.3 1003.5c0 1.4-.4 2.5-1.4 3.4s-2.2 1.4-3.8 1.4c-1.6 0-2.9-.6-3.9-1.7s-1.5-2.6-1.5-4.3v-2.5c0-1.8.5-3.2 1.5-4.3s2.3-1.7 3.9-1.7 2.9.4 3.8 1.3 1.4 2 1.4 3.4v.1h-1.8c0-1-.3-1.8-.9-2.4s-1.4-.9-2.5-.9-1.9.4-2.6 1.3-1 1.9-1 3.2v2.5c0 1.3.3 2.4 1 3.2s1.5 1.3 2.6 1.3 1.9-.3 2.5-.9.9-1.4.9-2.4h1.8zM-510.9 1002.3c0 1.7-.5 3.2-1.6 4.3s-2.5 1.7-4.2 1.7c-1.7 0-3-.6-4-1.7s-1.6-2.6-1.6-4.3v-2.5c0-1.7.5-3.2 1.6-4.3s2.4-1.7 4-1.7c1.7 0 3.1.6 4.2 1.7s1.6 2.6 1.6 4.3v2.5zm-1.9-2.6c0-1.3-.4-2.4-1.1-3.2s-1.6-1.2-2.8-1.2c-1.1 0-2 .4-2.7 1.2s-1 1.9-1 3.2v2.5c0 1.3.3 2.4 1 3.2s1.6 1.2 2.7 1.2c1.2 0 2.1-.4 2.8-1.2s1-1.9 1-3.2v-2.5zM-497.3 1008.1h-1.9l-6.8-11h-.1v11h-1.9v-14.2h1.9l6.8 11h.1v-11h1.9v14.2zM-486 1004.5c0-.6-.2-1.2-.7-1.6-.5-.4-1.4-.8-2.6-1.1-1.5-.4-2.7-.9-3.5-1.6s-1.3-1.6-1.3-2.6c0-1.1.5-2 1.4-2.8s2.1-1.1 3.5-1.1c1.6 0 2.8.4 3.7 1.3s1.4 1.8 1.3 3v.1h-1.8c0-.8-.3-1.5-.8-2s-1.3-.8-2.4-.8c-1 0-1.7.2-2.2.6s-.8 1-.8 1.7c0 .6.3 1.1.8 1.5s1.5.8 2.7 1.1c1.5.4 2.6.9 3.4 1.6s1.2 1.6 1.2 2.7-.5 2.1-1.4 2.8-2.2 1-3.7 1c-1.4 0-2.7-.4-3.8-1.2s-1.6-1.8-1.6-3.1v-.1h1.8c0 .9.3 1.6 1 2.1s1.5.7 2.5.7 1.7-.2 2.3-.6c.7-.3 1-.9 1-1.6zM-470.9 993.9v9.6c0 1.5-.5 2.7-1.5 3.6s-2.3 1.2-3.9 1.2-2.8-.4-3.8-1.2c-1-.8-1.5-2-1.5-3.5V994h1.9v9.6c0 1.1.3 1.9.9 2.4.6.6 1.4.8 2.4.8 1.1 0 1.9-.3 2.6-.8.6-.6 1-1.4 1-2.4V994h1.9zM-465.8 1006.6h6.7v1.5h-8.7v-14.2h1.9v12.7zM-449.3 995.4h-4.6v12.7h-1.9v-12.7h-4.6v-1.5h11.1v1.5zM-438.8 1001.5h-6.5v5.1h7.5v1.5h-9.4v-14.2h9.3v1.5h-7.4v4.6h6.5v1.5zM-432.2 1002.9h-4.8v-1.5h4.8v1.5zM-419.3 1008.1h-1.9l-6.8-11h-.1v11h-1.9v-14.2h1.9l6.8 11h.1v-11h1.9v14.2zM-405 1002.3c0 1.7-.5 3.2-1.6 4.3-1.1 1.1-2.5 1.7-4.2 1.7-1.7 0-3-.6-4-1.7s-1.6-2.6-1.6-4.3v-2.5c0-1.7.5-3.2 1.6-4.3 1-1.2 2.4-1.7 4-1.7 1.7 0 3.1.6 4.2 1.7s1.6 2.6 1.6 4.3v2.5zm-2-2.6c0-1.3-.4-2.4-1.1-3.2s-1.6-1.2-2.8-1.2c-1.1 0-2 .4-2.7 1.2-.7.8-1 1.9-1 3.2v2.5c0 1.3.3 2.4 1 3.2.7.8 1.6 1.2 2.7 1.2 1.2 0 2.1-.4 2.8-1.2.7-.8 1-1.9 1-3.2v-2.5zM-394.4 1004.5c0-.6-.2-1.2-.7-1.6-.5-.4-1.4-.8-2.6-1.1-1.5-.4-2.7-.9-3.5-1.6-.8-.7-1.3-1.6-1.3-2.6 0-1.1.5-2 1.4-2.8s2.1-1.1 3.5-1.1c1.6 0 2.8.4 3.7 1.3.9.9 1.4 1.8 1.3 3v.1h-1.8c0-.8-.3-1.5-.8-2s-1.3-.8-2.4-.8c-1 0-1.7.2-2.2.6-.5.4-.8 1-.8 1.7 0 .6.3 1.1.8 1.5.6.4 1.5.8 2.7 1.1 1.5.4 2.6.9 3.4 1.6s1.2 1.6 1.2 2.7-.5 2.1-1.4 2.8-2.2 1-3.7 1c-1.4 0-2.7-.4-3.8-1.2-1.1-.8-1.6-1.8-1.6-3.1v-.1h1.8c0 .9.3 1.6 1 2.1s1.5.7 2.5.7 1.7-.2 2.3-.6c.7-.3 1-.9 1-1.6z"/></g><path class="st3" d="M-582 976h35.8v50H-582z"/><path class="st4" d="M-564.6 986.4c-7.9-.1-14.3 6.3-14.4 14.1-.1 7.9 6.3 14.3 14.1 14.4 7.9.1 14.3-6.3 14.4-14.1.1-7.9-6.2-14.3-14.1-14.4zm-.2 26.5c-6.8-.1-12.2-5.6-12.1-12.4s5.6-12.2 12.4-12.1c6.8.1 12.2 5.6 12.1 12.4-.1 6.7-5.6 12.2-12.4 12.1z"/><circle class="st4" cx="-564.7" cy="1000.7" r="11"/><path class="st3" d="M-558.1 1003.9l-3.3 3.4-3.3-3.3-3.2 3.3-3.4-3.4 3.3-3.2-3.3-3.3 3.4-3.3 3.2 3.2 3.3-3.2 3.3 3.3-3.2 3.3z"/></svg>