<?xml version="1.0" encoding="utf-8"?>
<!-- Generator: Adobe Illustrator 19.0.0, SVG Export Plug-In . SVG Version: 6.00 Build 0)  -->
<svg version="1.1" id="Layer_1" xmlns="http://www.w3.org/2000/svg" xmlns:xlink="http://www.w3.org/1999/xlink" x="0px" y="0px"
	 viewBox="-582 976 200 50" style="enable-background:new -582 976 200 50;" xml:space="preserve">
<style type="text/css">
	.st0{opacity:0.8;fill:#C3AA6B;}
	.st1{enable-background:new    ;}
	.st2{fill:#FFFFFF;}
	.st3{fill:#C3AA6B;}
</style>
<g>
	<rect x="-582" y="976" class="st0" width="200" height="50"/>
	<g class="st1">
		<path class="st2" d="M-504.2,1003.9L-504.2,1003.9c0.1,2.1-0.5,3.6-1.8,4.8s-3,1.8-5.2,1.8c-2.2,0-4-0.7-5.4-2.1s-2.1-3.3-2.1-5.5
			v-3.7c0-2.2,0.7-4.1,2-5.5s3.1-2.2,5.3-2.2c2.3,0,4.1,0.6,5.4,1.8c1.3,1.2,1.9,2.8,1.9,4.8l0,0.1h-3.6c0-1.2-0.3-2.2-0.9-2.8
			c-0.6-0.6-1.5-1-2.7-1c-1.1,0-2,0.5-2.6,1.4s-1,2-1,3.4v3.7c0,1.4,0.3,2.6,1,3.5s1.6,1.4,2.8,1.4c1.2,0,2-0.3,2.6-0.9
			c0.6-0.6,0.8-1.5,0.8-2.8H-504.2z"/>
		<path class="st2" d="M-486.7,1002.7c0,2.3-0.7,4.1-2.2,5.6s-3.3,2.2-5.6,2.2c-2.3,0-4.1-0.7-5.5-2.2s-2.1-3.4-2.1-5.6v-3.3
			c0-2.3,0.7-4.1,2.1-5.6c1.4-1.5,3.3-2.2,5.5-2.2c2.3,0,4.2,0.7,5.6,2.2c1.4,1.5,2.2,3.4,2.2,5.6V1002.7z M-490.4,999.3
			c0-1.4-0.4-2.6-1.1-3.5c-0.7-0.9-1.7-1.4-3-1.4s-2.2,0.5-2.9,1.4s-1,2.1-1,3.6v3.4c0,1.5,0.4,2.7,1.1,3.6c0.7,0.9,1.7,1.4,2.9,1.4
			c1.3,0,2.3-0.5,3-1.4c0.7-0.9,1.1-2.1,1.1-3.6V999.3z"/>
		<path class="st2" d="M-479,991.8l4.7,13.6h0.1l4.7-13.6h4.8v18.5h-3.7v-5.5l0.4-8.2l-0.1,0l-5,13.7h-2.5l-4.9-13.6l-0.1,0l0.4,8.1
			v5.5h-3.7v-18.5H-479z"/>
		<path class="st2" d="M-457.4,1003.5v6.7h-3.7v-18.5h7.4c2.1,0,3.8,0.5,5,1.6s1.8,2.5,1.8,4.3s-0.6,3.2-1.8,4.3s-2.9,1.6-5,1.6
			H-457.4z M-457.4,1000.7h3.7c1,0,1.8-0.3,2.3-0.8c0.5-0.6,0.8-1.3,0.8-2.2c0-0.9-0.3-1.6-0.8-2.2c-0.5-0.6-1.3-0.9-2.4-0.9h-3.7
			V1000.7z"/>
		<path class="st2" d="M-440.5,1002.9v7.4h-3.7v-18.5h7c2.1,0,3.8,0.5,4.9,1.4c1.2,1,1.8,2.3,1.8,4c0,1-0.2,1.8-0.7,2.5
			c-0.5,0.7-1.2,1.2-2.2,1.7c1.1,0.3,1.9,0.9,2.4,1.6c0.5,0.8,0.7,1.7,0.7,2.8v1.4c0,0.5,0.1,1.1,0.2,1.6c0.1,0.6,0.4,1,0.7,1.3v0.3
			h-3.8c-0.3-0.3-0.6-0.7-0.7-1.4s-0.2-1.2-0.2-1.8v-1.3c0-0.9-0.3-1.6-0.8-2.2c-0.5-0.5-1.2-0.8-2.1-0.8H-440.5z M-440.5,1000h3.2
			c1,0,1.8-0.2,2.3-0.7c0.5-0.4,0.8-1.1,0.8-2c0-0.8-0.3-1.5-0.8-2c-0.5-0.5-1.3-0.7-2.3-0.7h-3.3V1000z"/>
		<path class="st2" d="M-417.1,1006.3h-6.5l-1.3,4h-3.7l6.4-18.5h3.8l6.3,18.5h-3.7L-417.1,1006.3z M-422.7,1003.3h4.7l-2.3-7.3
			h-0.1L-422.7,1003.3z"/>
		<path class="st2" d="M-406.7,1002.9v7.4h-3.7v-18.5h7c2.1,0,3.8,0.5,4.9,1.4c1.2,1,1.8,2.3,1.8,4c0,1-0.2,1.8-0.7,2.5
			c-0.5,0.7-1.2,1.2-2.2,1.7c1.1,0.3,1.9,0.9,2.4,1.6c0.5,0.8,0.7,1.7,0.7,2.8v1.4c0,0.5,0.1,1.1,0.2,1.6c0.1,0.6,0.4,1,0.7,1.3v0.3
			h-3.8c-0.3-0.3-0.6-0.7-0.7-1.4s-0.2-1.2-0.2-1.8v-1.3c0-0.9-0.3-1.6-0.8-2.2c-0.5-0.5-1.2-0.8-2.1-0.8H-406.7z M-406.7,1000h3.2
			c1,0,1.8-0.2,2.3-0.7c0.5-0.4,0.8-1.1,0.8-2c0-0.8-0.3-1.5-0.8-2c-0.5-0.5-1.3-0.7-2.3-0.7h-3.3V1000z"/>
	</g>
</g>
<g>
	<rect x="-582" y="976" class="st3" width="47.2" height="50"/>
	<g>
		<path class="st2" d="M-545.2,993.9c-0.2-0.3-0.5-0.4-0.7-0.4h-5.2v2.9c0,1.3-1.1,2.4-2.4,2.4s-2.4-1.1-2.4-2.4v-2.8h-4.8v2.9
			c0,1.3-1.1,2.4-2.4,2.4s-2.4-1.1-2.4-2.4v-2.9h-5.2c-0.3,0-0.6,0.1-0.7,0.4c-0.2,0.3-0.3,0.6-0.3,0.8l1.7,16.8
			c0,1.9,1.4,3.4,3.2,3.4h16.9c1.7,0,3.1-1.5,3.2-3.4l1.7-16.8C-544.9,994.5-545,994.2-545.2,993.9z"/>
		<path class="st2" d="M-563.1,997.5c0.6,0,0.9-0.5,0.9-0.9v-5.2c0-1.5,1.5-2.4,2.9-2.4h2.4c1.5,0,2.4,0.9,2.4,2.4v5.2
			c0,0.6,0.5,0.9,0.9,0.9c0.6,0,0.9-0.5,0.9-0.9v-5.2c0-2.5-1.8-4.3-4.3-4.3h-2.4c-2.6,0-4.8,2-4.8,4.3v5.2
			C-564,997-563.6,997.5-563.1,997.5z"/>
	</g>
</g>
</svg>
