<svg id="Layer_1" xmlns="http://www.w3.org/2000/svg" viewBox="-654 996 56 9"><style>.st0{fill:#69665D;}</style><path class="st0" d="M-647.9 999.1c0 .8-.7 1.5-1.5 1.5 0 .8.7 1.5 1.5 1.5s1.5-.7 1.5-1.5-.7-1.5-1.5-1.5zm0-3c-3.1 0-6 3.5-6 4.5s2.9 4.5 6 4.5 6-3.5 6-4.5-2.9-4.5-6-4.5zm0 7.5c-1.7 0-3-1.3-3-3s1.3-3 3-3 3 1.3 3 3c0 1.6-1.3 3-3 3zM-632.8 1000.7h-3.9v3h4.5v.9h-5.7v-8.5h5.6v.9h-4.4v2.8h3.9v.9zM-626.2 1002.6c0-.4-.1-.7-.4-1-.3-.3-.8-.5-1.6-.7-.9-.2-1.6-.5-2.1-1s-.8-.9-.8-1.6c0-.7.3-1.2.8-1.7s1.3-.7 2.1-.7c.9 0 1.7.3 2.2.8s.8 1.1.8 1.8h-1.1c0-.5-.2-.9-.5-1.2s-.8-.5-1.4-.5c-.6 0-1 .1-1.3.4s-.5.6-.5 1 .2.7.5.9.9.5 1.6.7c.9.2 1.6.6 2.1 1s.7 1 .7 1.6c0 .7-.3 1.2-.8 1.7s-1.3.6-2.2.6c-.9 0-1.6-.2-2.3-.7s-1-1.1-1-1.9h1.1c0 .5.2 1 .6 1.2s.9.4 1.5.4 1-.1 1.4-.4c.4 0 .6-.3.6-.7zM-622.3 1001.3v3.4h-1.2v-8.5h3.3c.9 0 1.6.2 2.1.7s.8 1.1.8 1.9c0 .8-.3 1.4-.8 1.9s-1.2.7-2.1.7h-2.1zm0-.9h2.1c.6 0 1-.2 1.3-.5.3-.3.4-.7.4-1.2s-.1-.9-.4-1.2c-.3-.3-.7-.5-1.3-.5h-2.1v3.4zM-614.5 1004.7h-1.2v-8.5h1.2v8.5zM-607.6 1002.5h-3.6l-.8 2.2h-1.2l3.3-8.5h1l3.2 8.5h-1.2l-.7-2.2zm-3.2-1h2.9l-1.4-3.9-1.5 3.9zM-603.3 1001v3.7h-1.2v-8.5h3.1c.9 0 1.6.2 2.1.6s.7 1 .7 1.8c0 .4-.1.8-.3 1.1s-.6.6-1 .8c.5.2.8.4 1 .7s.3.8.3 1.3v.8c0 .3 0 .5.1.7s.2.4.3.5v.1h-1.2c-.2-.1-.2-.3-.3-.6s-.1-.5-.1-.8v-.8c0-.5-.1-.8-.4-1.1s-.6-.4-1.1-.4h-2zm0-.9h1.8c.7 0 1.1-.1 1.4-.4.3-.2.4-.6.4-1.1 0-.5-.1-.9-.4-1.1-.3-.3-.7-.4-1.3-.4h-1.9v3z"/></svg>