<svg xmlns="http://www.w3.org/2000/svg" width="200" height="45" viewBox="0 0 200 45"><path fill="#757575" d="M0 0h200v45H0V0z"/><g fill="#FFF"><path d="M162.177 13.283L172.97 24.2s1.04 1.208 2.25 0c.415-.46 10.707-11 10.707-11l1.75.125-.167 1.417s-11.166 11.208-11.417 11.416c-2.124 1.71-4.082 0-4.082 0L160.554 14.7v-1.833l1.624.416z"/><path d="M168.802 22.575l-8.208 8.54-.082 1.793 1.875-.46 8-8.248-1.585-1.625zm10.292 0l8.208 8.54.083 1.793-1.875-.46-8-8.248 1.584-1.625z"/><path d="M158.844 11.45v22.875h30.25V11.45h-30.25zm28.125 20.79h-26V13.534h26V32.24z"/></g><g fill="#FFF"><path d="M7.682 23.2c0-.81.146-1.61.44-2.4.292-.792.718-1.5 1.28-2.123a6.485 6.485 0 0 1 2.055-1.514c.81-.386 1.73-.58 2.765-.58 1.22 0 2.277.27 3.167.804.89.535 1.554 1.233 1.99 2.092l-1.982 1.363a3.41 3.41 0 0 0-.635-.944 3.197 3.197 0 0 0-.803-.607 3.704 3.704 0 0 0-.897-.328 4.285 4.285 0 0 0-.916-.102c-.647 0-1.212.13-1.69.393a3.74 3.74 0 0 0-1.197 1.018c-.318.418-.558.89-.72 1.42a5.328 5.328 0 0 0-.243 1.58c0 .585.094 1.15.28 1.69.188.54.452 1.02.795 1.43s.754.74 1.233.99c.48.25 1.006.373 1.58.373.298 0 .61-.036.934-.11a3.507 3.507 0 0 0 1.738-.982 2.85 2.85 0 0 0 .597-.925l2.11 1.215a3.99 3.99 0 0 1-.905 1.317c-.393.38-.835.7-1.327.96-.493.264-1.02.462-1.58.6a6.907 6.907 0 0 1-1.644.207c-.948 0-1.814-.2-2.598-.6a6.73 6.73 0 0 1-2.027-1.56 7.305 7.305 0 0 1-1.327-2.187 6.8 6.8 0 0 1-.476-2.494zM26.834 30.02c-.972 0-1.853-.19-2.644-.568a6.502 6.502 0 0 1-2.037-1.513 6.904 6.904 0 0 1-1.317-2.16 6.886 6.886 0 0 1-.467-2.485c0-.884.164-1.732.494-2.542.33-.81.785-1.526 1.364-2.15a6.535 6.535 0 0 1 2.064-1.484 6.127 6.127 0 0 1 2.598-.552c.958 0 1.834.196 2.625.588.79.393 1.466.906 2.027 1.542.56.636.996 1.358 1.308 2.167.31.81.467 1.632.467 2.467 0 .885-.162 1.73-.486 2.53s-.772 1.514-1.344 2.13a6.478 6.478 0 0 1-2.056 1.477c-.795.367-1.66.55-2.596.55zm-3.85-6.726c0 .572.087 1.127.262 1.662.175.536.427 1.01.757 1.42.33.412.735.742 1.215.99.48.25 1.024.374 1.635.374.624 0 1.173-.128 1.654-.383.48-.256.884-.595 1.214-1.02.33-.422.58-.898.75-1.428s.25-1.068.25-1.617a5.16 5.16 0 0 0-.27-1.663 4.627 4.627 0 0 0-.766-1.42 3.695 3.695 0 0 0-1.214-.982 3.53 3.53 0 0 0-1.617-.364c-.623 0-1.177.128-1.663.383s-.89.592-1.214 1.01c-.324.416-.57.89-.738 1.42a5.308 5.308 0 0 0-.253 1.617zM37.877 21.425v8.5H35.3V16.66h1.998l6.914 8.708v-8.69h2.578v13.25h-2.092l-6.82-8.503zM57.46 20.135a3.117 3.117 0 0 0-.477-.355 6.117 6.117 0 0 0-.84-.44 7.442 7.442 0 0 0-1.076-.364c-.386-.1-.778-.15-1.177-.15-.71 0-1.24.13-1.588.393-.35.26-.523.628-.523 1.102 0 .275.065.5.195.682.13.18.32.34.57.476.25.136.563.262.943.374.38.113.818.23 1.317.355.647.174 1.236.36 1.766.56.53.2.978.45 1.346.748.367.3.65.657.85 1.075s.3.93.3 1.542c0 .71-.136 1.315-.403 1.82a3.4 3.4 0 0 1-1.083 1.226 4.74 4.74 0 0 1-1.57.682 7.848 7.848 0 0 1-1.858.215 9.95 9.95 0 0 1-2.952-.45 9.006 9.006 0 0 1-2.616-1.27l1.14-2.222c.112.11.313.257.607.438.293.18.64.36 1.038.542.4.18.84.333 1.327.457s.984.187 1.495.187c1.42 0 2.13-.455 2.13-1.364 0-.286-.082-.53-.243-.728-.16-.2-.392-.374-.69-.524-.3-.15-.662-.286-1.085-.41-.424-.126-.897-.262-1.42-.41-.636-.176-1.187-.365-1.654-.57s-.857-.448-1.168-.73a2.752 2.752 0 0 1-.7-.97c-.157-.37-.234-.808-.234-1.318 0-.673.124-1.27.374-1.794s.595-.96 1.037-1.308a4.715 4.715 0 0 1 1.542-.794 6.353 6.353 0 0 1 1.886-.27c.935 0 1.794.145 2.58.438s1.47.64 2.055 1.037l-1.14 2.09zM66.616 27.74c.61 0 1.124-.124 1.54-.374a3.007 3.007 0 0 0 1.01-.97c.253-.4.435-.856.54-1.375.106-.516.16-1.048.16-1.596V16.66h2.56v6.764c0 .91-.11 1.763-.33 2.56-.215.8-.56 1.496-1.026 2.092a4.908 4.908 0 0 1-1.803 1.422c-.735.35-1.613.52-2.635.52-1.06 0-1.96-.182-2.7-.55-.742-.367-1.343-.853-1.804-1.456a5.82 5.82 0 0 1-1-2.103 9.897 9.897 0 0 1-.308-2.487V16.66h2.58v6.764c0 .562.054 1.1.16 1.616.105.518.287.976.54 1.374.256.4.59.72 1 .962.414.244.918.364 1.516.364zM75.025 29.927V16.66h2.578v11.006h6.765v2.26h-9.343zM93.654 18.92h-4.24v11.007h-2.56V18.92H82.61v-2.26h11.043v2.26zM104.51 27.666v2.26h-9.212V16.66h9.044v2.26h-6.465v3.197h5.587v2.093h-5.587v3.456h6.632zM105.893 25.93v-2.262h5.66v2.26h-5.66zM116.582 21.425v8.5h-2.58V16.66h2l6.913 8.708v-8.69h2.58v13.25H123.4l-6.818-8.503zM133.92 30.02c-.97 0-1.853-.19-2.644-.568a6.486 6.486 0 0 1-2.036-1.513 6.867 6.867 0 0 1-1.317-2.16 6.844 6.844 0 0 1-.467-2.485c0-.884.165-1.732.494-2.542.33-.81.784-1.526 1.365-2.15a6.51 6.51 0 0 1 2.063-1.484 6.116 6.116 0 0 1 2.597-.552c.96 0 1.836.196 2.626.588a6.538 6.538 0 0 1 2.028 1.542c.56.636.996 1.358 1.308 2.167a6.794 6.794 0 0 1-.018 4.998 6.864 6.864 0 0 1-1.346 2.13 6.485 6.485 0 0 1-2.055 1.476 6.112 6.112 0 0 1-2.596.55zm-3.85-6.726c0 .572.088 1.127.263 1.662.175.536.426 1.01.757 1.42.33.412.735.742 1.214.99.48.25 1.025.374 1.636.374.623 0 1.175-.128 1.654-.383.48-.256.884-.595 1.215-1.02.33-.422.578-.898.746-1.428a5.247 5.247 0 0 0-.018-3.28 4.585 4.585 0 0 0-.766-1.42 3.685 3.685 0 0 0-1.214-.982 3.526 3.526 0 0 0-1.617-.364c-.62 0-1.176.128-1.66.383a3.66 3.66 0 0 0-1.214 1.01c-.326.416-.57.89-.74 1.42a5.22 5.22 0 0 0-.255 1.617zM150.29 20.135a3.215 3.215 0 0 0-.478-.355 6.027 6.027 0 0 0-.84-.44 7.57 7.57 0 0 0-1.074-.364c-.386-.1-.778-.15-1.177-.15-.71 0-1.24.13-1.588.393-.35.26-.522.628-.522 1.102 0 .275.063.5.195.682.13.18.32.34.57.476.247.138.562.262.944.374.377.113.816.23 1.314.355.647.174 1.236.36 1.767.56.53.2.98.45 1.346.748.368.3.65.657.85 1.075.2.418.3.93.3 1.542 0 .71-.135 1.315-.402 1.82a3.42 3.42 0 0 1-1.083 1.226 4.75 4.75 0 0 1-1.57.682 7.83 7.83 0 0 1-1.857.215 9.94 9.94 0 0 1-2.952-.45 9 9 0 0 1-2.616-1.27l1.14-2.222c.112.11.314.257.606.438s.64.36 1.038.542c.397.18.84.333 1.326.457s.984.187 1.495.187c1.42 0 2.13-.455 2.13-1.364 0-.286-.082-.53-.244-.728-.162-.2-.392-.374-.69-.524a6.534 6.534 0 0 0-1.085-.41 126.65 126.65 0 0 0-1.418-.41 12.075 12.075 0 0 1-1.655-.57 4.313 4.313 0 0 1-1.168-.73 2.728 2.728 0 0 1-.702-.97c-.154-.37-.233-.808-.233-1.318 0-.673.126-1.27.374-1.794a3.62 3.62 0 0 1 1.036-1.308 4.7 4.7 0 0 1 1.54-.794 6.327 6.327 0 0 1 1.89-.27c.933 0 1.792.145 2.577.438s1.47.64 2.057 1.037l-1.14 2.09z"/></g></svg>