<svg xmlns="http://www.w3.org/2000/svg" width="200" height="45" viewBox="0 0 200 45"><path fill="#757575" d="M0 0h200v45H0V0z"/><g fill="#FFF"><path d="M23.104 26.973v1.693h-6.902v-9.94h6.776v1.694h-4.844v2.394h4.186v1.568h-4.186v2.59h4.97zM30.328 21.33a2.43 2.43 0 0 0-.357-.266 4.34 4.34 0 0 0-.63-.33 5.545 5.545 0 0 0-.804-.272 3.502 3.502 0 0 0-.882-.112c-.532 0-.93.098-1.19.294-.262.196-.392.47-.392.826 0 .205.05.375.147.51.097.136.24.255.426.358.187.103.422.196.707.28s.614.173.987.266c.485.13.926.27 1.323.42.396.15.732.337 1.008.56s.49.493.638.806c.15.313.224.698.224 1.155 0 .53-.1.986-.3 1.365-.202.377-.472.684-.813.917s-.733.403-1.177.51-.908.162-1.393.162a7.48 7.48 0 0 1-2.212-.337 6.877 6.877 0 0 1-1.96-.952l.854-1.665c.084.084.235.193.455.328a6.583 6.583 0 0 0 1.77.75c.365.094.738.14 1.12.14 1.065 0 1.597-.34 1.597-1.022a.838.838 0 0 0-.182-.544c-.12-.15-.294-.28-.518-.393a5.123 5.123 0 0 0-.812-.31l-1.064-.307c-.476-.13-.89-.272-1.24-.427s-.64-.337-.874-.547a2.036 2.036 0 0 1-.525-.728c-.118-.275-.176-.604-.176-.987 0-.504.093-.952.28-1.344a2.71 2.71 0 0 1 .777-.98c.332-.26.717-.46 1.156-.595.44-.136.91-.204 1.414-.204.7 0 1.344.11 1.932.33.588.22 1.1.478 1.54.776l-.854 1.568zM32.386 23.626c0-.606.11-1.206.33-1.8.218-.592.538-1.122.958-1.588.42-.466.933-.844 1.54-1.134.606-.29 1.297-.434 2.072-.434.915 0 1.706.2 2.373.602.666.4 1.163.924 1.49 1.568l-1.484 1.022c-.13-.28-.29-.516-.476-.707a2.39 2.39 0 0 0-.602-.455c-.215-.112-.44-.194-.672-.245s-.462-.077-.686-.077c-.485 0-.908.098-1.267.294a2.79 2.79 0 0 0-.896.763 3.358 3.358 0 0 0-.54 1.064c-.12.396-.18.79-.18 1.182 0 .44.07.86.21 1.268s.337.763.594 1.07c.257.31.565.556.925.742.36.188.753.28 1.183.28.224 0 .457-.028.7-.084a2.63 2.63 0 0 0 1.302-.736c.187-.19.336-.422.448-.693l1.582.91c-.16.373-.385.702-.68.987a4.413 4.413 0 0 1-.993.72c-.37.196-.763.346-1.183.448s-.83.154-1.232.154a4.23 4.23 0 0 1-1.946-.45 5.043 5.043 0 0 1-1.52-1.168c-.424-.48-.755-1.026-.993-1.638s-.357-1.233-.357-1.868zM46.736 28.736c-.728 0-1.388-.143-1.98-.428-.594-.284-1.102-.662-1.527-1.134s-.755-1.01-.988-1.616a5.16 5.16 0 0 1-.35-1.863 5 5 0 0 1 .37-1.903c.248-.606.59-1.143 1.023-1.61s.95-.838 1.547-1.113a4.596 4.596 0 0 1 1.946-.414c.72 0 1.375.147 1.967.44.592.295 1.1.68 1.52 1.156s.746 1.018.98 1.624a5.12 5.12 0 0 1 .35 1.85 5.156 5.156 0 0 1-1.372 3.492c-.43.462-.944.83-1.54 1.106a4.584 4.584 0 0 1-1.947.413zm-2.884-5.04c0 .43.065.845.196 1.245.13.403.32.758.567 1.065.247.31.55.556.91.742.36.188.768.28 1.225.28.467 0 .88-.096 1.24-.287s.662-.446.91-.763c.246-.318.433-.675.56-1.07.125-.398.188-.8.188-1.213 0-.43-.068-.844-.203-1.245s-.327-.757-.574-1.065a2.75 2.75 0 0 0-.91-.735 2.64 2.64 0 0 0-1.21-.273 2.64 2.64 0 0 0-1.246.287c-.364.19-.667.443-.91.756a3.388 3.388 0 0 0-.553 1.064c-.125.398-.188.8-.188 1.21zM53.078 28.666v-9.94h1.932v8.247h5.068v1.693h-7zM69.612 18.726v9.94h-1.918v-4.242h-4.508v4.242h-1.932v-9.94h1.932v4.018h4.508v-4.018h1.918zM74.512 18.726h1.708l3.78 9.94h-1.988l-.924-2.48h-3.472l-.91 2.48h-1.988l3.794-9.94zm2.226 6.104l-1.372-3.906-1.428 3.906h2.8zM88.26 28.736c-.728 0-1.388-.143-1.98-.428-.594-.284-1.102-.662-1.527-1.134s-.754-1.01-.987-1.616a5.16 5.16 0 0 1-.35-1.863 5 5 0 0 1 .37-1.903c.248-.606.59-1.143 1.023-1.61s.948-.838 1.546-1.113a4.596 4.596 0 0 1 1.946-.414c.72 0 1.375.147 1.967.44.59.295 1.098.68 1.518 1.156s.747 1.018.98 1.624a5.12 5.12 0 0 1 .35 1.85 5.156 5.156 0 0 1-1.372 3.492c-.43.462-.943.83-1.54 1.106a4.584 4.584 0 0 1-1.946.413zm-2.884-5.04c0 .43.065.845.196 1.245.13.403.32.758.567 1.065.246.31.55.556.91.742.358.188.767.28 1.224.28.467 0 .88-.096 1.24-.287s.662-.446.91-.763c.246-.318.433-.675.56-1.07.125-.398.188-.8.188-1.213 0-.43-.068-.844-.203-1.245s-.328-.757-.575-1.065a2.75 2.75 0 0 0-.91-.735 2.64 2.64 0 0 0-1.21-.273 2.64 2.64 0 0 0-1.247.287c-.364.19-.667.443-.91.756a3.388 3.388 0 0 0-.553 1.064c-.126.398-.19.8-.19 1.21zM94.602 28.666v-9.94h4.214c.457 0 .88.096 1.267.287.388.19.722.443 1 .756.28.312.5.666.66 1.063.158.397.237.796.237 1.197 0 .42-.075.83-.224 1.225-.15.397-.36.75-.63 1.058-.272.308-.598.555-.98.742-.383.186-.803.28-1.26.28h-2.353v3.33h-1.93zm1.93-5.025h2.24c.355 0 .652-.144.89-.434.238-.29.357-.68.357-1.176a1.93 1.93 0 0 0-.113-.68 1.64 1.64 0 0 0-.294-.51 1.17 1.17 0 0 0-.427-.315 1.25 1.25 0 0 0-.497-.105h-2.157v3.22zM106.277 30.444c.11.064.284.126.518.182s.477.084.73.084c.24 0 .433-.035.572-.104.14-.07.21-.19.21-.357s-.067-.288-.202-.358a1.16 1.16 0 0 0-.525-.104c-.196 0-.403.02-.623.063s-.385.078-.497.106l.616-1.232c-.645-.056-1.237-.242-1.778-.56s-1.003-.712-1.386-1.184a5.473 5.473 0 0 1-.896-1.582 5.1 5.1 0 0 1-.32-1.77c0-.607.108-1.207.328-1.8.22-.593.54-1.123.96-1.59.42-.465.932-.843 1.54-1.133.605-.29 1.296-.434 2.07-.434.915 0 1.706.202 2.373.603s1.164.924 1.49 1.568l-1.483 1.023a2.51 2.51 0 0 0-.476-.707 2.407 2.407 0 0 0-.602-.455c-.215-.11-.44-.193-.673-.244s-.462-.077-.686-.077c-.485 0-.908.097-1.267.293a2.8 2.8 0 0 0-.896.763 3.358 3.358 0 0 0-.54 1.064 4.04 4.04 0 0 0-.18 1.183c0 .44.068.86.21 1.268.14.407.337.764.594 1.07.257.31.564.557.924.743.36.188.754.28 1.184.28a3.1 3.1 0 0 0 .7-.084 2.63 2.63 0 0 0 1.3-.737c.188-.19.337-.422.448-.693l1.582.91a2.83 2.83 0 0 1-.608.925c-.267.27-.565.504-.896.7-.33.195-.688.35-1.07.462-.383.11-.76.182-1.135.21l-.336.518A1.82 1.82 0 0 1 108 29.2a1.5 1.5 0 0 1 .84.23c.234.153.352.403.352.748 0 .354-.147.648-.44.882s-.745.35-1.352.35a3.89 3.89 0 0 1-.84-.083 4.328 4.328 0 0 1-.658-.196l.377-.686zM117.044 28.736c-.73 0-1.39-.143-1.98-.428a4.818 4.818 0 0 1-1.526-1.134 5.14 5.14 0 0 1-.987-1.616 5.16 5.16 0 0 1-.35-1.863 5 5 0 0 1 .37-1.903 5.26 5.26 0 0 1 1.023-1.61c.434-.467.95-.838 1.547-1.113a4.596 4.596 0 0 1 1.946-.414c.72 0 1.374.147 1.967.44s1.1.68 1.52 1.156.746 1.018.98 1.624a5.12 5.12 0 0 1 .35 1.85 5.147 5.147 0 0 1-1.372 3.492 4.83 4.83 0 0 1-1.542 1.106 4.584 4.584 0 0 1-1.946.413zm-2.885-5.04c0 .43.064.845.195 1.245.13.403.32.758.567 1.065.247.31.55.556.91.742a2.6 2.6 0 0 0 1.225.28c.467 0 .88-.096 1.24-.287s.66-.446.91-.763c.246-.318.433-.675.56-1.07.125-.398.188-.8.188-1.213 0-.43-.068-.844-.203-1.245a3.46 3.46 0 0 0-.574-1.065 2.74 2.74 0 0 0-.91-.735 2.64 2.64 0 0 0-1.21-.273c-.468 0-.883.096-1.247.287s-.666.443-.91.756a3.41 3.41 0 0 0-.552 1.064c-.125.398-.19.8-.19 1.21zm3.82-6.048c-.214 0-.4-.033-.56-.098a3.35 3.35 0 0 1-.44-.217c-.135-.08-.27-.15-.406-.217a.972.972 0 0 0-.427-.098c-.158 0-.282.033-.37.098a.713.713 0 0 0-.288.455c-.01.07-.015.11-.015.12h-1.036c0-.084.027-.226.083-.427.057-.2.147-.4.273-.602s.294-.377.504-.53c.21-.155.47-.232.776-.232.215 0 .4.035.554.105.153.07.3.145.434.224.136.08.27.154.406.224.135.07.287.106.455.106s.3-.033.398-.098a.728.728 0 0 0 .323-.462c.014-.075.02-.12.02-.14h1.037c0 .065-.028.196-.085.392-.056.196-.15.397-.286.602-.136.206-.313.39-.532.553-.22.163-.49.245-.82.245zM130.288 26.973v1.693h-6.902v-9.94h6.775v1.694h-4.843v2.394h4.187v1.568h-4.187v2.59h4.97zM137.512 21.33c-.065-.065-.185-.154-.357-.266s-.383-.222-.63-.33c-.247-.106-.516-.197-.805-.272s-.583-.112-.882-.112c-.532 0-.93.098-1.19.294-.26.196-.392.47-.392.826 0 .205.05.375.146.51.1.136.24.255.428.358.187.103.422.196.707.28.284.084.613.173.986.266.485.13.927.27 1.323.42.396.15.732.337 1.008.56s.488.493.638.806c.148.313.224.698.224 1.155 0 .53-.1.986-.3 1.365-.202.377-.473.684-.814.917s-.732.403-1.176.51-.908.162-1.393.162a7.492 7.492 0 0 1-2.213-.337 6.877 6.877 0 0 1-1.96-.952l.854-1.665c.084.084.235.193.455.328.218.137.477.27.775.406.3.135.63.25.994.343.363.094.736.14 1.12.14 1.063 0 1.595-.34 1.595-1.022a.838.838 0 0 0-.182-.544c-.12-.15-.294-.28-.518-.393a5.137 5.137 0 0 0-.813-.31l-1.063-.307c-.478-.13-.89-.272-1.24-.427s-.642-.337-.875-.547-.408-.452-.525-.728a2.532 2.532 0 0 1-.175-.987c0-.504.094-.952.28-1.344s.445-.72.777-.98c.33-.26.716-.46 1.154-.595a4.78 4.78 0 0 1 1.414-.204c.7 0 1.344.11 1.933.33.588.22 1.1.478 1.54.776l-.85 1.568zM145.926 18.726h1.708l3.78 9.94h-1.988l-.924-2.48h-3.473l-.91 2.48h-1.988l3.794-9.94zm2.225 6.104l-1.37-3.906-1.43 3.906h2.8zM151.54 23.626c0-.606.11-1.206.328-1.8.22-.592.54-1.122.96-1.588.42-.466.933-.844 1.54-1.134.605-.29 1.297-.434 2.07-.434.916 0 1.707.2 2.374.602s1.164.924 1.49 1.568l-1.483 1.022c-.132-.28-.29-.516-.477-.707a2.41 2.41 0 0 0-.603-.455c-.215-.112-.438-.194-.672-.245s-.462-.077-.686-.077c-.485 0-.908.098-1.268.294a2.8 2.8 0 0 0-.896.763 3.358 3.358 0 0 0-.54 1.064c-.12.396-.182.79-.182 1.182 0 .44.07.86.21 1.268.14.406.34.763.596 1.07.257.31.564.556.924.742.36.188.754.28 1.183.28a3.1 3.1 0 0 0 .7-.084 2.63 2.63 0 0 0 1.3-.736 2.18 2.18 0 0 0 .448-.693l1.582.91c-.16.373-.385.702-.68.987a4.435 4.435 0 0 1-.993.72c-.37.196-.763.346-1.183.448a5.17 5.17 0 0 1-1.232.154 4.23 4.23 0 0 1-1.946-.45c-.588-.297-1.094-.687-1.52-1.168s-.755-1.026-.993-1.638-.354-1.233-.354-1.868zM161.745 28.666v-9.94h1.932v9.94h-1.932zM173.854 28.666v-6.58l-2.562 4.9h-1.05l-2.563-4.9v6.58h-1.933v-9.94h2.072l2.938 5.656 2.968-5.656h2.06v9.94h-1.932zM180.688 18.726h1.708l3.78 9.94h-1.988l-.924-2.48h-3.473l-.91 2.48h-1.986l3.794-9.94zm2.225 6.104l-1.372-3.906-1.427 3.906h2.8z"/></g></svg>