<?xml version="1.0" encoding="utf-8"?>
<!-- Generator: Adobe Illustrator 19.0.0, SVG Export Plug-In . SVG Version: 6.00 Build 0)  -->
<svg version="1.1" id="Layer_1" xmlns="http://www.w3.org/2000/svg" xmlns:xlink="http://www.w3.org/1999/xlink" x="0px" y="0px"
	 viewBox="-656 994.5 97 12" style="enable-background:new -656 994.5 97 12;" xml:space="preserve">
<g>
	<path d="M-568.2,994.5l9.2,6l-9.2,6V994.5z"/>
	<g>
		<path d="M-651.3,1003.4l0.3,0.9h0l0.3-0.9l3-8.8h1.7l-4.3,11.7h-1.4l-4.3-11.7h1.7L-651.3,1003.4z"/>
		<path d="M-637.4,1000.9h-5.3v4.2h6.2v1.2h-7.7v-11.7h7.7v1.2h-6.1v3.8h5.3V1000.9z"/>
		<path d="M-630.1,994.7h1.6v8.4c0,1-0.3,1.9-1,2.5c-0.7,0.6-1.5,0.9-2.6,0.9c-1.1,0-2-0.3-2.7-0.9c-0.7-0.6-1-1.4-1-2.5l0,0h1.5
			c0,0.7,0.2,1.3,0.5,1.6c0.4,0.4,0.9,0.5,1.6,0.5c0.6,0,1.1-0.2,1.4-0.6c0.4-0.4,0.6-0.9,0.6-1.6V994.7z"/>
		<path d="M-619.6,1003.3h-4.9l-1.1,3h-1.6l4.5-11.7h1.4l4.4,11.7h-1.6L-619.6,1003.3z M-624,1002h3.9l-1.9-5.3h0L-624,1002z"/>
		<path d="M-609.2,994.7l3.7,9.5h0l3.7-9.5h2v11.7h-1.6v-4.6l0.2-4.7l0,0l-3.8,9.4h-1.1l-3.8-9.3l0,0l0.2,4.7v4.6h-1.6v-11.7H-609.2
			z"/>
		<path d="M-590.3,1003.3h-4.9l-1.1,3h-1.6l4.5-11.7h1.4l4.4,11.7h-1.6L-590.3,1003.3z M-594.7,1002h3.9l-1.9-5.3h0L-594.7,1002z"/>
		<path d="M-584.4,1006.3h-1.6v-11.7h1.6V1006.3z"/>
		<path d="M-575,1003.4c0-0.5-0.2-1-0.6-1.3c-0.4-0.4-1.1-0.7-2.1-0.9c-1.2-0.3-2.2-0.7-2.9-1.3c-0.7-0.6-1-1.3-1-2.2
			c0-0.9,0.4-1.7,1.1-2.3s1.7-0.9,2.9-0.9c1.3,0,2.3,0.3,3,1c0.8,0.7,1.1,1.5,1.1,2.4l0,0h-1.5c0-0.7-0.2-1.2-0.7-1.7
			c-0.5-0.4-1.1-0.6-1.9-0.6c-0.8,0-1.4,0.2-1.8,0.5c-0.4,0.4-0.6,0.8-0.6,1.4c0,0.5,0.2,0.9,0.7,1.3s1.2,0.6,2.2,0.9
			c1.2,0.3,2.2,0.8,2.8,1.3c0.6,0.6,1,1.3,1,2.2c0,0.9-0.4,1.7-1.2,2.3c-0.8,0.6-1.8,0.9-3,0.9c-1.2,0-2.2-0.3-3.1-0.9
			c-0.9-0.6-1.3-1.5-1.3-2.5l0,0h1.5c0,0.7,0.3,1.3,0.8,1.7c0.6,0.4,1.2,0.6,2,0.6c0.8,0,1.4-0.2,1.9-0.5
			C-575.3,1004.4-575,1004-575,1003.4z"/>
	</g>
</g>
</svg>
