<svg id="Layer_1" xmlns="http://www.w3.org/2000/svg" viewBox="-582 976 200 50"><style>.st0{fill:#A09E9A;} .st1{display:none;fill:#FFFFFF;stroke:#41B1D8;stroke-linecap:round;stroke-linejoin:round;stroke-miterlimit:10;} .st2{display:none;fill:#FFFFFF;} .st3{fill:#69665D;} .st4{fill:none;stroke:#A09E9A;stroke-miterlimit:10;} .st5{enable-background:new ;} .st6{fill:#FFFFFF;}</style><path class="st0" d="M-582 976h200v50h-200z"/><circle class="st1" cx="-563.5" cy="986.2" r="3.9"/><path class="st2" d="M-548.8 997.2c-1 0-1.8.8-1.8 1.8v4.3c0 .3-.3.6-.6.6s-.6-.3-.6-.6v-6.1c0-1-.8-1.8-1.8-1.8s-1.8.8-1.8 1.8v4.9c0 .3-.3.6-.6.6s-.6-.3-.6-.6v-8c0-1-.8-1.8-1.8-1.8s-1.8.8-1.8 1.8v8c0 .3-.3.6-.6.6s-.6-.3-.6-.6v-15.6c0-1-.8-1.8-1.8-1.8s-1.8.8-1.8 1.8v21.6l-2.5-3.4c-.7-1.1-2.2-1.5-3.2-.9-1 .7-1.3 2.1-.6 3.2 0 0 4 6 5.7 8.6 1.7 2.6 4.4 4.6 9.6 4.6 8.5 0 9.3-6.6 9.3-8.5V999c-.3-1-1.1-1.8-2.1-1.8z"/><path class="st3" d="M-582 976h47.2v50H-582z"/><circle class="st4" cx="-562.4" cy="986.6" r="5.4"/><path class="st0" d="M-547.8 997.6c-1 0-1.8.8-1.8 1.8v4.3c0 .3-.3.6-.6.6s-.6-.3-.6-.6v-6.1c0-1-.8-1.8-1.8-1.8s-1.8.8-1.8 1.8v4.9c0 .3-.3.6-.6.6s-.6-.3-.6-.6v-8c0-1-.8-1.8-1.8-1.8s-1.8.8-1.8 1.8v8c0 .3-.3.6-.6.6s-.6-.3-.6-.6v-15.6c0-1-.8-1.8-1.8-1.8s-1.8.8-1.8 1.8v21.6l-2.5-3.4c-.7-1.1-2.2-1.5-3.2-.9-1 .7-1.3 2.1-.6 3.2 0 0 4 6 5.7 8.6 1.7 2.6 4.4 4.6 9.6 4.6 8.5 0 9.3-6.6 9.3-8.5v-12.9c-.2-.8-1.1-1.6-2.1-1.6z"/><g><g class="st5"><path class="st6" d="M-508.4 998c0-.7-.3-1.3-.8-1.8s-1.5-.9-2.9-1.2c-1.7-.4-2.9-1-3.9-1.7-.9-.8-1.4-1.7-1.4-2.9s.5-2.2 1.5-3.1 2.3-1.2 3.9-1.2c1.7 0 3.1.5 4.1 1.4 1 .9 1.5 2 1.5 3.3v.1h-2c0-.9-.3-1.7-.9-2.2-.6-.6-1.5-.8-2.6-.8s-1.9.2-2.4.7c-.6.5-.8 1.1-.8 1.9 0 .7.3 1.2.9 1.7.6.5 1.6.9 3 1.2 1.6.4 2.9 1 3.8 1.8s1.3 1.8 1.3 3c0 1.3-.5 2.3-1.5 3s-2.4 1.1-4 1.1-2.9-.4-4.1-1.3c-1.2-.8-1.8-2-1.7-3.4v-.1h2c0 1 .4 1.8 1.1 2.3.7.5 1.7.8 2.7.8 1.1 0 1.9-.2 2.5-.7s.7-1.1.7-1.9zM-493.9 994.7h-7.2v5.6h8.3v1.7h-10.4v-15.6h10.3v1.7h-8.1v5.1h7.2v1.5zM-488.2 1000.3h7.4v1.7h-9.5v-15.6h2.1v13.9zM-469.2 994.7h-7.2v5.6h8.3v1.7h-10.4v-15.6h10.3v1.7h-8.1v5.1h7.2v1.5zM-454.6 996.9c0 1.5-.5 2.8-1.5 3.8-1.1 1-2.5 1.5-4.2 1.5-1.8 0-3.2-.6-4.3-1.9s-1.7-2.8-1.7-4.8v-2.8c0-1.9.6-3.5 1.7-4.8 1.1-1.3 2.6-1.9 4.3-1.9 1.8 0 3.2.5 4.2 1.4 1 .9 1.6 2.2 1.5 3.7v.1h-2c0-1.1-.3-2-1-2.6s-1.6-1-2.7-1c-1.2 0-2.1.5-2.8 1.4-.7 1-1.1 2.1-1.1 3.5v2.8c0 1.4.4 2.6 1.1 3.6.7 1 1.6 1.4 2.8 1.4 1.2 0 2.1-.3 2.7-1 .6-.6 1-1.5 1-2.6h2zM-449.4 1002h-2.1v-15.6h2.1v15.6zM-433.6 995.5c0 1.9-.6 3.5-1.8 4.8-1.2 1.3-2.7 1.9-4.6 1.9-1.8 0-3.3-.6-4.5-1.9-1.1-1.3-1.7-2.8-1.7-4.8v-2.8c0-1.9.6-3.5 1.7-4.8 1.1-1.3 2.6-1.9 4.5-1.9s3.4.6 4.6 1.9c1.2 1.3 1.8 2.9 1.8 4.8v2.8zm-2.1-2.8c0-1.4-.4-2.6-1.2-3.5s-1.8-1.4-3.1-1.4c-1.2 0-2.2.5-2.9 1.4-.7.9-1.1 2.1-1.1 3.5v2.8c0 1.4.4 2.6 1.1 3.5.7.9 1.7 1.4 2.9 1.4 1.3 0 2.4-.5 3.1-1.4.8-.9 1.2-2.1 1.2-3.6v-2.7zM-418.6 1002h-2.1l-7.5-12.1h-.1v12.1h-2.1v-15.6h2.1l7.5 12.1h.1v-12.1h2.1v15.6zM-405.5 994.7h-7.2v5.6h8.3v1.7h-10.4v-15.6h10.3v1.7h-8.1v5.1h7.2v1.5z"/></g><g class="st5"><path class="st6" d="M-462.8 1017.4c0-.2-.1-.4-.1-.6v-.5c-.3.4-.6.7-1 .9-.4.2-.8.4-1.3.4-.8 0-1.4-.2-1.8-.6-.4-.4-.6-.9-.6-1.6 0-.7.3-1.3.9-1.7.6-.4 1.3-.6 2.3-.6h1.5v-.7c0-.4-.1-.8-.4-1-.3-.3-.6-.4-1.1-.4-.4 0-.8.1-1.1.3-.3.2-.4.5-.4.8h-1.3c0-.5.2-1 .8-1.5.5-.4 1.2-.7 2.1-.7.8 0 1.5.2 2 .6.5.4.8 1 .8 1.8v4.4s.1.5.2.7h-1.5zm-2.3-1c.5 0 .9-.1 1.3-.4.4-.2.6-.5.8-.9v-1.2h-1.5c-.5 0-1 .1-1.3.4-.3.3-.5.6-.5 1 0 .3.1.6.3.8.2.2.5.3.9.3zM-455.4 1015.4c0-.3-.1-.5-.3-.7s-.7-.4-1.3-.5c-.9-.2-1.6-.5-2-.8-.5-.3-.7-.8-.7-1.4 0-.6.3-1.1.8-1.5.5-.4 1.2-.6 2-.6.9 0 1.5.2 2.1.7.5.4.8 1 .7 1.6h-1.3c0-.3-.1-.6-.4-.9-.3-.3-.6-.4-1.1-.4-.5 0-.8.1-1.1.3s-.3.5-.3.8c0 .3.1.5.3.7s.6.3 1.3.5c.9.2 1.6.5 2.1.8.5.3.7.8.7 1.4 0 .7-.3 1.2-.8 1.6-.5.4-1.2.6-2.1.6-.9 0-1.7-.2-2.2-.7-.5-.5-.8-1-.8-1.7h1.3c0 .5.2.8.5 1 .3.2.7.3 1.2.3s.9-.1 1.1-.3c.2-.2.3-.5.3-.8zM-449.2 1013.6c0-1.1.3-2 .9-2.7.6-.7 1.4-1.1 2.4-1.1s1.8.4 2.4 1.1.9 1.6.9 2.7v.2c0 1.1-.3 2-.9 2.7-.6.7-1.4 1.1-2.4 1.1s-1.8-.4-2.4-1.1c-.6-.7-.9-1.6-.9-2.7v-.2zm1.3.2c0 .8.2 1.4.5 1.9s.8.8 1.5.8c.6 0 1.1-.3 1.5-.8.3-.5.5-1.2.5-1.9v-.1c0-.8-.2-1.4-.5-1.9s-.8-.8-1.5-.8c-.6 0-1.1.3-1.5.8-.3.5-.5 1.2-.5 1.9v.1zM-434.6 1014c0 1.1-.3 1.9-.8 2.6-.5.7-1.2 1-2.1 1-.5 0-.9-.1-1.2-.2-.3-.2-.6-.4-.9-.7v3.6h-1.3V1010h1l.2 1c.2-.4.5-.6.9-.8.4-.2.8-.3 1.3-.3.9 0 1.6.4 2.1 1.1.5.7.8 1.7.8 2.9v.1zm-1.4-.2c0-.8-.2-1.5-.5-2.1-.3-.5-.8-.8-1.5-.8-.4 0-.7.1-1 .3-.3.2-.5.4-.7.7v3.6c.2.3.4.5.7.7s.6.3 1 .3c.6 0 1.1-.2 1.4-.7.3-.5.5-1.1.5-1.8v-.2zM-430 1016.5c.4 0 .8-.1 1.2-.4.3-.3.5-.6.5-1h1.2c0 .6-.3 1.2-.9 1.7-.6.5-1.3.7-2.1.7-1.1 0-1.9-.4-2.5-1.1-.6-.7-.9-1.6-.9-2.6v-.3c0-1.1.3-1.9.9-2.6.6-.7 1.4-1.1 2.5-1.1.9 0 1.6.3 2.1.8s.8 1.1.8 1.9h-1.2c0-.5-.2-.8-.5-1.2-.3-.3-.7-.5-1.2-.5-.7 0-1.2.3-1.5.8-.3.5-.5 1.1-.5 1.9v.3c0 .8.2 1.4.5 1.9.4.5.9.8 1.6.8zm.2.9l-.1.4c.3 0 .5.2.7.4.2.2.3.5.3.8 0 .4-.2.8-.5 1-.4.3-.9.4-1.5.4v-.7c.3 0 .6-.1.8-.2.2-.1.3-.3.3-.5s-.1-.4-.2-.5-.4-.1-.8-.2l.2-.9h.8zM-425.9 1013.6c0-1.1.3-2 .9-2.7.6-.7 1.4-1.1 2.4-1.1s1.8.4 2.4 1.1.9 1.6.9 2.7v.2c0 1.1-.3 2-.9 2.7-.6.7-1.4 1.1-2.4 1.1s-1.8-.4-2.4-1.1c-.6-.7-.9-1.6-.9-2.7v-.2zm5.7-6.6c0 .4-.1.8-.4 1.1-.3.3-.6.4-1 .4-.3 0-.7-.1-1-.3-.4-.2-.6-.3-.9-.3-.2 0-.4.1-.5.2-.1.1-.2.3-.2.5l-.7-.2c0-.4.1-.8.4-1.1.3-.3.6-.5 1-.5.3 0 .6.1 1 .3s.7.3.9.3c.2 0 .3-.1.5-.2.1-.1.2-.3.2-.5l.7.3zm-4.3 6.8c0 .8.2 1.4.5 1.9s.8.8 1.5.8c.6 0 1.1-.3 1.5-.8.3-.5.5-1.2.5-1.9v-.1c0-.8-.2-1.4-.5-1.9s-.8-.8-1.5-.8c-.6 0-1.1.3-1.5.8-.3.5-.5 1.2-.5 1.9v.1zM-414.5 1017.5c-1 0-1.8-.3-2.5-1-.6-.7-.9-1.6-.9-2.7v-.3c0-1.1.3-1.9.9-2.6.6-.7 1.4-1 2.2-1 1 0 1.8.3 2.3.9.5.6.8 1.4.8 2.4v.8h-4.8c0 .7.2 1.3.5 1.7.3.5.8.7 1.5.7.5 0 .9-.1 1.2-.2.3-.1.6-.3.9-.5l.5.9c-.3.3-.6.5-1 .7-.5.1-1 .2-1.6.2zm-.2-6.6c-.5 0-.8.2-1.2.6-.3.4-.5.9-.6 1.4h3.4v-.2c0-.5-.1-1-.4-1.3-.2-.3-.7-.5-1.2-.5zM-405.9 1015.4c0-.3-.1-.5-.3-.7s-.7-.4-1.3-.5c-.9-.2-1.6-.5-2-.8-.5-.3-.7-.8-.7-1.4 0-.6.3-1.1.8-1.5.5-.4 1.2-.6 2-.6.9 0 1.5.2 2.1.7.5.4.8 1 .7 1.6h-1.3c0-.3-.1-.6-.4-.9-.3-.3-.6-.4-1.1-.4-.5 0-.8.1-1.1.3s-.3.5-.3.8c0 .3.1.5.3.7s.6.3 1.3.5c.9.2 1.6.5 2.1.8.5.3.7.8.7 1.4 0 .7-.3 1.2-.8 1.6-.5.4-1.2.6-2.1.6-.9 0-1.7-.2-2.2-.7-.5-.5-.8-1-.8-1.7h1.3c0 .5.2.8.5 1 .3.2.7.3 1.2.3s.9-.1 1.1-.3c.2-.2.3-.5.3-.8z"/></g></g></svg>