<?xml version="1.0" encoding="utf-8"?>
<!-- Generator: Adobe Illustrator 19.0.0, SVG Export Plug-In . SVG Version: 6.00 Build 0)  -->
<svg version="1.1" id="Layer_1" xmlns="http://www.w3.org/2000/svg" xmlns:xlink="http://www.w3.org/1999/xlink" x="0px" y="0px"
	 viewBox="-662 996 41 9" style="enable-background:new -662 996 41 9;" xml:space="preserve">
<style type="text/css">
	.st0{fill:#69665D;}
</style>
<g>
	<g id="Layer_2">
	</g>
	<path class="st0" d="M-625.5,996c-2.5,0-4.5,2-4.5,4.5s2,4.5,4.5,4.5s4.5-2,4.5-4.5C-621.1,998-623.1,996-625.5,996z M-622.5,1001
		h-2.5v2.5h-1v-2.5h-2.5v-1h2.5v-2.5h1v2.5h2.5V1001z"/>
	<g>
		<path class="st0" d="M-658.4,1002.6l0.2,0.7h0l0.2-0.7l2.2-6.4h1.2l-3.2,8.5h-1l-3.2-8.5h1.3L-658.4,1002.6z"/>
		<path class="st0" d="M-648.2,1000.7h-3.9v3h4.5v0.9h-5.7v-8.5h5.6v0.9h-4.4v2.8h3.9V1000.7z"/>
		<path class="st0" d="M-642.9,996.2h1.2v6.2c0,0.8-0.2,1.4-0.7,1.8c-0.5,0.4-1.1,0.7-1.9,0.7c-0.8,0-1.5-0.2-2-0.6s-0.7-1-0.7-1.8
			l0,0h1.1c0,0.5,0.1,0.9,0.4,1.2s0.6,0.4,1.1,0.4c0.4,0,0.8-0.1,1-0.4c0.3-0.3,0.4-0.7,0.4-1.2V996.2z"/>
		<path class="st0" d="M-635.2,1002.5h-3.6l-0.8,2.2h-1.2l3.3-8.5h1l3.2,8.5h-1.2L-635.2,1002.5z M-638.4,1001.5h2.9l-1.4-3.9h0
			L-638.4,1001.5z"/>
	</g>
</g>
</svg>
