<?xml version="1.0" encoding="utf-8"?>
<!-- Generator: Adobe Illustrator 15.0.0, SVG Export Plug-In . SVG Version: 6.00 Build 0)  -->
<!DOCTYPE svg PUBLIC "-//W3C//DTD SVG 1.1//EN" "http://www.w3.org/Graphics/SVG/1.1/DTD/svg11.dtd">
<svg version="1.1" id="Layer_1" xmlns="http://www.w3.org/2000/svg" xmlns:xlink="http://www.w3.org/1999/xlink" x="0px" y="0px"
	 width="40px" height="40px" viewBox="-2.5 -2.5 40 40" enable-background="new -2.5 -2.5 40 40" xml:space="preserve">
<g id="Layer_2">
</g>
<path fill="#A7A7A7" d="M27.421,25.479l-5.766-5.767c0.879-1.257,1.394-2.789,1.394-4.44c0-4.293-3.481-7.773-7.775-7.773
	S7.5,10.979,7.5,15.272c0,4.294,3.48,7.774,7.774,7.774c1.651,0,3.181-0.515,4.441-1.392v-0.002l5.767,5.766
	c0.106,0.107,0.276,0.111,0.386,0l1.554-1.554C27.528,25.758,27.523,25.581,27.421,25.479z M15.274,21.217
	c-3.283,0-5.945-2.661-5.945-5.944c0-3.283,2.662-5.944,5.945-5.944c3.284,0,5.945,2.662,5.945,5.944
	C21.219,18.556,18.558,21.217,15.274,21.217z"/>
</svg>
