<?xml version="1.0" encoding="utf-8"?>
<!-- Generator: Adobe Illustrator 19.0.0, SVG Export Plug-In . SVG Version: 6.00 Build 0)  -->
<svg version="1.1" id="Layer_1" xmlns="http://www.w3.org/2000/svg" xmlns:xlink="http://www.w3.org/1999/xlink" x="0px" y="0px"
	 viewBox="-658 990.5 32 21" style="enable-background:new -658 990.5 32 21;" xml:space="preserve">
<style type="text/css">
	.st0{fill:#3498D8;}
	.st1{fill:#FFFFFF;}
</style>
<g id="E-Com">
	<g id="CVC_5_">
	</g>
	<g id="Mastercard_5_">
	</g>
	<g id="Visa_6_">
	</g>
	<g id="Discover">
	</g>
	<g id="Amex_3_">
		<g id="Amex">
			<g>
				<path class="st0" d="M-628,990.5h-28c-1.1,0-2,0.9-2,2v17c0,1.1,0.9,2,2,2h28c1.1,0,2-0.9,2-2v-17
					C-626,991.4-626.9,990.5-628,990.5z"/>
			</g>
		</g>
		<g id="Amex_1_">
			<g>
				<path class="st1" d="M-651.3,1001.3h1.6l-0.8-2L-651.3,1001.3z M-629,997.5h-4.1l-1,1.1l-0.9-1.1h-8.7l-0.8,1.8l-0.8-1.8h-3.5
					v0.8l-0.4-0.8h-3l-2.9,7h3.5l0.4-1.1h1l0.4,1.1h3.9v-0.8l0.3,0.8h2l0.3-0.9v0.9h8l1-1.1l0.9,1.1h4.1l-2.6-3.5L-629,997.5z
					 M-641.1,1003.5h-1.1v-3.9l-1.7,3.9h-1l-1.7-3.9v3.9h-2.3l-0.4-1.1h-2.4l-0.4,1.1h-1.3l2.1-5h1.7l1.9,4.7v-4.7h1.9l1.5,3.4
					l1.4-3.4h1.9L-641.1,1003.5L-641.1,1003.5z M-631.2,1003.5h-1.5l-1.3-1.7l-1.5,1.7h-4.5v-5h4.6l1.4,1.6l1.5-1.6h1.4l-2.2,2.5
					L-631.2,1003.5z M-638.9,999.5v0.9h2.5v1h-2.5v1h2.8l1.3-1.5l-1.2-1.4H-638.9z"/>
			</g>
		</g>
	</g>
	<g id="Bitcoin_3_">
	</g>
	<g id="Google_Wallet_5_">
	</g>
	<g id="PayPal_3_">
	</g>
	<g id="Square_Payment_1_">
	</g>
	<g id="Shop_5_">
	</g>
	<g id="Postage">
	</g>
	<g id="Package_7_">
	</g>
	<g id="Discount_3_">
	</g>
	<g id="Earth_3_">
	</g>
	<g id="Barcode_3_">
	</g>
	<g id="Cart_Plus_6_">
	</g>
	<g id="Cart_Minus_6_">
	</g>
	<g id="Cart_4_">
	</g>
	<g id="Receipt_5_">
	</g>
	<g id="Truck_9_">
	</g>
	<g id="Calculator_6_">
	</g>
	<g id="Euro_Symbol">
	</g>
	<g id="Cent_Symbol">
	</g>
	<g id="Dollar_Symbol">
	</g>
	<g id="Pound_Symbol">
	</g>
	<g id="Bank_5_">
	</g>
	<g id="Wallet_3_">
	</g>
	<g id="Coins_6_">
	</g>
	<g id="Bills_6_">
	</g>
	<g id="Dollar_Alt">
	</g>
	<g id="Dollar">
	</g>
</g>
<g id="Lockup">
</g>
</svg>
