<?xml version="1.0" encoding="utf-8"?>
<!-- Generator: Adobe Illustrator 19.0.0, SVG Export Plug-In . SVG Version: 6.00 Build 0)  -->
<svg version="1.1" id="Layer_1" xmlns="http://www.w3.org/2000/svg" xmlns:xlink="http://www.w3.org/1999/xlink" x="0px" y="0px"
	 viewBox="-666 990 32 21" style="enable-background:new -666 990 32 21;" xml:space="preserve">
<style type="text/css">
	.st0{fill:#FFFFFF;}
	.st1{font-family:'ArialMT';}
	.st2{font-size:6px;}
</style>
<g id="Layer_1_1_">
	<g>
		<g>
			<path class="st0" d="M-636.1,990.1h-28c-1,0-1.9,0.8-1.9,1.9v17.1c0,1,0.8,1.9,1.9,1.9h28c1,0,1.9-0.8,1.9-1.9V992
				C-634.2,991-635,990.1-636.1,990.1L-636.1,990.1z"/>
		</g>
		<g>
			<path d="M-635.9,990.4c0.9,0,1.6,0.7,1.6,1.6v17.2c0,0.9-0.7,1.6-1.6,1.6h-28.2c-0.9,0-1.6-0.7-1.6-1.6V992
				c0-0.9,0.7-1.6,1.6-1.6H-635.9 M-635.9,990h-28.2c-1,0-1.9,0.8-1.9,1.9v17.2c0,1,0.8,1.9,1.9,1.9h28.2c1,0,1.9-0.8,1.9-1.9v-17.2
				C-634,990.9-634.9,990-635.9,990L-635.9,990z"/>
		</g>
	</g>
</g>
<text transform="matrix(1 0 0 1 -661.9099 1008.759)" class="st1 st2">BOLETO</text>
<g id="Layer_x0020_1">
	<path d="M-638.7,992.1v11h-0.7v-11H-638.7L-638.7,992.1z M-640,992.1v11h-2v-11H-640L-640,992.1z M-643.1,992.1v11h-0.6v-11H-643.1
		L-643.1,992.1z M-644.3,992.1v11h-1.2v-11H-644.3L-644.3,992.1z M-646.5,992.1v11h-2v-11H-646.5L-646.5,992.1z M-649.2,992.1v11
		h-0.7v-11H-649.2L-649.2,992.1z M-650.8,992.1v11h-1.6v-11H-650.8L-650.8,992.1z M-653.4,992.1v11h-1.6v-11H-653.4L-653.4,992.1z
		 M-656,992.1v11h-0.7v-11H-656L-656,992.1z M-657.3,992.1v11h-2v-11H-657.3L-657.3,992.1z M-660.3,992.1v11h-1.2v-11H-660.3
		L-660.3,992.1z"/>
</g>
</svg>
