<?xml version="1.0" encoding="utf-8"?>
<!-- Generator: Adobe Illustrator 19.0.0, SVG Export Plug-In . SVG Version: 6.00 Build 0)  -->
<svg version="1.1" id="Layer_1" xmlns="http://www.w3.org/2000/svg" xmlns:xlink="http://www.w3.org/1999/xlink" x="0px" y="0px"
	 viewBox="-405 283.3 30 30" style="enable-background:new -405 283.3 30 30;" xml:space="preserve">
<style type="text/css">
	.st0{opacity:0.7;fill:#FFFFFF;}
</style>
<g id="Layer_2">
</g>
<path class="st0" d="M-375.1,310.3l-8.6-8.7c1.3-1.9,2.1-4.2,2.1-6.7c0-6.4-5.2-11.7-11.7-11.7c-6.4,0-11.7,5.2-11.7,11.7
	c0,6.4,5.2,11.7,11.7,11.7c2.5,0,4.8-0.8,6.7-2.1l0,0l8.7,8.6c0.2,0.2,0.4,0.2,0.6,0l2.3-2.3C-375,310.8-375,310.5-375.1,310.3z
	 M-393.3,304c-4.9,0-8.9-4-8.9-8.9c0-4.9,4-8.9,8.9-8.9c4.9,0,8.9,4,8.9,8.9C-384.4,300.1-388.4,304-393.3,304z"/>
</svg>
