<?xml version="1.0" encoding="utf-8"?>
<!-- Generator: Adobe Illustrator 19.0.0, SVG Export Plug-In . SVG Version: 6.00 Build 0)  -->
<svg version="1.1" id="Layer_1" xmlns="http://www.w3.org/2000/svg" xmlns:xlink="http://www.w3.org/1999/xlink" x="0px" y="0px"
	 viewBox="-666 990 32 21" style="enable-background:new -666 990 32 21;" xml:space="preserve">
<style type="text/css">
	.st0{fill:#FFFFFF;}
	.st1{fill:#0064A7;}
	.st2{font-family:'TimesNewRomanPSMT';}
	.st3{font-size:6px;}
</style>
<g>
	<g>
		<g>
			<path class="st0" d="M-636,990.1h-28c-1,0-1.9,0.8-1.9,1.9v17.1c0,1,0.8,1.9,1.9,1.9h28c1,0,1.9-0.8,1.9-1.9V992
				C-634.2,990.9-635,990.1-636,990.1L-636,990.1z"/>
		</g>
		<g>
			<path class="st1" d="M-635.9,990.3c0.9,0,1.6,0.7,1.6,1.6v17.2c0,0.9-0.7,1.6-1.6,1.6h-28.2c-0.9,0-1.6-0.7-1.6-1.6v-17.2
				c0-0.9,0.7-1.6,1.6-1.6H-635.9 M-635.9,990h-28.2c-1,0-1.9,0.8-1.9,1.9v17.2c0,1,0.8,1.9,1.9,1.9h28.2c1,0,1.9-0.8,1.9-1.9v-17.2
				C-634,990.8-634.8,990-635.9,990L-635.9,990z"/>
		</g>
	</g>
	<g>
		<path class="st1" d="M-648.8,1003.9c3.1,0,6-2.5,6-5.6c0-3.4-2.8-5.7-6-5.7h-2.7c-3.2,0-5.7,2.3-5.7,5.7c0,3.1,2.6,5.7,5.7,5.6
			H-648.8z"/>
		<path class="st0" d="M-650.3,1001.2V995c1.2,0.5,2.1,1.7,2.1,3.1C-648.2,999.6-649,1000.8-650.3,1001.2 M-654.8,998.1
			c0-1.4,0.9-2.6,2.1-3.1v6.2C-653.9,1000.8-654.8,999.6-654.8,998.1 M-651.5,992.9c-2.9,0-5.2,2.3-5.2,5.2s2.3,5.2,5.2,5.2
			s5.2-2.3,5.2-5.2C-646.3,995.3-648.6,992.9-651.5,992.9"/>
	</g>
	<text transform="matrix(1 0 0 1 -664.5824 1008.4999)" class="st2 st3">Diners Club</text>
</g>
</svg>
