<?xml version="1.0" encoding="utf-8"?>
<!-- Generator: Adobe Illustrator 19.0.0, SVG Export Plug-In . SVG Version: 6.00 Build 0)  -->
<svg version="1.1" xmlns="http://www.w3.org/2000/svg" xmlns:xlink="http://www.w3.org/1999/xlink" x="0px" y="0px"
	 viewBox="0 0 32 21" style="enable-background:new 0 0 32 21;" xml:space="preserve">
<style type="text/css">
	.st0{fill:#FFFFFF;}
	.st1{fill:#050013;}
	.st2{fill-rule:evenodd;clip-rule:evenodd;fill:#050013;}
	.st3{fill-rule:evenodd;clip-rule:evenodd;fill:#FFFFFF;}
	.st4{fill-rule:evenodd;clip-rule:evenodd;fill:#009DD7;}
	.st5{fill-rule:evenodd;clip-rule:evenodd;fill:#FFF200;}
	.st6{fill-rule:evenodd;clip-rule:evenodd;fill:#E33206;}
</style>
<g id="Layer_2">
</g>
<g id="Camada_1">
	<g>
		<g>
			<path class="st0" d="M30,0.1H2C1,0.1,0.2,0.9,0.2,2V19c0,1,0.8,1.9,1.9,1.9h28c1,0,1.9-0.8,1.9-1.9V2C31.8,0.9,31,0.1,30,0.1
				L30,0.1z"/>
		</g>
	</g>
	<g>
		<path class="st1" d="M30.1,0.3c0.9,0,1.6,0.7,1.6,1.6v17.2c0,0.9-0.7,1.6-1.6,1.6H1.9c-0.9,0-1.6-0.7-1.6-1.6V1.9
			C0.3,1,1,0.3,1.9,0.3L30.1,0.3 M30.1,0H1.9C0.8,0,0,0.8,0,1.9v17.2c0,1,0.8,1.9,1.9,1.9h28.2c1,0,1.9-0.8,1.9-1.9V1.9
			C32,0.8,31.2,0,30.1,0L30.1,0z"/>
	</g>
	<g>
		<g>
			<path class="st2" d="M16,1c5.2,0,9.5,4.3,9.5,9.5c0,5.2-4.3,9.5-9.5,9.5s-9.5-4.3-9.5-9.5C6.5,5.3,10.8,1,16,1L16,1z"/>
			<path class="st3" d="M11.9,8c1.4,0,2.5,1,2.8,2.2l-1.2,0.5l0,0l-1.2,0.5l-2.9,1.3C9.2,12,9,11.5,9,10.9C9,9.3,10.3,8,11.9,8
				L11.9,8z M13.2,9.8L10.3,11c0-0.1,0-0.1,0-0.2c0-0.9,0.7-1.7,1.7-1.7C12.4,9.2,12.9,9.4,13.2,9.8L13.2,9.8z"/>
			<path class="st3" d="M14,13c-1,1-2.4,1.1-3.6,0.4l0.7-1c0.7,0.4,1.4,0.3,2.1-0.2L14,13L14,13z"/>
			<path class="st3" d="M15.1,12.2l0-5.5h1v5.4c0,0.1,0,0.1,0.1,0.1l0.9,0.4l-0.4,1.1l-1.1-0.5C15.3,13,15.1,12.8,15.1,12.2
				L15.1,12.2z"/>
		</g>
		<g>
			<path class="st4" d="M19.1,12.1c-0.4-0.3-0.6-0.8-0.6-1.3c0-0.5,0.2-0.9,0.5-1.2l-0.7-1.1c-0.7,0.5-1.1,1.4-1.1,2.3
				c0,1,0.5,1.9,1.3,2.4L19.1,12.1z"/>
			<path class="st5" d="M19.5,9.3c0.2-0.1,0.4-0.1,0.6-0.1c0.7,0,1.3,0.4,1.6,1.1l1.3-0.1c-0.3-1.3-1.5-2.2-2.9-2.2
				c-0.4,0-0.8,0.1-1.1,0.2L19.5,9.3z"/>
			<path class="st6" d="M21.8,10.9c0,0.9-0.8,1.6-1.7,1.6c-0.1,0-0.3,0-0.4-0.1l-0.5,1.2c0.3,0.1,0.6,0.1,0.9,0.1
				c1.6,0,2.9-1.3,2.9-2.8L21.8,10.9z"/>
		</g>
	</g>
</g>
</svg>
