<?xml version="1.0" encoding="utf-8"?>
<!-- Generator: Adobe Illustrator 15.0.0, SVG Export Plug-In . SVG Version: 6.00 Build 0)  -->
<!DOCTYPE svg PUBLIC "-//W3C//DTD SVG 1.1//EN" "http://www.w3.org/Graphics/SVG/1.1/DTD/svg11.dtd">
<svg version="1.1" id="Layer_1" xmlns="http://www.w3.org/2000/svg" xmlns:xlink="http://www.w3.org/1999/xlink" x="0px" y="0px"
	 width="24px" height="24px" viewBox="244 244 24 24" enable-background="new 244 244 24 24" xml:space="preserve">
<linearGradient id="SVGID_1_" gradientUnits="userSpaceOnUse" x1="263.7561" y1="245.0811" x2="246.9794" y2="266.2689" gradientTransform="matrix(1 0 0 -1 0.1401 511.0547)">
	<stop  offset="0" style="stop-color:#3B5998"/>
	<stop  offset="1" style="stop-color:#336699"/>
</linearGradient>
<path fill="url(#SVGID_1_)" d="M256,244c-6.627,0-12,5.373-12,12c0,6.628,5.373,12,12,12c0.086,0,0.171-0.001,0.257-0.003v-7.912
	h-2.658v-3.321h2.658v-1.994c0-2.736,1.544-4.651,3.987-4.651c1.169,0,1.993,0,2.657,0v3.322h-1.329
	c-1.327,0-1.993,0.665-1.993,1.993v1.329h3.322l-0.664,3.321h-2.658v7.372c4.88-1.522,8.422-6.076,8.422-11.457
	C268,249.373,262.627,244,256,244z"/>
</svg>
