<svg xmlns="http://www.w3.org/2000/svg" width="80" height="80" viewBox="0 0 80 80"><path fill="#FFF" d="M40 0C17.907 0 0 17.908 0 40c0 22.09 17.908 40 40 40s40-17.91 40-40C80 17.907 62.092 0 40 0z"/><g fill="#0B0B0B"><path d="M30.813 37.708c-.008 1.817 0 3.637.008 5.453 3.05.1 6.11.055 9.15.1-1.344 6.763-10.54 8.955-15.407 4.533-5-3.866-4.767-12.36.436-15.958 3.636-2.903 8.807-2.185 12.443.328 1.43-1.32 2.766-2.734 4.06-4.2-3.028-2.415-6.738-4.133-10.69-3.95-8.24-.275-15.82 6.944-15.956 15.187-.527 6.736 3.903 13.344 10.16 15.734 6.232 2.392 14.226.757 18.2-4.843 2.63-3.535 3.194-8.087 2.89-12.366-5.105-.038-10.198-.032-15.294-.016zM60.617 37.686c-.014-1.52-.02-3.048-.03-4.568h-4.544c-.016 1.52-.027 3.04-.04 4.568-1.526.007-3.044.015-4.567.03v4.545c1.523.017 3.05.03 4.568.048.016 1.52.016 3.04.033 4.56h4.55c.01-1.52.017-3.04.03-4.568 1.53-.017 3.05-.022 4.568-.038v-4.545c-1.52-.017-3.046-.017-4.568-.03z"/></g></svg>