<?xml version="1.0" encoding="utf-8"?>
<!-- Generator: Adobe Illustrator 15.0.0, SVG Export Plug-In . SVG Version: 6.00 Build 0)  -->
<!DOCTYPE svg PUBLIC "-//W3C//DTD SVG 1.1//EN" "http://www.w3.org/Graphics/SVG/1.1/DTD/svg11.dtd">
<svg version="1.1" id="Layer_1" xmlns="http://www.w3.org/2000/svg" xmlns:xlink="http://www.w3.org/1999/xlink" x="0px" y="0px"
	 width="24px" height="24px" viewBox="0 0 24 24" enable-background="new 0 0 24 24" xml:space="preserve">
<linearGradient id="SVGID_1_" gradientUnits="userSpaceOnUse" x1="4.2427" y1="-64.501" x2="27.0512" y2="-87.3095" gradientTransform="matrix(1 0 0 -1 0.0298 -60.2266)">
	<stop  offset="0" style="stop-color:#DD272D"/>
	<stop  offset="0.5153" style="stop-color:#CA2429"/>
	<stop  offset="1" style="stop-color:#B22025"/>
</linearGradient>
<path fill="url(#SVGID_1_)" d="M12,0C5.374,0,0,5.373,0,12c0,6.629,5.373,12,12,12c6.626,0,12-5.371,12-12C24,5.373,18.627,0,12,0z"
	/>
<g>
	<path fill="#FFFFFF" d="M9.083,11.273c-0.003,0.576,0,1.155,0.002,1.73c0.967,0.031,1.938,0.018,2.909,0.031
		c-0.427,2.146-3.349,2.844-4.894,1.44c-1.591-1.229-1.515-3.927,0.138-5.068c1.153-0.923,2.795-0.695,3.954,0.104
		c0.45-0.42,0.874-0.869,1.286-1.336c-0.958-0.763-2.138-1.31-3.395-1.253c-2.619-0.085-5.025,2.207-5.071,4.823
		c-0.165,2.14,1.242,4.238,3.228,4.993c1.979,0.765,4.516,0.248,5.783-1.534c0.834-1.123,1.016-2.567,0.917-3.926
		C12.321,11.267,10.702,11.269,9.083,11.273z"/>
	<path fill="#FFFFFF" d="M18.546,11.267c-0.002-0.484-0.003-0.969-0.01-1.451c-0.479,0-0.964,0-1.44,0
		c-0.007,0.482-0.011,0.968-0.011,1.451c-0.485,0.002-0.972,0.004-1.452,0.01c0,0.483,0,0.963,0,1.441
		c0.479,0.005,0.967,0.01,1.452,0.016c0,0.483,0,0.966,0.011,1.447c0.477,0,0.962,0,1.44,0c0.007-0.481,0.008-0.964,0.01-1.45
		c0.483-0.005,0.97-0.008,1.454-0.013c0-0.478,0-0.963,0-1.441C19.517,11.271,19.03,11.271,18.546,11.267z"/>
</g>
</svg>
