<svg xmlns="http://www.w3.org/2000/svg" width="80" height="80" viewBox="0 0 80 80"><path fill="#FFF" d="M40 0C17.908 0 0 17.908 0 40c0 22.09 17.908 40 40 40s40-17.91 40-40C80 17.908 62.092 0 40 0z"/><g fill="#0B0B0B"><path d="M40 29.078c-5.927 0-10.84 4.825-10.84 10.838 0 6.012 4.83 10.838 10.84 10.838s10.84-4.91 10.84-10.838c0-5.93-4.912-10.838-10.84-10.838zm0 17.78c-3.81 0-6.944-3.134-6.944-6.942 0-3.81 3.135-6.944 6.944-6.944s6.945 3.133 6.945 6.944c0 3.81-3.135 6.943-6.945 6.943zM51.26 26.368c1.357 0 2.46 1.098 2.46 2.455s-1.103 2.455-2.46 2.455c-1.353 0-2.455-1.1-2.455-2.455s1.1-2.455 2.456-2.455z"/><path d="M57.616 22.473C55.41 20.185 52.28 19 48.72 19H31.28C23.91 19 19 23.91 19 31.277v17.36c0 3.643 1.185 6.77 3.555 9.06C24.845 59.9 27.89 61 31.365 61h17.27c3.646 0 6.69-1.185 8.896-3.302 2.286-2.204 3.472-5.333 3.472-8.976V31.277c0-3.554-1.187-6.605-3.386-8.804zm-.51 26.25c0 2.622-.76 4.743-2.286 6.183s-3.643 2.2-6.186 2.2H31.366c-2.543 0-4.66-.76-6.187-2.2-1.524-1.525-2.285-3.646-2.285-6.27v-17.36c0-2.54.76-4.657 2.284-6.18 1.44-1.44 3.643-2.202 6.186-2.202h17.438c2.54 0 4.66.762 6.186 2.288 1.438 1.522 2.285 3.64 2.285 6.095v17.445h-.17z"/></g></svg>