<?xml version="1.0" encoding="utf-8"?>
<!-- Generator: Adobe Illustrator 19.0.0, SVG Export Plug-In . SVG Version: 6.00 Build 0)  -->
<svg version="1.1" id="Layer_1" xmlns="http://www.w3.org/2000/svg" xmlns:xlink="http://www.w3.org/1999/xlink" x="0px" y="0px"
	 viewBox="-412 290.3 16 16" style="enable-background:new -412 290.3 16 16;" xml:space="preserve">
<style type="text/css">
	.st0{fill:#FFFFFF;}
</style>
<g id="Layer_2">
</g>
<g id="Layer_1_1_">
	<g>
		<path class="st0" d="M-396.6,294.3c-0.1-0.1-0.3-0.2-0.4-0.2h-2.9v1.6c0,0.8-0.6,1.4-1.4,1.4s-1.4-0.6-1.4-1.4v-1.6h-2.7v1.6
			c0,0.8-0.6,1.4-1.4,1.4s-1.4-0.6-1.4-1.4v-1.6h-2.9c-0.2,0-0.3,0.1-0.4,0.2s-0.2,0.3-0.1,0.5l1,9.5c0,1.1,0.8,1.9,1.8,1.9h9.6
			c1,0,1.8-0.9,1.8-1.9l1-9.5C-396.4,294.6-396.4,294.4-396.6,294.3z"/>
		<path class="st0" d="M-406.7,296.3c0.3,0,0.5-0.2,0.5-0.5v-3c0-0.8,0.9-1.4,1.6-1.4h1.4c0.8,0,1.4,0.5,1.4,1.4v3
			c0,0.3,0.2,0.5,0.5,0.5s0.5-0.2,0.5-0.5v-3c0-1.4-1-2.5-2.5-2.5h-1.4c-1.5,0-2.7,1.1-2.7,2.5v3
			C-407.3,296.1-407,296.3-406.7,296.3z"/>
	</g>
</g>
</svg>
