<?xml version="1.0" encoding="utf-8"?>
<!-- Generator: Adobe Illustrator 19.0.0, SVG Export Plug-In . SVG Version: 6.00 Build 0)  -->
<svg version="1.1" id="Layer_1" xmlns="http://www.w3.org/2000/svg" xmlns:xlink="http://www.w3.org/1999/xlink" x="0px" y="0px"
	 viewBox="-412 290.3 16 16" style="enable-background:new -412 290.3 16 16;" xml:space="preserve">
<style type="text/css">
	.st0{fill:#FFFFFF;}
</style>
<path class="st0" d="M-401.6,298.3h-4.7c-0.5,0-0.8,0.4-0.8,0.8c0,0.5,0.4,0.8,0.8,0.8h4.7c0.5,0,0.8-0.4,0.8-0.8
	C-400.8,298.7-401.1,298.3-401.6,298.3z M-401.6,301.3h-4.7c-0.5,0-0.8,0.4-0.8,0.8s0.4,0.8,0.8,0.8h4.7c0.5,0,0.8-0.4,0.8-0.8
	S-401.1,301.3-401.6,301.3z M-410.5,304.9c0,0.7,0.6,1.3,1.3,1.3h10.3c0.7,0,1.3-0.6,1.3-1.3v-11.3c0-0.7-0.6-1.3-1.3-1.3h-2.7
	c-0.2-1.1-1.2-2-2.4-2c-1.2,0-2.2,0.9-2.4,2h-2.7c-0.7,0-1.3,0.6-1.3,1.3C-410.5,293.6-410.5,304.9-410.5,304.9z M-408.1,293.9h1.6
	v0.6c0,0.4,0.3,0.7,0.7,0.7h3.5c0.4,0,0.7-0.3,0.7-0.7v-0.6h1.6c0.4,0,0.7,0.3,0.7,0.7v9.2c0,0.4-0.3,0.7-0.7,0.7h-8.2
	c-0.4,0-0.7-0.3-0.7-0.7v-9.2C-408.8,294.3-408.5,293.9-408.1,293.9z M-404.8,292.8c0-0.5,0.4-0.8,0.8-0.8c0.5,0,0.8,0.4,0.8,0.8
	c0,0.5-0.4,0.8-0.8,0.8C-404.5,293.6-404.8,293.2-404.8,292.8z"/>
</svg>
