<?xml version="1.0" encoding="utf-8"?>
<!-- Generator: Adobe Illustrator 19.0.0, SVG Export Plug-In . SVG Version: 6.00 Build 0)  -->
<svg version="1.1" id="Layer_1" xmlns="http://www.w3.org/2000/svg" xmlns:xlink="http://www.w3.org/1999/xlink" x="0px" y="0px"
	 viewBox="-666 990 32 21" style="enable-background:new -666 990 32 21;" xml:space="preserve">
<style type="text/css">
	.st0{fill:#34495E;}
	.st1{fill:#931B1D;}
	.st2{fill:#F16622;}
	.st3{fill:#F7981D;}
	.st4{fill:#CB2026;}
	.st5{fill:#FFFFFF;}
</style>
<g id="CVC_5_">
</g>
<g id="Visa_6_">
</g>
<g id="Discover">
</g>
<g id="Amex_3_">
</g>
<g id="Bitcoin_3_">
</g>
<g id="Google_Wallet_5_">
</g>
<g id="PayPal_3_">
</g>
<g id="Square_Payment_1_">
</g>
<g id="Shop_5_">
</g>
<g id="Postage">
</g>
<g id="Package_7_">
</g>
<g id="Discount_3_">
</g>
<g id="Earth_3_">
</g>
<g id="Barcode_3_">
</g>
<g id="Cart_Plus_6_">
</g>
<g id="Cart_Minus_6_">
</g>
<g id="Cart_4_">
</g>
<g id="Receipt_5_">
</g>
<g id="Truck_9_">
</g>
<g id="Calculator_6_">
</g>
<g id="Euro_Symbol">
</g>
<g id="Cent_Symbol">
</g>
<g id="Dollar_Symbol">
</g>
<g id="Pound_Symbol">
</g>
<g id="Bank_5_">
</g>
<g id="Wallet_3_">
</g>
<g id="Coins_6_">
</g>
<g id="Bills_6_">
</g>
<g id="Dollar_Alt">
</g>
<g id="Dollar">
</g>
<g id="Lockup">
</g>
<g>
	<g id="Mastercard">
		<g>
			<path class="st0" d="M-636,990h-28c-1.1,0-2,0.9-2,2v17c0,1.1,0.9,2,2,2h28c1.1,0,2-0.9,2-2v-17C-634,990.9-634.9,990-636,990z"
				/>
		</g>
	</g>
	<g>
		<g>
			<path class="st1" d="M-655.4,992.5c-4.4,0-7.9,3.6-7.9,8c0,4.4,3.6,7.9,7.9,7.9c2.1,0,3.9-0.8,5.3-2.1l0,0l0,0
				c0.3-0.3,0.6-0.5,0.8-0.8h-1.6c-0.2-0.3-0.4-0.5-0.6-0.8h2.8c0.2-0.3,0.3-0.6,0.5-0.8h-3.7c-0.1-0.3-0.2-0.5-0.3-0.8h4.4
				c0.3-0.8,0.4-1.6,0.4-2.5c0-0.6-0.1-1.2-0.2-1.7h-4.9c0.1-0.3,0.1-0.6,0.2-0.8h4.4c-0.1-0.3-0.2-0.6-0.3-0.8h-3.7
				c0.1-0.3,0.3-0.6,0.5-0.8h2.8c-0.2-0.3-0.4-0.6-0.6-0.8h-1.6c0.2-0.3,0.5-0.6,0.8-0.8C-651.4,993.3-653.3,992.5-655.4,992.5
				C-655.3,992.5-655.4,992.5-655.4,992.5z"/>
		</g>
		<g>
			<path class="st2" d="M-636.7,1000.5c0,4.4-3.5,8-7.9,8s-7.9-3.6-7.9-7.9l0,0c0-4.4,3.5-8,7.9-8
				C-640.3,992.5-636.7,996.1-636.7,1000.5C-636.7,1000.4-636.7,1000.5-636.7,1000.5z"/>
		</g>
		<g>
			<path class="st3" d="M-636.7,1000.5c0,4.4-3.5,8-7.9,8s-7.9-3.6-7.9-7.9v0c0-4.4,3.5-8,7.9-8
				C-640.3,992.6-636.7,996.1-636.7,1000.5C-636.7,1000.5-636.7,1000.5-636.7,1000.5z"/>
		</g>
		<g>
			<path class="st4" d="M-655.4,992.6c-4.4,0-7.9,3.6-7.9,8c0,4.4,3.6,8,7.9,8c2.1,0,3.9-0.8,5.3-2.1l0,0l0,0
				c0.3-0.3,0.6-0.5,0.8-0.8h-1.6c-0.2-0.3-0.4-0.5-0.6-0.8h2.8c0.2-0.3,0.3-0.6,0.5-0.8h-3.7c-0.1-0.3-0.2-0.5-0.3-0.8h4.4
				c0.3-0.8,0.4-1.6,0.4-2.5c0-0.6-0.1-1.2-0.2-1.7h-4.9c0.1-0.3,0.1-0.6,0.2-0.8h4.4c-0.1-0.3-0.2-0.6-0.3-0.8h-3.7
				c0.1-0.3,0.3-0.6,0.5-0.8h2.8c-0.2-0.3-0.4-0.6-0.6-0.8h-1.6c0.2-0.3,0.5-0.6,0.8-0.8C-651.4,993.4-653.3,992.6-655.4,992.6
				C-655.3,992.6-655.4,992.6-655.4,992.6z"/>
		</g>
		<g>
			<g>
				<path class="st5" d="M-652.5,1002.6l0.1-0.7c-0.1,0-0.1,0-0.2,0c-0.3,0-0.3-0.2-0.3-0.3l0.2-1.5h0.4l0.1-0.8h-0.4l0.1-0.5h-0.8
					c0,0-0.5,2.8-0.5,3.1c0,0.5,0.3,0.7,0.7,0.7C-652.8,1002.7-652.6,1002.6-652.5,1002.6z"/>
			</g>
			<g>
				<path class="st5" d="M-652.2,1001.2c0,1.2,0.8,1.5,1.5,1.5c0.6,0,0.9-0.1,0.9-0.1l0.1-0.8c0,0-0.5,0.2-0.9,0.2
					c-0.9,0-0.7-0.7-0.7-0.7h1.7c0,0,0.1-0.5,0.1-0.8c0-0.6-0.3-1.2-1.2-1.2C-651.6,999.2-652.2,1000.2-652.2,1001.2z M-650.7,1000
					c0.5,0,0.4,0.5,0.4,0.6h-0.9C-651.3,1000.5-651.2,1000-650.7,1000z"/>
			</g>
			<g>
				<path class="st5" d="M-645.4,1002.6l0.2-0.9c0,0-0.4,0.2-0.7,0.2c-0.6,0-0.8-0.5-0.8-1c0-1,0.5-1.6,1.1-1.6
					c0.4,0,0.8,0.2,0.8,0.2l0.1-0.9c0,0-0.5-0.2-1-0.2c-1,0-1.9,0.8-1.9,2.4c0,1.1,0.5,1.8,1.5,1.8
					C-645.8,1002.7-645.4,1002.6-645.4,1002.6z"/>
			</g>
			<g>
				<path class="st5" d="M-657.1,999.3c-0.6,0-1,0.2-1,0.2l-0.1,0.7c0,0,0.4-0.1,0.9-0.1c0.3,0,0.5,0,0.5,0.3c0,0.2,0,0.2,0,0.2
					s-0.3,0-0.4,0c-0.7,0-1.5,0.3-1.5,1.3c0,0.7,0.5,0.9,0.8,0.9c0.6,0,0.8-0.4,0.9-0.4l0,0.3h0.7l0.3-2.3
					C-656,999.3-656.8,999.3-657.1,999.3z M-656.9,1001.2c0,0.1-0.1,0.8-0.6,0.8c-0.3,0-0.3-0.2-0.3-0.3c0-0.2,0.1-0.5,0.7-0.5
					C-657,1001.1-657,1001.2-656.9,1001.2z"/>
			</g>
			<g>
				<path class="st5" d="M-655.2,1002.7c0.2,0,1.3,0,1.3-1.1c0-1.1-1-0.8-1-1.3c0-0.2,0.2-0.3,0.5-0.3c0.1,0,0.6,0,0.6,0l0.1-0.7
					c0,0-0.3-0.1-0.8-0.1c-0.6,0-1.3,0.3-1.3,1.1c0,1,1.1,0.9,1.1,1.3c0,0.3-0.3,0.3-0.5,0.3c-0.4,0-0.8-0.1-0.8-0.1l-0.1,0.7
					C-656.1,1002.6-655.9,1002.7-655.2,1002.7z"/>
			</g>
			<g>
				<path class="st5" d="M-638.4,998.6l-0.2,1.1c0,0-0.3-0.4-0.8-0.4c-0.8,0-1.4,0.9-1.4,2c0,0.7,0.3,1.4,1.1,1.4
					c0.5,0,0.8-0.4,0.8-0.4l0,0.3h0.8l0.6-4H-638.4z M-638.8,1000.8c0,0.4-0.2,1-0.7,1c-0.3,0-0.4-0.3-0.4-0.7
					c0-0.7,0.3-1.1,0.7-1.1C-638.9,1000.1-638.8,1000.3-638.8,1000.8z"/>
			</g>
			<g>
				<path class="st5" d="M-661.7,1002.6l0.5-3l0.1,3h0.6l1.1-3l-0.5,3h0.9l0.7-4h-1.3l-0.8,2.5l0-2.5h-1.2l-0.7,4H-661.7z"/>
			</g>
			<g>
				<path class="st5" d="M-648.7,1002.6c0.2-1.4,0.3-2.5,0.9-2.3c0.1-0.5,0.2-0.8,0.3-1c0,0-0.1,0-0.2,0c-0.4,0-0.7,0.5-0.7,0.5
					l0.1-0.5h-0.8l-0.5,3.3L-648.7,1002.6L-648.7,1002.6z"/>
			</g>
			<g>
				<path class="st5" d="M-643.4,999.3c-0.6,0-1,0.2-1,0.2l-0.1,0.7c0,0,0.4-0.1,0.9-0.1c0.3,0,0.5,0,0.5,0.3c0,0.2,0,0.2,0,0.2
					s-0.3,0-0.4,0c-0.7,0-1.5,0.3-1.5,1.3c0,0.7,0.5,0.9,0.8,0.9c0.6,0,0.9-0.4,0.9-0.4l0,0.3h0.7l0.3-2.3
					C-642.3,999.3-643.1,999.3-643.4,999.3z M-643.2,1001.2c0,0.1-0.1,0.8-0.6,0.8c-0.3,0-0.3-0.2-0.3-0.3c0-0.2,0.1-0.5,0.7-0.5
					C-643.3,1001.1-643.3,1001.2-643.2,1001.2z"/>
			</g>
			<g>
				<path class="st5" d="M-641.6,1002.6c0.2-1.4,0.3-2.5,0.9-2.3c0.1-0.5,0.2-0.8,0.3-1c0,0-0.1,0-0.2,0c-0.4,0-0.7,0.5-0.7,0.5
					l0.1-0.5h-0.8l-0.5,3.3L-641.6,1002.6L-641.6,1002.6z"/>
			</g>
		</g>
	</g>
</g>
</svg>
