<?xml version="1.0" encoding="utf-8"?>
<!-- Generator: Adobe Illustrator 19.0.0, SVG Export Plug-In . SVG Version: 6.00 Build 0)  -->
<svg version="1.1" id="Layer_1" xmlns="http://www.w3.org/2000/svg" xmlns:xlink="http://www.w3.org/1999/xlink" x="0px" y="0px"
	 viewBox="-412 290.3 16 16" style="enable-background:new -412 290.3 16 16;" xml:space="preserve">
<style type="text/css">
	.st0{fill:#FFFFFF;}
</style>
<path class="st0" d="M-411.9,305c0,0.7,0.6,1.3,1.3,1.3h13.3c0.7,0,1.3-0.6,1.3-1.3v-9c0-0.7-0.6-1.3-1.3-1.3h-13.3
	c-0.7,0-1.3,0.6-1.3,1.3V305L-411.9,305z M-406.9,300.5l-3.1-3.1c-0.3-0.3-0.3-0.7,0-0.9c0.3-0.3,0.7-0.3,0.9,0l4.9,4.9
	c0.2,0.2,0.5,0.2,0.7,0l4.9-4.9c0.3-0.3,0.7-0.3,0.9,0c0.3,0.3,0.3,0.7,0,0.9l-3.1,3.1l3.1,3c0.3,0.3,0.3,0.7,0,0.9
	c-0.3,0.3-0.7,0.3-0.9,0l-3.1-3c0,0-1,1-1.1,1.1c-0.3,0.3-0.6,0.4-1.1,0.4c-0.4,0-0.8-0.2-1.1-0.4c-0.2-0.2-1.1-1.1-1.1-1.1l-3,3
	c-0.3,0.3-0.7,0.3-0.9,0c-0.3-0.3-0.3-0.7,0-0.9L-406.9,300.5z"/>
</svg>
