<?xml version="1.0" encoding="utf-8"?>
<!-- Generator: Adobe Illustrator 19.0.0, SVG Export Plug-In . SVG Version: 6.00 Build 0)  -->
<svg version="1.1" id="Layer_1" xmlns="http://www.w3.org/2000/svg" xmlns:xlink="http://www.w3.org/1999/xlink" x="0px" y="0px"
	 viewBox="-412 290.3 16 16" style="enable-background:new -412 290.3 16 16;" xml:space="preserve">
<style type="text/css">
	.st0{fill:#FFFFFF;}
</style>
<path class="st0" d="M-397.6,306.3c0,0,0-2.9,0-3c0.1-0.4-0.1-1.1-0.3-1.5c-1-1.3-2.2-1.9-4.3-2.1c-0.4-0.1-0.7-0.4-0.7-0.8
	c0-0.3,0.9-1.2,0.9-1.2c1-1,1.5-2.6,1.5-3.9c0-1.9-1.6-3.5-3.5-3.5s-3.5,1.6-3.5,3.5c0,1.3,0.5,2.9,1.5,3.9c0,0,0.9,0.9,0.9,1.2
	c0,0.4-0.3,0.8-0.7,0.8c-2.1,0.2-3.3,0.9-4.3,2.1c-0.3,0.4-0.4,1.1-0.4,1.5c0,0.1,0,3,0,3H-397.6z"/>
</svg>
