<?xml version="1.0" encoding="utf-8"?>
<!-- Generator: Adobe Illustrator 15.0.0, SVG Export Plug-In . SVG Version: 6.00 Build 0)  -->
<!DOCTYPE svg PUBLIC "-//W3C//DTD SVG 1.1//EN" "http://www.w3.org/Graphics/SVG/1.1/DTD/svg11.dtd">
<svg version="1.1" id="Layer_1" xmlns="http://www.w3.org/2000/svg" xmlns:xlink="http://www.w3.org/1999/xlink" x="0px" y="0px"
	 width="24px" height="24px" viewBox="244 244 24 24" enable-background="new 244 244 24 24" xml:space="preserve">
<linearGradient id="SVGID_1_" gradientUnits="userSpaceOnUse" x1="247.3752" y1="263.54" x2="264.3463" y2="246.569" gradientTransform="matrix(1 0 0 -1 0.1401 511.0547)">
	<stop  offset="0" style="stop-color:#DD272D"/>
	<stop  offset="0.5153" style="stop-color:#CA2429"/>
	<stop  offset="1" style="stop-color:#B22025"/>
</linearGradient>
<path fill="url(#SVGID_1_)" d="M256,244c-6.627,0-12,5.373-12,12c0,6.628,5.373,12,12,12s12-5.372,12-12
	C268,249.373,262.627,244,256,244z M257.271,259.667c-1.022,0-1.982-0.551-2.312-1.178c0,0-0.549,2.179-0.665,2.6
	c-0.409,1.486-1.615,2.974-1.708,3.096c-0.065,0.085-0.21,0.058-0.225-0.055c-0.026-0.189-0.333-2.064,0.028-3.595
	c0.182-0.768,1.216-5.154,1.216-5.154s-0.302-0.604-0.302-1.497c0-1.402,0.813-2.448,1.825-2.448c0.859,0,1.275,0.646,1.275,1.42
	c0,0.866-0.551,2.158-0.835,3.357c-0.237,1.004,0.503,1.822,1.493,1.822c1.792,0,2.999-2.302,2.999-5.03
	c0-2.072-1.396-3.625-3.936-3.625c-2.869,0-4.657,2.14-4.657,4.53c0,0.824,0.244,1.406,0.625,1.855
	c0.175,0.207,0.199,0.29,0.136,0.527c-0.046,0.175-0.149,0.594-0.193,0.759c-0.063,0.24-0.257,0.326-0.474,0.236
	c-1.321-0.538-1.937-1.986-1.937-3.613c0-2.687,2.266-5.909,6.76-5.909c3.611,0,5.988,2.613,5.988,5.419
	C262.374,256.896,260.311,259.667,257.271,259.667z"/>
</svg>
