<?xml version="1.0" encoding="utf-8"?>
<!-- Generator: Adobe Illustrator 19.0.0, SVG Export Plug-In . SVG Version: 6.00 Build 0)  -->
<svg version="1.1" id="Layer_1" xmlns="http://www.w3.org/2000/svg" xmlns:xlink="http://www.w3.org/1999/xlink" x="0px" y="0px"
	 viewBox="-365 239.3 111 117" style="enable-background:new -365 239.3 111 117;" xml:space="preserve">
<style type="text/css">
	.st0{fill:#231F20;}
</style>
<g>
	<path class="st0" d="M-255,268.8c-0.8-1-1.9-1.5-3-1.5h-21.4v12c0,5.5-4.5,10-10,10s-10-4.5-10-10v-12h-20v12c0,5.5-4.5,10-10,10
		s-10-4.5-10-10v-12h-21.4c-1.2,0-2.3,0.5-3,1.5c-0.8,1-1.1,2.2-1,3.5l7.2,69.8c0.1,7.9,6,14.2,13.1,14.2h70.4
		c7.1,0,12.9-6.4,13.1-14.2l7.2-69.8C-253.9,271-254.3,269.7-255,268.8z"/>
	<path class="st0" d="M-329.5,283.3c2.2,0,4-1.8,4-4v-22c0-6.2,6.2-10,12-10h10c6.1,0,10,3.9,10,10v22c0,2.2,1.8,4,4,4
		c2.2,0,4-1.8,4-4v-22c0-10.4-7.6-18-18-18h-10c-11,0-20,8.1-20,18v22C-333.5,281.5-331.7,283.3-329.5,283.3z"/>
</g>
</svg>
