<?xml version="1.0" encoding="utf-8"?>
<!-- Generator: Adobe Illustrator 19.0.0, SVG Export Plug-In . SVG Version: 6.00 Build 0)  -->
<svg version="1.1" id="Layer_1" xmlns="http://www.w3.org/2000/svg" xmlns:xlink="http://www.w3.org/1999/xlink" x="0px" y="0px"
	 viewBox="-405 283.3 30 30" style="enable-background:new -405 283.3 30 30;" xml:space="preserve">
<style type="text/css">
	.st0{opacity:0.7;}
	.st1{fill:#FFFFFF;}
</style>
<g class="st0">
	<path class="st1" d="M-375.9,290.7c-0.2-0.3-0.5-0.4-0.8-0.4h-5.5v3.1c0,1.4-1.2,2.6-2.6,2.6s-2.6-1.2-2.6-2.6v-3h-5.1v3.1
		c0,1.4-1.2,2.6-2.6,2.6s-2.6-1.2-2.6-2.6v-3.1h-5.5c-0.3,0-0.6,0.1-0.8,0.4c-0.2,0.3-0.3,0.6-0.3,0.9l1.8,17.9c0,2,1.5,3.6,3.4,3.6
		h18.1c1.8,0,3.3-1.6,3.4-3.6l1.8-17.9C-375.6,291.3-375.7,291-375.9,290.7z"/>
	<path class="st1" d="M-395,294.5c0.6,0,1-0.5,1-1v-5.6c0-1.6,1.6-2.6,3.1-2.6h2.6c1.6,0,2.6,1,2.6,2.6v5.6c0,0.6,0.5,1,1,1
		c0.6,0,1-0.5,1-1v-5.6c0-2.7-1.9-4.6-4.6-4.6h-2.6c-2.8,0-5.1,2.1-5.1,4.6v5.6C-396,294-395.5,294.5-395,294.5z"/>
</g>
</svg>
