<?xml version="1.0" encoding="utf-8"?>
<!-- Generator: Adobe Illustrator 15.0.0, SVG Export Plug-In . SVG Version: 6.00 Build 0)  -->
<!DOCTYPE svg PUBLIC "-//W3C//DTD SVG 1.1//EN" "http://www.w3.org/Graphics/SVG/1.1/DTD/svg11.dtd">
<svg version="1.1" id="Layer_1" xmlns="http://www.w3.org/2000/svg" xmlns:xlink="http://www.w3.org/1999/xlink" x="0px" y="0px"
	 width="24px" height="24px" viewBox="244 244 24 24" enable-background="new 244 244 24 24" xml:space="preserve">
<linearGradient id="SVGID_1_" gradientUnits="userSpaceOnUse" x1="244.429" y1="267.7842" x2="262.869" y2="247.247" gradientTransform="matrix(1 0 0 -1 0.1401 511.0547)">
	<stop  offset="0" style="stop-color:#11A4DC"/>
	<stop  offset="0.5051" style="stop-color:#0F94C9"/>
	<stop  offset="1" style="stop-color:#0C82B4"/>
</linearGradient>
<path fill="url(#SVGID_1_)" d="M256,244c-6.627,0-12,5.373-12,12c0,6.628,5.373,12,12,12s12-5.372,12-12
	C268,249.373,262.627,244,256,244z M261.842,253.004c0.005,0.129,0.008,0.26,0.008,0.39c0,3.983-3.031,8.576-8.575,8.576
	c-1.702,0-3.286-0.499-4.621-1.354c0.236,0.028,0.476,0.043,0.719,0.043c1.412,0,2.711-0.482,3.743-1.291
	c-1.319-0.024-2.432-0.896-2.815-2.093c0.184,0.035,0.373,0.054,0.567,0.054c0.275,0,0.541-0.037,0.794-0.105
	c-1.379-0.277-2.418-1.495-2.418-2.955c0-0.013,0-0.025,0-0.038c0.406,0.226,0.871,0.361,1.365,0.377
	c-0.809-0.54-1.341-1.463-1.341-2.508c0-0.553,0.148-1.071,0.408-1.516c1.487,1.824,3.708,3.023,6.213,3.149
	c-0.052-0.221-0.078-0.451-0.078-0.687c0-1.665,1.35-3.014,3.014-3.014c0.867,0,1.65,0.366,2.2,0.952
	c0.687-0.135,1.331-0.386,1.914-0.732c-0.226,0.705-0.703,1.295-1.326,1.667c0.61-0.072,1.191-0.234,1.731-0.474
	C262.942,252.049,262.43,252.58,261.842,253.004z"/>
</svg>
