<?xml version="1.0" encoding="utf-8"?>
<!-- Generator: Adobe Illustrator 19.0.0, SVG Export Plug-In . SVG Version: 6.00 Build 0)  -->
<svg version="1.1" id="Layer_1" xmlns="http://www.w3.org/2000/svg" xmlns:xlink="http://www.w3.org/1999/xlink" x="0px" y="0px"
	 viewBox="156 105 90 90" style="enable-background:new 156 105 90 90;" xml:space="preserve">
<style type="text/css">
	.st0{fill:#010101;}
</style>
<path class="st0" d="M170.1,187.5c0,4.1,3.4,7.5,7.5,7.5h46.9c4.1,0,7.5-3.4,7.5-7.5v-77.8c0-2.6-2.1-4.7-4.7-4.7
	c-2.6,0-4.7,2.1-4.7,4.7v4.7h-45c-4.1,0-7.5,3.4-7.5,7.5L170.1,187.5L170.1,187.5z M183.6,123.7h34.9c2.3,0,4.1,1.8,4.1,4.1v19.9
	c0,2.3-1.8,4.1-4.1,4.1h-34.9c-2.3,0-4.1-1.8-4.1-4.1v-19.9C179.4,125.6,181.3,123.7,183.6,123.7z M179.4,164.1
	c0-2.6,2.1-4.7,4.7-4.7c2.6,0,4.7,2.1,4.7,4.7c0,2.6-2.1,4.7-4.7,4.7C181.5,168.7,179.4,166.7,179.4,164.1z M196.3,164.1
	c0-2.6,2.1-4.7,4.7-4.7s4.7,2.1,4.7,4.7c0,2.6-2.1,4.7-4.7,4.7C198.4,168.7,196.3,166.7,196.3,164.1z M213.2,164.1
	c0-2.6,2.1-4.7,4.7-4.7c2.6,0,4.7,2.1,4.7,4.7c0,2.6-2.1,4.7-4.7,4.7C215.3,168.7,213.2,166.7,213.2,164.1z M179.4,180.9
	c0-2.6,2.1-4.7,4.7-4.7c2.6,0,4.7,2.1,4.7,4.7c0,2.6-2.1,4.7-4.7,4.7C181.5,185.6,179.4,183.5,179.4,180.9z M196.3,180.9
	c0-2.6,2.1-4.7,4.7-4.7s4.7,2.1,4.7,4.7c0,2.6-2.1,4.7-4.7,4.7C198.4,185.6,196.3,183.5,196.3,180.9z M213.2,180.9
	c0-2.6,2.1-4.7,4.7-4.7c2.6,0,4.7,2.1,4.7,4.7c0,2.6-2.1,4.7-4.7,4.7C215.3,185.6,213.2,183.5,213.2,180.9z"/>
</svg>
