<?xml version="1.0" encoding="utf-8"?>
<!-- Generator: Adobe Illustrator 19.0.0, SVG Export Plug-In . SVG Version: 6.00 Build 0)  -->
<svg version="1.1" xmlns="http://www.w3.org/2000/svg" xmlns:xlink="http://www.w3.org/1999/xlink" x="0px" y="0px"
	 viewBox="-186 990.5 32 21" style="enable-background:new -186 990.5 32 21;" xml:space="preserve">
<style type="text/css">
	.st0{fill:#FFFFFF;}
	.st1{fill:#005098;}
	.st2{fill:#F6A500;}
</style>
<g id="Layer_2">
</g>
<g id="Layer_1">
	<g>
		<g>
			<path class="st0" d="M-156,990.6h-28c-1,0-1.9,0.8-1.9,1.9v17.1c0,1,0.8,1.9,1.9,1.9h28c1,0,1.9-0.8,1.9-1.9v-17.1
				C-154.2,991.4-155,990.6-156,990.6L-156,990.6z"/>
		</g>
	</g>
	<g>
		<g>
			<path class="st1" d="M-155.9,990.8c0.9,0,1.6,0.7,1.6,1.6v17.2c0,0.9-0.7,1.6-1.6,1.6h-28.2c-0.9,0-1.6-0.7-1.6-1.6v-17.2
				c0-0.9,0.7-1.6,1.6-1.6H-155.9 M-155.9,990.5h-28.2c-1,0-1.9,0.8-1.9,1.9v17.2c0,1,0.8,1.9,1.9,1.9h28.2c1,0,1.9-0.8,1.9-1.9
				v-17.2C-154,991.3-154.8,990.5-155.9,990.5L-155.9,990.5z"/>
		</g>
		<g>
			<polygon class="st1" points="-174.1,1005 -172.8,997 -170.6,997 -172,1005 			"/>
			<path class="st1" d="M-164.1,997.2c-0.4-0.2-1.1-0.3-1.9-0.3c-2.1,0-3.6,1.1-3.7,2.6c0,1.1,1.1,1.8,1.9,2.2
				c0.8,0.4,1.1,0.6,1.1,1c0,0.5-0.7,0.8-1.3,0.8c-0.9,0-1.3-0.1-2-0.4l-0.3-0.1l-0.3,1.8c0.5,0.2,1.4,0.4,2.4,0.4
				c2.3,0,3.8-1.1,3.8-2.7c0-0.9-0.6-1.6-1.8-2.2c-0.8-0.4-1.2-0.6-1.2-1c0-0.3,0.4-0.7,1.2-0.7c0.7,0,1.2,0.1,1.6,0.3l0.2,0.1
				L-164.1,997.2L-164.1,997.2z"/>
			<path class="st1" d="M-158.6,997.1h-1.7c-0.5,0-0.9,0.1-1.1,0.7l-3.2,7.3h2.3c0,0,0.4-1,0.5-1.2c0.2,0,2.5,0,2.8,0
				c0.1,0.3,0.3,1.2,0.3,1.2h2L-158.6,997.1L-158.6,997.1z M-161.2,1002.2c0.2-0.5,0.9-2.2,0.9-2.2c0,0,0.2-0.5,0.3-0.8l0.1,0.7
				c0,0,0.4,1.9,0.5,2.3H-161.2L-161.2,1002.2z"/>
			<path class="st1" d="M-175.9,997.1l-2.1,5.4l-0.2-1.1c-0.4-1.3-1.6-2.6-3-3.3l1.9,6.9l2.3,0l3.4-7.9H-175.9L-175.9,997.1z"/>
			<path class="st2" d="M-180,997h-3.5l0,0.2c2.7,0.7,4.5,2.2,5.3,4.2l-0.8-3.7C-179.2,997.2-179.6,997.1-180,997L-180,997z"/>
		</g>
	</g>
</g>
</svg>
