<?xml version="1.0" encoding="UTF-8"?>
<!-- Generator: Adobe Illustrator 15.0.0, SVG Export Plug-In . SVG Version: 6.00 Build 0)  -->
<!DOCTYPE svg PUBLIC "-//W3C//DTD SVG 1.1//EN" "http://www.w3.org/Graphics/SVG/1.1/DTD/svg11.dtd">
<svg version="1.1" xmlns="http://www.w3.org/2000/svg" xmlns:xlink="http://www.w3.org/1999/xlink" x="0px" y="0px" width="24px" height="24px" viewBox="228 244 24 24" enable-background="new 228 244 24 24" xml:space="preserve">
<g id="Layer_2">
</g>
<g id="Layer_1">
	<g>
		<path fill="#42B854" d="M239.097,256.627c-0.573-0.531-1.211-1.275-1.487-1.935c-0.042-0.085-0.127-0.297,0-0.467    c0.255-0.34,0.298-0.361,0.573-0.681c0.191-0.234,0.341-0.446,0.276-0.638l-0.955-2.487c-0.086-0.17-0.341-0.192-0.638-0.213    c-0.256,0-0.531,0-0.723,0.042c-0.425,0.149-1.296,1.297-1.402,2.126c-0.233,1.807,1.402,4.208,3.038,5.697    c1.637,1.51,4.165,2.934,5.949,2.529c0.828-0.191,1.892-1.148,1.977-1.594c0.042-0.191,0.021-0.469-0.021-0.723    c-0.021-0.299-0.085-0.51-0.256-0.596l-2.166-1c-0.192-0.105-0.383-0.021-0.574,0.213c-0.233,0.318-0.341,0.447-0.616,0.787    c-0.148,0.191-0.255,0.318-0.425,0.34c-0.191,0.043-0.446-0.064-0.488-0.064C240.478,257.732,239.692,257.158,239.097,256.627    L239.097,256.627z M231.958,264.258l1.232-3.125c-1.36-1.572-2.188-3.635-2.188-5.888c0-4.974,4.037-8.992,9.009-8.992    s8.987,4.018,8.987,8.992c0,4.974-4.016,9.013-8.987,9.013c-1.997,0-3.825-0.637-5.312-1.742L231.958,264.258z M230.449,261.197    L228.75,268l6.076-2.764c1.551,0.807,3.314,1.275,5.185,1.275c6.203,0,11.239-5.039,11.239-11.267    c0-6.207-5.036-11.245-11.239-11.245c-6.226,0-11.261,5.038-11.261,11.245C228.75,257.434,229.387,259.475,230.449,261.197    L230.449,261.197z"/>
	</g>
</g>
</svg>