<?xml version="1.0" encoding="utf-8"?>
<!-- Generator: Adobe Illustrator 16.0.3, SVG Export Plug-In . SVG Version: 6.00 Build 0)  -->
<!DOCTYPE svg PUBLIC "-//W3C//DTD SVG 1.1//EN" "http://www.w3.org/Graphics/SVG/1.1/DTD/svg11.dtd">
<svg version="1.1" id="Layer_1" xmlns="http://www.w3.org/2000/svg" xmlns:xlink="http://www.w3.org/1999/xlink" x="0px" y="0px"
	 width="50px" height="50px" viewBox="0 0 50 50" enable-background="new 0 0 50 50" xml:space="preserve">
<path fill="#9E9E9E" d="M26.041,11.794l-4.938,4.938l-4.938-4.938l-2.688,2.688l4.938,4.938l-4.938,4.938l2.688,2.688l4.938-4.938
	l4.938,4.938l2.688-2.688l-4.938-4.938l4.938-4.938L26.041,11.794z M21.104,0.354c-10.544,0-19.067,8.523-19.067,19.067
	s8.523,19.067,19.067,19.067c10.544,0,19.067-8.522,19.067-19.067C40.171,8.877,31.646,0.354,21.104,0.354z M21.104,34.675
	c-8.409,0-15.253-6.845-15.253-15.253c0-8.408,6.844-15.254,15.253-15.254c8.408,0,15.253,6.845,15.253,15.253
	C36.357,27.829,29.512,34.675,21.104,34.675z"/>
</svg>
