<svg xmlns="http://www.w3.org/2000/svg" width="512" height="512" viewBox="0 0 512 512"><path fill="#CA2127" d="M257.365 513.865c141.242 0 255.752-114.495 255.752-255.744 0-141.234-114.51-255.743-255.752-255.743-141.24 0-255.743 114.51-255.743 255.744 0 141.25 114.502 255.745 255.743 255.745"/><path fill="#FFF" d="M266.123 84.295c-100.347 0-150.943 71.94-150.943 131.95 0 36.32 13.743 68.637 43.24 80.666 4.838 2 9.173.075 10.58-5.277.975-3.696 3.282-13.043 4.315-16.95 1.407-5.296.856-7.142-3.043-11.77-8.505-10.028-13.952-23.01-13.952-41.42 0-53.368 39.94-101.155 103.99-101.155 56.722 0 87.883 34.658 87.883 80.93 0 60.905-26.955 112.305-66.957 112.305-22.098 0-38.626-18.265-33.338-40.682 6.347-26.757 18.647-55.626 18.647-74.956 0-17.282-9.294-31.7-28.485-31.7-22.585 0-40.732 23.37-40.732 54.667 0 19.935 6.738 33.425 6.738 33.425s-23.118 97.938-27.17 115.09c-8.065 34.16-1.215 76.025-.628 80.242.34 2.52 3.566 3.126 5.026 1.23 2.07-2.72 28.99-35.93 38.12-69.125 2.595-9.392 14.857-58.05 14.857-58.05 7.346 14.01 28.79 26.314 51.597 26.314 67.89 0 113.956-61.89 113.956-144.735.01-62.65-53.06-120.995-133.7-120.995z"/></svg>