<?xml version="1.0" encoding="utf-8"?>
<!-- Generator: Adobe Illustrator 16.0.3, SVG Export Plug-In . SVG Version: 6.00 Build 0)  -->
<!DOCTYPE svg PUBLIC "-//W3C//DTD SVG 1.1//EN" "http://www.w3.org/Graphics/SVG/1.1/DTD/svg11.dtd">
<svg version="1.1" id="Layer_1" xmlns="http://www.w3.org/2000/svg" xmlns:xlink="http://www.w3.org/1999/xlink" x="0px" y="0px"
	 width="50px" height="50px" viewBox="0 0 50 50" enable-background="new 0 0 50 50" xml:space="preserve">
<path fill="#FFFFFF" d="M31.184,7.294l-6.586,6.587h4.94c0,5.451-4.428,9.88-9.88,9.88c-1.663,0-3.244-0.411-4.609-1.153
	l-2.405,2.404c2.026,1.285,4.43,2.042,7.015,2.042c7.279,0,13.174-5.895,13.174-13.173h4.939L31.184,7.294z M9.777,13.881
	c0-5.45,4.43-9.88,9.88-9.88c1.664,0,3.246,0.412,4.61,1.153l2.404-2.404c-2.025-1.285-4.428-2.042-7.014-2.042
	c-7.277,0-13.173,5.896-13.173,13.173h-4.94l6.586,6.587l6.587-6.587H9.777z"/>
</svg>
