<svg height="32" viewBox="0 0 32 32" width="32" xmlns="http://www.w3.org/2000/svg"><g fill="#fff"><path d="M16.333 13.76c-.006-.002-.012-.002-.018-.002h-.018a2.237 2.237 0 0 0 0 4.474v.003l.018-.002.018.002v-.002c1.22-.03 2.183-1.02 2.183-2.237s-.964-2.207-2.183-2.237z"/><path d="M29.586 14.186c-2.76-2.246-7.407-5.51-13.253-5.62h-.036c-5.844.11-10.496 3.374-13.256 5.62-.13.107-1.035.8-1.05 1.686-.01.624.28 1.085.7 1.47 2.254 2.182 7.175 6.06 13.608 6.088v.002h.036v-.002c6.445-.028 11.35-3.906 13.607-6.087.42-.386.71-.847.698-1.47-.017-.887-.92-1.58-1.052-1.687zm-13.27 7.566a5.756 5.756 0 0 1 0-11.51c3.17.02 5.717 2.588 5.717 5.754s-2.548 5.734-5.718 5.756z"/></g></svg>