<svg xmlns="http://www.w3.org/2000/svg" width="512" height="512" viewBox="0 0 512 512"><path fill="#D0422A" d="M257.365 513.865c141.242 0 255.752-114.495 255.752-255.744 0-141.234-114.51-255.743-255.752-255.743-141.24 0-255.743 114.51-255.743 255.744 0 141.25 114.502 255.745 255.743 255.745"/><path fill="#FFF" d="M276.4 281.01l-16.542-12.846c-5.036-4.18-11.927-9.693-11.927-19.786 0-10.136 6.892-16.58 12.87-22.545 19.268-15.166 38.517-31.304 38.517-65.32 0-34.973-22.006-53.37-32.553-62.102H295.2l29.848-18.752h-90.43c-24.814 0-60.573 5.872-86.754 27.485-19.737 17.02-29.358 40.496-29.358 61.628 0 35.87 27.545 72.23 76.178 72.23 4.597 0 9.62-.448 14.676-.92-2.272 5.527-4.57 10.128-4.57 17.94 0 14.243 7.324 22.983 13.777 31.255-20.664 1.424-59.242 3.71-87.686 21.19-27.08 16.108-35.327 39.548-35.327 56.097 0 34.06 32.104 65.78 98.665 65.78 78.94 0 120.723-43.675 120.723-86.915.015-31.77-18.34-47.404-38.54-64.42v.003zm-60.123-52.895c-39.49 0-57.38-51.047-57.38-81.852 0-11.993 2.27-24.373 10.082-34.043 7.36-9.21 20.182-15.188 32.153-15.188 38.068 0 57.81 51.508 57.81 84.634 0 8.288-.91 22.975-11.466 33.596-7.385 7.362-19.737 12.854-31.202 12.854h.002zm.45 184.957c-49.105 0-80.77-23.492-80.77-56.152 0-32.654 29.357-43.7 39.464-47.355 19.264-6.484 44.058-7.39 48.194-7.39 4.59 0 6.886 0 10.537.464 34.914 24.84 50.068 37.224 50.068 60.745 0 28.475-23.42 49.686-67.493 49.686v.002zm175.58-116.424V250.38h46.14v-22.965h-46.14v-45.99H369.59v45.99h-45.91v22.966h45.91v46.268h22.717z"/></svg>