<svg height="64" viewBox="0 0 64 64" width="64" xmlns="http://www.w3.org/2000/svg"><path fill="#fff" d="M48 39.26a8.3 8.3 0 0 0-6.033 2.596L24.23 33.172c.06-.408.103-.82.103-1.246 0-.414-.04-.818-.098-1.215l17.71-8.588A8.302 8.302 0 0 0 48 24.742a8.333 8.333 0 1 0-8.333-8.334c0 .414.04.817.098 1.215l-17.71 8.59A8.3 8.3 0 0 0 16 23.592a8.333 8.333 0 0 0-8.333 8.333A8.332 8.332 0 0 0 16 40.26a8.3 8.3 0 0 0 6.033-2.597l17.737 8.684c-.06.407-.103.82-.103 1.246 0 4.603 3.73 8.333 8.333 8.333s8.333-3.73 8.333-8.333A8.333 8.333 0 0 0 48 39.26z"/></svg>