<?xml version="1.0" encoding="utf-8"?>
<!-- Generator: Adobe Illustrator 19.0.0, SVG Export Plug-In . SVG Version: 6.00 Build 0)  -->
<svg version="1.1" id="Capa_1" xmlns="http://www.w3.org/2000/svg" xmlns:xlink="http://www.w3.org/1999/xlink" x="0px" y="0px"
	 viewBox="-643 976 78 50" style="enable-background:new -643 976 78 50;" xml:space="preserve">
<style type="text/css">
	.st0{fill:#69665D;}
</style>
<g>
	<path class="st0" d="M-625.9,1016.2c-0.7,0-1.2,0.5-1.2,1.2c0,0.7-0.5,1.2-1.2,1.2s-1.2-0.5-1.2-1.2c0-0.7,0.5-1.2,1.2-1.2
		c0.7,0,1.2-0.5,1.2-1.2c0-0.7-0.5-1.2-1.2-1.2c-2,0-3.7,1.6-3.7,3.7c0,2,1.6,3.7,3.7,3.7c2,0,3.7-1.6,3.7-3.7
		C-624.7,1016.8-625.3,1016.2-625.9,1016.2z"/>
	<path class="st0" d="M-577.2,1016.2c-0.7,0-1.2,0.5-1.2,1.2c0,0.7-0.5,1.2-1.2,1.2c-0.7,0-1.2-0.5-1.2-1.2c0-0.7,0.5-1.2,1.2-1.2
		c0.7,0,1.2-0.5,1.2-1.2c0-0.7-0.5-1.2-1.2-1.2c-2,0-3.7,1.6-3.7,3.7c0,2,1.6,3.7,3.7,3.7c2,0,3.7-1.6,3.7-3.7
		C-576,1016.8-576.5,1016.2-577.2,1016.2z"/>
	<path class="st0" d="M-565,1000.4c0-0.3-0.1-0.6-0.4-0.9c-0.5-1.4-1.6-2.7-3-3.4c0,0-0.1,0-0.1,0l-4-1.5l-2.5-9.3c0,0,0,0,0,0
		c-0.8-2.6-3.1-4.3-5.8-4.3h-8.6v-2.4c0-1.3-1.1-2.4-2.4-2.4h-48.8c-1.3,0-2.4,1.1-2.4,2.4v34.1c0,1.3,1.1,2.4,2.4,2.4h4
		c-0.1,0.2-0.1,0.4-0.2,0.6h0c0,0.1,0,0.2,0,0.3c0,0,0,0,0,0.1c0,0.1,0,0.2,0,0.3c0,0,0,0,0,0v0c-0.1,0.4-0.1,0.8-0.1,1.2
		c0,0.9,0.1,1.8,0.4,2.6h0c1.1,3.4,4.3,5.9,8.1,5.9c4.3,0,7.9-3.2,8.4-7.3h2.5c0,2,1.6,3.7,3.7,3.7h7.3c2,0,3.7-1.6,3.7-3.7h14.7
		c0.6,4.1,4.1,7.3,8.4,7.3c3.8,0,7-2.5,8.1-5.9h0c0.3-0.8,0.4-1.7,0.4-2.6c0-0.4,0-0.8-0.1-1.2v0c0,0,0,0,0,0c0-0.1,0-0.2,0-0.3
		c0,0,0,0,0-0.1c0-0.1,0-0.2,0-0.3h0c0-0.2-0.1-0.4-0.2-0.6h4c1.3,0,2.4-1.1,2.4-2.4v-11c0-0.3,0-0.6-0.1-0.9
		C-565,1000.6-565,1000.5-565,1000.4z M-589.4,983.3h8.6c1.6,0,3,1,3.5,2.6l2.2,8.4h-14.3V983.3L-589.4,983.3z M-589.4,996.7h15.6
		l4.3,1.6c0.4,0.2,0.7,0.5,1,0.8h-21V996.7z M-628.4,1023.5c-3.4,0-6.1-2.7-6.1-6.1c0-3.4,2.7-6.1,6.1-6.1c3.4,0,6.1,2.7,6.1,6.1
		C-622.3,1020.8-625,1023.5-628.4,1023.5z M-617.4,1016.2h-2.5c-0.1-0.4-0.1-0.8-0.3-1.2h3C-617.3,1015.4-617.4,1015.8-617.4,1016.2
		z M-605.2,1018.7c0,0.7-0.5,1.2-1.2,1.2h-7.3c-0.7,0-1.2-0.5-1.2-1.2v-1.2c0,0,0,0,0,0v0v-1.2c0-0.7,0.5-1.2,1.2-1.2h7.3
		c0.7,0,1.2,0.5,1.2,1.2V1018.7L-605.2,1018.7z M-606.4,1012.6h-7.3h-7.3c-0.1,0-0.2,0-0.3,0c-1.5-2.2-4.1-3.7-7-3.7
		c-2.9,0-5.5,1.5-7,3.7c-0.1,0-0.2,0-0.3,0h-4.9v-6.1h37.8c0.7,0,1.2-0.5,1.2-1.2s-0.5-1.2-1.2-1.2h-37.8v-25.6h48.8v34.1
		L-606.4,1012.6L-606.4,1012.6z M-588.1,1016.2h-14.7c0-0.4-0.1-0.8-0.2-1.2h12.4h2.8C-587.9,1015.4-588,1015.8-588.1,1016.2z
		 M-579.6,1023.5c-3.4,0-6.1-2.7-6.1-6.1c0-3.4,2.7-6.1,6.1-6.1c3.4,0,6.1,2.7,6.1,6.1C-573.5,1020.8-576.3,1023.5-579.6,1023.5z
		 M-567.4,1004h-1.2c-1.3,0-2.4,1.1-2.4,2.4v1.2c0,1.3,1.1,2.4,2.4,2.4h1.2v2.4h-4.9c-0.1,0-0.2,0-0.3,0c-1.5-2.2-4.1-3.7-7-3.7
		c-2.9,0-5.5,1.5-7,3.7c-0.1,0-0.2,0-0.3,0h-2.4v-11h21.9L-567.4,1004L-567.4,1004z M-567.4,1006.5v1.2h-1.2v-1.2H-567.4z"/>
	<path class="st0" d="M-612.5,1016.2c-0.3,0-0.6,0.1-0.9,0.4c-0.2,0.2-0.4,0.5-0.4,0.9c0,0.3,0.1,0.6,0.4,0.9
		c0.2,0.2,0.5,0.4,0.9,0.4c0.3,0,0.6-0.1,0.9-0.4c0.2-0.2,0.4-0.5,0.4-0.9s-0.1-0.6-0.4-0.9
		C-611.9,1016.4-612.2,1016.2-612.5,1016.2z"/>
	<path class="st0" d="M-595.5,1004h-2.4c-0.7,0-1.2,0.5-1.2,1.2c0,0.7,0.5,1.2,1.2,1.2h2.4c0.7,0,1.2-0.5,1.2-1.2
		C-594.2,1004.6-594.8,1004-595.5,1004z"/>
</g>
</svg>
