<?xml version="1.0" encoding="utf-8"?>
<!-- Generator: Adobe Illustrator 16.0.3, SVG Export Plug-In . SVG Version: 6.00 Build 0)  -->
<!DOCTYPE svg PUBLIC "-//W3C//DTD SVG 1.1//EN" "http://www.w3.org/Graphics/SVG/1.1/DTD/svg11.dtd">
<svg version="1.1" id="Layer_1" xmlns="http://www.w3.org/2000/svg" xmlns:xlink="http://www.w3.org/1999/xlink" x="0px" y="0px"
	 width="21px" height="55px" viewBox="0 0 21 55" enable-background="new 0 0 21 55" xml:space="preserve">
<path fill="#757575" d="M0.433,1.125l18.665,26.28L0.433,53.684c-0.224,0.317-0.149,0.756,0.167,0.98l0.018,0.014
	c0.317,0.225,0.758,0.15,0.982-0.168l18.907-26.62c0.111-0.12,0.177-0.275,0.187-0.438c0.002-0.017,0.004-0.033,0.004-0.05
	l-0.004-0.042c-0.007-0.166-0.074-0.323-0.188-0.444L1.6,0.298C1.375-0.02,0.936-0.095,0.619,0.129c0,0,0,0,0,0L0.6,0.143
	C0.283,0.368,0.208,0.808,0.433,1.125z"/>
</svg>
