<?xml version="1.0" encoding="utf-8"?>
<!-- Generator: Adobe Illustrator 16.0.3, SVG Export Plug-In . SVG Version: 6.00 Build 0)  -->
<!DOCTYPE svg PUBLIC "-//W3C//DTD SVG 1.1//EN" "http://www.w3.org/Graphics/SVG/1.1/DTD/svg11.dtd">
<svg version="1.1" id="Layer_1" xmlns="http://www.w3.org/2000/svg" xmlns:xlink="http://www.w3.org/1999/xlink" x="0px" y="0px"
	 width="21px" height="55px" viewBox="0 0 21 55" enable-background="new 0 0 21 55" xml:space="preserve">
<path fill="#757575" d="M20.566,53.684L1.9,27.404l18.667-26.28c0.223-0.317,0.148-0.755-0.168-0.98L20.38,0.13
	c-0.317-0.225-0.757-0.15-0.981,0.167c0,0,0,0,0,0L0.492,26.917c-0.111,0.12-0.177,0.275-0.186,0.438
	c0,0.017-0.003,0.033-0.003,0.05l0.003,0.042c0.008,0.166,0.074,0.323,0.187,0.444L19.4,54.51c0.225,0.316,0.662,0.392,0.979,0.168
	l0.021-0.013c0.316-0.226,0.391-0.663,0.166-0.979V53.684z"/>
</svg>
