<svg xmlns="http://www.w3.org/2000/svg" width="512" height="512" viewBox="0 0 512 512"><path fill="#65BC54" d="M257.365 513.865c141.242 0 255.752-114.495 255.752-255.744 0-141.234-114.51-255.743-255.752-255.743-141.24 0-255.743 114.51-255.743 255.744 0 141.25 114.502 255.745 255.743 255.745"/><path fill="#FFF" d="M429 243.87c0 86.357-70.55 156.363-157.582 156.363-27.63 0-53.59-7.064-76.173-19.455L108 408.5l28.438-83.896c-14.347-23.567-22.608-51.2-22.608-80.735 0-86.362 70.552-156.37 157.587-156.37C358.45 87.5 429 157.508 429 243.87zM271.418 112.404c-73.06 0-132.488 58.976-132.488 131.465 0 28.76 9.376 55.403 25.235 77.076l-16.55 48.815 50.914-16.18c20.92 13.734 45.974 21.746 72.886 21.746 73.05 0 132.488-58.972 132.488-131.46 0-72.486-59.438-131.463-132.488-131.463h.002zm79.572 167.473c-.972-1.597-3.545-2.557-7.4-4.47-3.866-1.915-22.864-11.19-26.398-12.466-3.545-1.277-6.123-1.92-8.697 1.913-2.572 3.846-9.976 12.47-12.232 15.025-2.256 2.56-4.502 2.88-8.366.963-3.857-1.915-16.31-5.962-31.063-19.02-11.483-10.16-19.237-22.7-21.49-26.54-2.255-3.837-.24-5.91 1.693-7.817 1.738-1.724 3.863-4.48 5.797-6.712 1.932-2.242 2.574-3.836 3.858-6.395 1.294-2.56.643-4.794-.32-6.717-.965-1.912-8.693-20.776-11.91-28.45-3.22-7.67-6.43-6.392-8.69-6.392-2.255 0-4.828-.32-7.407-.32-2.576 0-6.762.96-10.3 4.792-3.54 3.838-13.515 13.107-13.515 31.966 0 18.862 13.837 37.085 15.77 39.64 1.93 2.55 26.715 42.51 65.98 57.862 39.28 15.34 39.28 10.228 46.363 9.58 7.074-.632 22.848-9.265 26.072-18.217 3.215-8.946 3.215-16.625 2.255-18.223z"/></svg>