<svg xmlns="http://www.w3.org/2000/svg" viewBox="-615 956 135 90"><style>.st0{display:none;} .st1{display:inline;} .st2{display:inline;fill:#FFFFFF;} .st3{fill:#FFFFFF;} .st4{display:inline;fill:#F6E719;} .st5{display:inline;opacity:0.5;} .st6{opacity:0.85;} .st7{opacity:0.5;}</style><g id="Layer_1"><g id="ALINHA" class="st0"><circle id="XMLID_4_" class="st1" cx="-346" cy="914.4" r="31.5"/><circle id="XMLID_52_" class="st1" cx="-287.7" cy="947.5" r="31.5"/><circle id="XMLID_5_" class="st1" cx="-345" cy="980.8" r="31.5"/><path id="XMLID_11_" class="st2" d="M-334 924.1c-3.8-.8-6.4-.3-9.1-2.7-2.7-2.4-18.2-22.5-20.3-24.8-.7-.8-2.3.9-2.7 1.6-3 4.4-3.5 8.3-1.9 12.7.7 1.9 1 16.6 1.2 21.1 0 .2.2.3.3.3h.7c.1 0 .2 0 .2-.1.1-.1.1-.2.1-.2-.1-3.8-.1-16.7.5-17.6.7-1 5.5-3 10.1 7.3 4.7 10.4 6.9 10.6 10.1 10.6 3.3 0 12.8.2 19.8-1 6.4-1.5-3.8-6.1-9-7.2zm-10.5 1.7c-4.2-4.9-14.3-21.8-16.9-25.3 0-.1-.1-.1-.1-.2 1.4 1.5 2.6 3.3 3.8 4.8 3.1 3.7 6.1 7.5 9 11.3 1.7 2.3 3.2 4.8 5.4 6.7 2.3 2.1 5.4 1.3 8.2 2.1-2.2 1.6-6.4 4.1-9.4.6z"/><g id="XMLID_10_" class="st1"><g id="XMLID_15_"><path id="XMLID_16_" class="st3" d="M-268.6 928.3s-1.4-1-2.4.3c-3.3 4.2-14.2 18.1-19.5 23-4.6 4.3-8.7 1.8-10.5.3 0 0-.9-1-3.1-.3-.9.3-2 .6-3.6 1.1-2.3.7-3 2.3-3 4 0 .5.3 3 1.7 4.6 2.5 2.5 7.3 5.2 12.5 5.7 5.9.6 7.4-1.8 7.4-1.8s3.6-4.9 7-9.9c2.9-4.2 6.4-6.3 6.5-6.4.2-.1.4-.2.6-.2.4-.1 2.4-.6 2.6 2.2l.9 14.8v.5c0 .4.2 1.1 1 1.1s.9-.9.9-1.2v-.4c.3-3.9 1.7-18.2 3-20.8 4.3-10 .4-14.8-2-16.6z"/></g></g><g id="XMLID_1_" class="st1"><path id="Fill-1" class="st3" d="M-332.4 974.8h-25.1c-.5 0-.9-.4-.9-.9s.4-.9.9-.9h25.1c.5 0 .9.4.9.9s-.4.9-.9.9"/><g id="Group-7"><path id="Fill-5" class="st3" d="M-357.98 974.846c-2.9 0-5.3.1-6.6 1.4-.8.8-1.1 2-1.1 3.7 0 7.5 1.7 10.5 5.8 10.5 5 0 11.1-4.7 11.1-10.5 0-2.1-.3-3.4-1-4.1-1-1-3-1-5.8-1H-357.98m-1.9 17.4c-6.7 0-7.6-6.6-7.6-12.3 0-2.3.5-3.9 1.7-5 1.9-1.9 5-1.9 8.6-1.9h1.6c3.2 0 5.6 0 7.1 1.5 1.1 1.1 1.6 2.7 1.6 5.4-.1 6.9-7.1 12.3-13 12.3"/></g><g id="Group-10"><path id="Fill-8" class="st3" d="M-366.9 980.717h-2.1c-.5 0-.9-.4-.9-.9s.4-.9.9-.9h2.1c.5 0 .9.4.9.9s-.4.9-.9.9"/></g><path id="Fill-11" class="st3" d="M-350 975.7c-1.2-1.2-3.4-1.1-6.6-1.1-5.1 0-9.2-.3-9.2 5.4 0 3 .3 5.7 1.3 7.6 1.4-4.3 5.1-9.8 14.5-11.9"/><g id="Group-17"><path id="Fill-15" class="st3" d="M-334.965 974.846c-2.4 0-4.2.1-5.1 1-.7.7-1 2-1 4.1 0 5.8 6.1 10.5 11.1 10.5 4.1 0 5.8-3 5.8-10.5 0-1.7-.4-3-1.1-3.7-1.4-1.4-4.1-1.4-7.3-1.4H-334.965m5 17.4c-6 0-12.9-5.4-12.9-12.3 0-2.6.5-4.3 1.6-5.4 1.5-1.5 3.9-1.5 7.1-1.5h1.6c3.6 0 6.7 0 8.6 1.9 1.1 1.1 1.7 2.8 1.7 5-.1 5.7-1 12.3-7.7 12.3"/></g><g id="Group-20"><path id="Fill-18" class="st3" d="M-320.9 980.717h-2.5c-.5 0-.9-.4-.9-.9s.4-.9.9-.9h2.5c.5 0 .9.4.9.9s-.4.9-.9.9"/></g><path id="Fill-21" class="st3" d="M-342 978.9c-.3 0-.5-.1-.7-.3 0-.1-.7-.7-2.3-.7-1.6 0-2.2.7-2.3.7-.3.4-.9.4-1.3.1s-.4-.9-.1-1.2c.1-.1 1.2-1.4 3.7-1.4s3.5 1.2 3.7 1.4c.3.4.3 1-.1 1.3-.2.1-.4.1-.6.1"/><path id="Fill-23" class="st3" d="M-326.2 975.6c-1.6-1.1-4.3-1-7.2-1-4.9 0-7.5-.3-7.5 5.3 0 1.7.5 3.4 1.5 4.8 1.8-3.7 5.6-7.5 13.2-9.1"/></g></g><g id="linha1" class="st0"><path id="XMLID_3_" class="st1" d="M-613 1022.8h131v2h-131z"/><path id="XMLID_18_" class="st4" d="M-613 956h131v90h-131z"/></g><g id="nome"><g id="XMLID_17_"><g id="XMLID_292_"><path id="XMLID_319_" class="st3" d="M-605 1040.3h-5.3v5.3h-2.6v-12.8h8.8v2h-6.2v3.5h5.3v2z"/><path id="XMLID_316_" class="st3" d="M-597.3 1042.9h-4.5l-.9 2.8h-2.6l4.4-12.8h2.6l4.4 12.8h-2.6l-.8-2.8zm-3.9-2.1h3.2l-1.6-5h-.1l-1.5 5z"/><path id="XMLID_314_" class="st3" d="M-586 1042.3c0-.5-.2-.9-.5-1.2-.3-.3-1-.6-1.8-.8-1.5-.4-2.7-1-3.5-1.6-.8-.6-1.2-1.4-1.2-2.5s.4-1.9 1.3-2.6c.9-.7 2-1 3.4-1s2.6.4 3.4 1.1c.9.7 1.3 1.7 1.3 2.8v.1h-2.4c0-.6-.2-1.1-.6-1.4-.4-.3-1-.5-1.7-.5s-1.2.2-1.6.5c-.4.3-.6.7-.6 1.2 0 .4.2.8.6 1.1.4.3 1.1.6 2.1.9 1.4.4 2.5.9 3.2 1.6.7.7 1.1 1.5 1.1 2.5 0 1.1-.4 2-1.3 2.6-.9.6-2 .9-3.4.9s-2.6-.4-3.6-1.1c-1-.7-1.5-1.7-1.5-3v-.1h2.5c0 .8.2 1.3.7 1.7s1.1.4 1.9.4c.7 0 1.2-.1 1.6-.4.4-.3.6-.7.6-1.2z"/><path id="XMLID_312_" class="st3" d="M-571.5 1045.6h-2.5v-5.3h-5.2v5.3h-2.6v-12.8h2.6v5.5h5.2v-5.5h2.6l-.1 12.8z"/><path id="XMLID_310_" class="st3" d="M-566.6 1045.6h-2.6v-12.8h2.6v12.8z"/><path id="XMLID_307_" class="st3" d="M-554 1040.4c0 1.6-.5 2.9-1.5 3.9s-2.3 1.5-3.9 1.5-2.9-.5-3.8-1.5c-.9-1-1.5-2.3-1.5-3.9v-2.3c0-1.6.5-2.9 1.5-3.9s2.3-1.5 3.8-1.5c1.6 0 2.9.5 3.9 1.5s1.5 2.3 1.5 3.9v2.3zm-2.6-2.3c0-1-.2-1.8-.7-2.5-.5-.7-1.2-1-2.1-1-.9 0-1.5.3-2 1-.5.6-.7 1.5-.7 2.5v2.3c0 1 .2 1.8.7 2.5.5.7 1.2 1 2 1 .9 0 1.6-.3 2.1-1s.7-1.5.7-2.5v-2.3z"/><path id="XMLID_305_" class="st3" d="M-541.9 1045.6h-2.6l-5.2-8.7h-.1v8.7h-2.6v-12.8h2.6l5.2 8.7h.1v-8.7h2.6v12.8z"/><path id="XMLID_303_" class="st3" d="M-528.2 1042.4c0-.6-.2-1.1-.7-1.5-.4-.4-1.2-.7-2.3-1-1.4-.3-2.4-.8-3.2-1.4-.8-.6-1.1-1.4-1.1-2.4s.4-1.8 1.2-2.5c.8-.7 1.9-1 3.2-1 1.4 0 2.5.4 3.3 1.2.8.8 1.2 1.7 1.2 2.7v.1h-1.7c0-.8-.2-1.4-.7-1.8-.5-.4-1.2-.7-2.1-.7-.9 0-1.5.2-2 .6s-.7.9-.7 1.5.2 1 .7 1.4 1.3.7 2.4 1c1.3.3 2.4.8 3.1 1.5.7.7 1.1 1.5 1.1 2.4 0 1-.4 1.9-1.3 2.5-.9.6-1.9.9-3.3.9-1.3 0-2.4-.3-3.4-1s-1.5-1.6-1.4-2.8v-.1h1.7c0 .8.3 1.4.9 1.9.6.5 1.4.6 2.2.6.9 0 1.6-.2 2.1-.6s.8-.9.8-1.5z"/><path id="XMLID_301_" class="st3" d="M-515.6 1034.2h-4.1v11.4h-1.7v-11.4h-4.1v-1.4h9.9v1.4z"/><path id="XMLID_298_" class="st3" d="M-504.5 1040.4c0 1.6-.5 2.9-1.5 3.9s-2.2 1.5-3.8 1.5c-1.5 0-2.7-.5-3.6-1.5-.9-1-1.4-2.3-1.4-3.9v-2.3c0-1.6.5-2.9 1.4-3.9.9-1 2.1-1.6 3.6-1.6s2.8.5 3.8 1.6 1.5 2.3 1.5 3.9v2.3zm-1.8-2.3c0-1.2-.3-2.1-.9-2.9-.6-.8-1.5-1.1-2.5-1.1s-1.8.4-2.4 1.1c-.6.7-.9 1.7-.9 2.9v2.3c0 1.2.3 2.2.9 2.9.6.7 1.4 1.1 2.4 1.1 1.1 0 1.9-.4 2.6-1.1.6-.7.9-1.7.9-2.9l-.1-2.3z"/><path id="XMLID_295_" class="st3" d="M-500.5 1040.1v5.5h-1.7v-12.8h4.6c1.4 0 2.5.3 3.2.9.7.6 1.1 1.5 1.1 2.7 0 .7-.2 1.2-.5 1.7s-.8.9-1.5 1.2c.7.2 1.2.6 1.5 1.1.3.5.5 1.1.5 1.9v1.2c0 .4 0 .8.1 1.1.1.3.2.6.5.8v.2h-1.8c-.2-.2-.4-.5-.4-.9s-.1-.8-.1-1.2v-1.2c0-.7-.2-1.2-.6-1.7s-.9-.6-1.6-.6l-3.3.1zm0-1.4h2.7c1 0 1.7-.2 2.1-.6.4-.4.6-.9.6-1.7 0-.7-.2-1.3-.6-1.7-.4-.4-1.1-.6-2-.6h-2.9v4.6h.1z"/><path id="XMLID_293_" class="st3" d="M-483 1039.7h-5.9v4.6h6.8v1.4h-8.5v-12.9h8.4v1.4h-6.7v4.1h5.9v1.4z"/></g></g></g><g id="icon2" class="st0"><g id="XMLID_66_" class="st5"><path id="XMLID_75_" d="M-523 989.5c-2.9-3.8-5.9-7.6-9-11.3-1.2-1.5-2.5-3.2-3.8-4.8 0 .1.1.1.1.2 2.6 3.5 12.7 20.4 16.9 25.3 3 3.5 7.2 1 9.3-.6-2.8-.8-5.8 0-8.2-2.1-2-1.9-3.5-4.5-5.3-6.7z"/><path id="XMLID_79_" d="M-520.2 956c-17.4 0-31.5 14.1-31.5 31.5s14.1 31.5 31.5 31.5 31.5-14.1 31.5-31.5-14.1-31.5-31.5-31.5zm21 48.4c-7 1.3-16.5 1-19.8 1s-5.5-.2-10.1-10.6c-4.7-10.4-9.5-8.3-10.1-7.3-.6.9-.6 13.8-.5 17.6 0 .1 0 .2-.1.2-.1.1-.2.1-.2.1h-.7c-.2 0-.3-.1-.3-.3-.2-4.5-.5-19.2-1.2-21.1-1.6-4.4-1.2-8.3 1.9-12.7.4-.6 2-2.3 2.7-1.6 2.1 2.3 17.6 22.4 20.3 24.8s5.3 1.9 9.1 2.7c5.2 1.2 15.3 5.7 9 7.2z"/></g></g><g id="icon1" class="st6"><g id="XMLID_27_" class="st7"><path id="XMLID_78_" class="st3" d="M-525.7 982.1c.2.1.3.2.4.4-9.4 2-13.1 7.5-14.5 11.8-.1-.2-.2-.3-.2-.5.9 2.3 2.5 3.4 4.8 3.4 5 0 11.1-4.7 11.1-10.5 0-2.1-.3-3.4-1-4.1-.2-.3-.4-.4-.6-.5z"/><path id="XMLID_80_" class="st3" d="M-523.6 981.5c.4.5.7 1.1.9 1.8.6-.3 1.4-.5 2.4-.5 1.1 0 1.9.2 2.4.5.2-.7.5-1.3.9-1.8h-6.6z"/><path id="XMLID_81_" class="st3" d="M-502 982c.2.1.4.2.5.3-7.5 1.6-11.4 5.4-13.3 9-.9-1.4-1.5-3.1-1.5-4.8 0-2.4.5-3.7 1.5-4.4-.2.1-.4.2-.5.4-.7.7-1 2-1 4.1 0 5.8 6.1 10.5 11.1 10.5 4.1 0 5.8-3 5.8-10.5 0-1.7-.4-3-1.1-3.7-.5-.4-.9-.7-1.5-.9z"/><path id="XMLID_90_" class="st3" d="M-520.2 956c-17.4 0-31.5 14.1-31.5 31.5s14.1 31.5 31.5 31.5 31.5-14.1 31.5-31.5-14.1-31.5-31.5-31.5zm24.1 31.4h-1.6c-.1 5.5-1.2 11.5-7.6 11.5-6 0-12.9-5.4-12.9-12.3 0-.5 0-1 .1-1.4-.3-.2-.9-.6-2.1-.6s-1.8.4-2.1.6c0 .4.1.9.1 1.4 0 6.9-6.9 12.3-12.9 12.3-6.4 0-7.5-6-7.6-11.5h-1.6c-.5 0-.9-.4-.9-.9s.4-.9.9-.9h1.6c.1-1.7.7-3.1 1.6-4 1.9-1.9 5-1.9 8.6-1.9h24.7c3.6 0 6.7 0 8.6 1.9.9.9 1.5 2.3 1.6 4h1.6c.5 0 .9.4.9.9-.1.5-.5.9-1 .9z"/></g></g><g id="my"><path id="XMLID_33_" class="st3" d="M-549.2 1006.3c3.9-5.2 6.2-11.7 6.2-18.7-.1-17.5-14.2-31.6-31.7-31.6-17.4 0-31.6 14.1-31.6 31.6s14.1 31.6 31.6 31.6c5.5 0 10.7-1.4 15.2-3.9l17.5 10.7-7.2-19.7zm-22.5-7h-3.4v-9.8l.3-10.1h-.1l-8.1 20h-2.2l-8-19.9h-.1l.3 10v9.8h-3.4v-24.8h4.4l7.9 20.2h.1l7.9-20.2h4.3l.1 24.8zm12.4 2.9c-.5 1.2-1.1 2.3-2 3.2-.9.9-2 1.4-3.5 1.4-.3 0-.6 0-1-.1s-.7-.1-1-.2l.3-2.6h.6s.8.1.9.1c.7 0 1.3-.3 1.8-1s.8-1.3 1.1-2.1l.8-1.9-6.9-18.1h3.8l3.9 11.6.6 2.3h.1l4.5-14h3.7l-7.7 21.4z"/></g></g></svg>