<svg xmlns="http://www.w3.org/2000/svg" viewBox="0 0 135 90" enable-background="new 0 0 135 90"><style>.st0{display:none;} .st1{display:inline;} .st2{display:inline;fill:#FFFFFF;} .st3{fill:#FFFFFF;} .st4{filter:url(#Adobe_OpacityMaskFilter);} .st5{mask:url(#mask-2_1_);fill:#FFFFFF;} .st6{filter:url(#Adobe_OpacityMaskFilter_1_);} .st7{mask:url(#mask-4_1_);fill:#FFFFFF;} .st8{filter:url(#Adobe_OpacityMaskFilter_2_);} .st9{mask:url(#mask-6_1_);fill:#FFFFFF;} .st10{display:inline;fill:#F6E719;} .st11{display:inline;opacity:0.5;} .st12{opacity:0.5;}</style><g id="ALINHA" class="st0"><circle id="XMLID_4_" class="st1" cx="269" cy="-41.6" r="31.5"/><circle id="XMLID_52_" class="st1" cx="327.3" cy="-8.5" r="31.5"/><circle id="XMLID_5_" class="st1" cx="270" cy="24.8" r="31.5"/><path id="XMLID_11_" class="st2" d="M281-31.9c-3.8-.8-6.4-.3-9.1-2.7-2.7-2.4-18.2-22.5-20.3-24.8-.7-.8-2.3.9-2.7 1.6-3 4.4-3.5 8.3-1.9 12.7.7 1.9 1 16.6 1.2 21.1 0 .2.2.3.3.3h.7c.1 0 .2 0 .2-.1.1-.1.1-.2.1-.2-.1-3.8-.1-16.7.5-17.6.7-1 5.5-3 10.1 7.3 4.7 10.4 6.9 10.6 10.1 10.6 3.3 0 12.8.2 19.8-1 6.4-1.5-3.8-6.1-9-7.2zm-10.5 1.7c-4.2-4.9-14.3-21.8-16.9-25.3 0-.1-.1-.1-.1-.2 1.4 1.5 2.6 3.3 3.8 4.8 3.1 3.7 6.1 7.5 9 11.3 1.7 2.3 3.2 4.8 5.4 6.7 2.3 2.1 5.4 1.3 8.2 2.1-2.2 1.6-6.4 4.1-9.4.6zm0 0"/><g id="XMLID_10_" class="st1"><g id="XMLID_15_"><path id="XMLID_16_" class="st3" d="M346.4-27.7s-1.4-1-2.4.3c-3.3 4.2-14.2 18.1-19.5 23-4.6 4.3-8.7 1.8-10.5.3 0 0-.9-1-3.1-.3-.9.3-2 .6-3.6 1.1-2.3.7-3 2.3-3 4 0 .5.3 3 1.7 4.6 2.5 2.5 7.3 5.2 12.5 5.7 5.9.6 7.4-1.8 7.4-1.8s3.6-4.9 7-9.9c2.9-4.2 6.4-6.3 6.5-6.4.2-.1.4-.2.6-.2.4-.1 2.4-.6 2.6 2.2l.9 14.8v.5c0 .4.2 1.1 1 1.1s.9-.9.9-1.2v-.4c.3-3.9 1.7-18.2 3-20.8 4.3-10 .4-14.8-2-16.6zm0 0"/></g></g><g id="XMLID_1_" class="st1"><path id="Fill-1" class="st3" d="M282.6 18.8h-25.1c-.5 0-.9-.4-.9-.9s.4-.9.9-.9h25.1c.5 0 .9.4.9.9s-.4.9-.9.9"/><g id="Group-7" transform="translate(24.62 .946)"><defs><filter id="Adobe_OpacityMaskFilter" filterUnits="userSpaceOnUse" x="222.9" y="16.1" width="20.5" height="19.2"><feColorMatrix values="1 0 0 0 0 0 1 0 0 0 0 0 1 0 0 0 0 0 1 0"/></filter></defs><mask maskUnits="userSpaceOnUse" x="222.9" y="16.1" width="20.5" height="19.2" id="mask-2_1_"><g id="XMLID_38_" class="st4"><path id="path-1_1_" class="st3" d="M222.9 35.3h20.5V16.1h-20.5z"/></g></mask><path id="Fill-5" class="st5" d="M232.4 17.9c-2.9 0-5.3.1-6.6 1.4-.8.8-1.1 2-1.1 3.7 0 7.5 1.7 10.5 5.8 10.5 5 0 11.1-4.7 11.1-10.5 0-2.1-.3-3.4-1-4.1-1-1-3-1-5.8-1H232.4m-1.9 17.4c-6.7 0-7.6-6.6-7.6-12.3 0-2.3.5-3.9 1.7-5 1.9-1.9 5-1.9 8.6-1.9h1.6c3.2 0 5.6 0 7.1 1.5 1.1 1.1 1.6 2.7 1.6 5.4-.1 6.9-7.1 12.3-13 12.3"/></g><g id="Group-10" transform="translate(0 61.217)"><defs><filter id="Adobe_OpacityMaskFilter_1_" filterUnits="userSpaceOnUse" x="245" y="-38.3" width="3.9" height="1.8"><feColorMatrix values="1 0 0 0 0 0 1 0 0 0 0 0 1 0 0 0 0 0 1 0"/></filter></defs><mask maskUnits="userSpaceOnUse" x="245" y="-38.3" width="3.9" height="1.8" id="mask-4_1_"><g id="XMLID_36_" class="st6"><path id="path-3_1_" class="st3" d="M245-38.3v1.8h4v-1.8z"/></g></mask><path id="Fill-8" class="st7" d="M248.1-36.5H246c-.5 0-.9-.4-.9-.9s.4-.9.9-.9h2.1c.5 0 .9.4.9.9s-.4.9-.9.9"/></g><path id="Fill-11" class="st3" d="M265 19.7c-1.2-1.2-3.4-1.1-6.6-1.1-5.1 0-9.2-.3-9.2 5.4 0 3 .3 5.7 1.3 7.6 1.4-4.3 5.1-9.8 14.5-11.9"/><g id="Group-17" transform="translate(270.835 .946)"><defs><filter id="Adobe_OpacityMaskFilter_2_" filterUnits="userSpaceOnUse" x="1.3" y="16.1" width="20.5" height="19.2"><feColorMatrix values="1 0 0 0 0 0 1 0 0 0 0 0 1 0 0 0 0 0 1 0"/></filter></defs><mask maskUnits="userSpaceOnUse" x="1.3" y="16.1" width="20.5" height="19.2" id="mask-6_1_"><g id="XMLID_23_" class="st8"><path id="path-5_1_" class="st3" d="M1.3 35.3h20.5V16.1H1.3z"/></g></mask><path id="Fill-15" class="st9" d="M9.2 17.9c-2.4 0-4.2.1-5.1 1-.7.7-1 2-1 4.1 0 5.8 6.1 10.5 11.1 10.5 4.1 0 5.8-3 5.8-10.5 0-1.7-.4-3-1.1-3.7-1.4-1.4-4.1-1.4-7.3-1.4H9.2m5 17.4c-6 0-12.9-5.4-12.9-12.3 0-2.6.5-4.3 1.6-5.4 1.5-1.5 3.9-1.5 7.1-1.5h1.6c3.6 0 6.7 0 8.6 1.9 1.1 1.1 1.7 2.8 1.7 5-.1 5.7-1 12.3-7.7 12.3"/></g><g id="Group-20"><path id="Fill-18" class="st3" d="M294.1 24.717h-2.5c-.5 0-.9-.4-.9-.9s.4-.9.9-.9h2.5c.5 0 .9.4.9.9s-.4.9-.9.9"/></g><path id="Fill-21" class="st3" d="M273 22.9c-.3 0-.5-.1-.7-.3 0-.1-.7-.7-2.3-.7-1.6 0-2.2.7-2.3.7-.3.4-.9.4-1.3.1-.4-.3-.4-.9-.1-1.2.1-.1 1.2-1.4 3.7-1.4s3.5 1.2 3.7 1.4c.3.4.3 1-.1 1.3-.2.1-.4.1-.6.1"/><path id="Fill-23" class="st3" d="M288.8 19.6c-1.6-1.1-4.3-1-7.2-1-4.9 0-7.5-.3-7.5 5.3 0 1.7.5 3.4 1.5 4.8 1.8-3.7 5.6-7.5 13.2-9.1"/></g></g><g id="linha1" class="st0"><path id="XMLID_3_" class="st1" d="M2 66.8h131v2H2z"/><path id="XMLID_18_" class="st10" d="M2 0h131v90H2z"/></g><g id="nome"><g id="XMLID_17_"><g id="XMLID_292_"><path id="XMLID_319_" d="M10 84.4H4.7v5.3H2.1V76.9h8.8v2H4.7v3.5H10v2z"/><path id="XMLID_316_" d="M17.7 87h-4.5l-.9 2.8H9.7L14.1 77h2.6l4.4 12.8h-2.6l-.8-2.8zm-3.9-2.1H17l-1.6-5h-.1l-1.5 5z"/><path id="XMLID_314_" d="M29 86.4c0-.5-.2-.9-.5-1.2s-1-.6-1.8-.8c-1.5-.4-2.7-1-3.5-1.6S22 81.4 22 80.3s.4-1.9 1.3-2.6c.9-.7 2-1 3.4-1s2.6.4 3.4 1.1c.9.7 1.3 1.7 1.3 2.8v.1H29c0-.6-.2-1.1-.6-1.4s-1-.5-1.7-.5-1.2.2-1.6.5-.6.7-.6 1.2c0 .4.2.8.6 1.1s1.1.6 2.1.9c1.4.4 2.5.9 3.2 1.6s1.1 1.5 1.1 2.5c0 1.1-.4 2-1.3 2.6s-2 .9-3.4.9-2.6-.4-3.6-1.1c-1-.7-1.5-1.7-1.5-3v-.1h2.5c0 .8.2 1.3.7 1.7s1.1.4 1.9.4c.7 0 1.2-.1 1.6-.4s.6-.7.6-1.2z"/><path id="XMLID_312_" d="M43.5 89.7H41v-5.3h-5.2v5.3h-2.6V76.9h2.6v5.5H41v-5.5h2.6v12.8z"/><path id="XMLID_310_" d="M48.4 89.7h-2.6V76.9h2.6v12.8z"/><path id="XMLID_307_" d="M61 84.5c0 1.6-.5 2.9-1.5 3.9s-2.3 1.5-3.9 1.5-2.9-.5-3.8-1.5-1.5-2.3-1.5-3.9v-2.3c0-1.6.5-2.9 1.5-3.9s2.3-1.5 3.8-1.5c1.6 0 2.9.5 3.9 1.5s1.5 2.3 1.5 3.9v2.3zm-2.6-2.3c0-1-.2-1.8-.7-2.5s-1.2-1-2.1-1-1.5.3-2 1c-.5.6-.7 1.5-.7 2.5v2.3c0 1 .2 1.8.7 2.5s1.2 1 2 1c.9 0 1.6-.3 2.1-1s.7-1.5.7-2.5v-2.3z"/><path id="XMLID_305_" d="M73.1 89.7h-2.6L65.3 81h-.1v8.7h-2.6V76.9h2.6l5.2 8.7h.1v-8.7h2.6v12.8z"/><path id="XMLID_303_" d="M86.8 86.5c0-.6-.2-1.1-.7-1.5-.4-.4-1.2-.7-2.3-1-1.4-.3-2.4-.8-3.2-1.4-.8-.6-1.1-1.4-1.1-2.4s.4-1.8 1.2-2.5c.8-.7 1.9-1 3.2-1 1.4 0 2.5.4 3.3 1.2s1.2 1.7 1.2 2.7v.1h-1.7c0-.8-.2-1.4-.7-1.8s-1.2-.7-2.1-.7c-.9 0-1.5.2-2 .6-.5.4-.7.9-.7 1.5s.2 1 .7 1.4c.5.4 1.3.7 2.4 1 1.3.3 2.4.8 3.1 1.5s1.1 1.5 1.1 2.4c0 1-.4 1.9-1.3 2.5s-1.9.9-3.3.9c-1.3 0-2.4-.3-3.4-1s-1.5-1.6-1.4-2.8v-.1h1.7c0 .8.3 1.4.9 1.9s1.4.6 2.2.6c.9 0 1.6-.2 2.1-.6.5-.4.8-.9.8-1.5z"/><path id="XMLID_301_" d="M99.4 78.3h-4.1v11.4h-1.7V78.3h-4.1v-1.4h9.9v1.4z"/><path id="XMLID_298_" d="M110.5 84.5c0 1.6-.5 2.9-1.5 3.9s-2.2 1.5-3.8 1.5c-1.5 0-2.7-.5-3.6-1.5s-1.4-2.3-1.4-3.9v-2.3c0-1.6.5-2.9 1.4-3.9s2.1-1.6 3.6-1.6 2.8.5 3.8 1.6 1.5 2.3 1.5 3.9v2.3zm-1.8-2.3c0-1.2-.3-2.1-.9-2.9s-1.5-1.1-2.5-1.1-1.8.4-2.4 1.1-.9 1.7-.9 2.9v2.3c0 1.2.3 2.2.9 2.9s1.4 1.1 2.4 1.1c1.1 0 1.9-.4 2.6-1.1.6-.7.9-1.7.9-2.9v-2.3z"/><path id="XMLID_295_" d="M114.5 84.2v5.5h-1.7V76.9h4.6c1.4 0 2.5.3 3.2.9s1.1 1.5 1.1 2.7c0 .7-.2 1.2-.5 1.7s-.8.9-1.5 1.2c.7.2 1.2.6 1.5 1.1.3.5.5 1.1.5 1.9v1.2c0 .4 0 .8.1 1.1s.2.6.5.8v.2h-1.8c-.2-.2-.4-.5-.4-.9s-.1-.8-.1-1.2v-1.2c0-.7-.2-1.2-.6-1.7s-.9-.6-1.6-.6h-3.3zm0-1.4h2.7c1 0 1.7-.2 2.1-.6.4-.4.6-.9.6-1.7 0-.7-.2-1.3-.6-1.7-.4-.4-1.1-.6-2-.6h-2.9v4.6z"/><path id="XMLID_293_" d="M132 83.8h-5.9v4.6h6.8v1.4h-8.5V76.9h8.4v1.4h-6.7v4.1h5.9v1.4z"/></g></g></g><g id="icon2" class="st0"><g id="XMLID_66_" class="st11"><path id="XMLID_75_" d="M92 33.5c-2.9-3.8-5.9-7.6-9-11.3-1.2-1.5-2.5-3.2-3.8-4.8 0 .1.1.1.1.2C81.9 21.1 92 38 96.2 42.9c3 3.5 7.2 1 9.3-.6-2.8-.8-5.8 0-8.2-2.1-2-1.9-3.5-4.5-5.3-6.7z"/><path id="XMLID_79_" d="M94.8 0C77.4 0 63.3 14.1 63.3 31.5S77.4 63 94.8 63s31.5-14.1 31.5-31.5S112.2 0 94.8 0zm21 48.4c-7 1.3-16.5 1-19.8 1-3.3 0-5.5-.2-10.1-10.6-4.7-10.4-9.5-8.3-10.1-7.3-.6.9-.6 13.8-.5 17.6 0 .1 0 .2-.1.2-.1.1-.2.1-.2.1h-.7c-.2 0-.3-.1-.3-.3-.2-4.5-.5-19.2-1.2-21.1-1.6-4.4-1.2-8.3 1.9-12.7.4-.6 2-2.3 2.7-1.6C79.5 16 95 36.1 97.7 38.5c2.7 2.4 5.3 1.9 9.1 2.7 5.2 1.2 15.3 5.7 9 7.2z"/></g></g><g id="icon1"><g id="XMLID_27_" class="st12"><path id="XMLID_78_" d="M89.3 26.1c.2.1.3.2.4.4-9.4 2-13.1 7.5-14.5 11.8-.1-.2-.2-.3-.2-.5.9 2.3 2.5 3.4 4.8 3.4 5 0 11.1-4.7 11.1-10.5 0-2.1-.3-3.4-1-4.1-.2-.3-.4-.4-.6-.5z"/><path id="XMLID_80_" d="M91.4 25.5c.4.5.7 1.1.9 1.8.6-.3 1.4-.5 2.4-.5 1.1 0 1.9.2 2.4.5.2-.7.5-1.3.9-1.8h-6.6z"/><path id="XMLID_81_" d="M113 26c.2.1.4.2.5.3-7.5 1.6-11.4 5.4-13.3 9-.9-1.4-1.5-3.1-1.5-4.8 0-2.4.5-3.7 1.5-4.4-.2.1-.4.2-.5.4-.7.7-1 2-1 4.1 0 5.8 6.1 10.5 11.1 10.5 4.1 0 5.8-3 5.8-10.5 0-1.7-.4-3-1.1-3.7-.5-.4-.9-.7-1.5-.9z"/><path id="XMLID_90_" d="M94.8 0C77.4 0 63.3 14.1 63.3 31.5S77.4 63 94.8 63s31.5-14.1 31.5-31.5S112.2 0 94.8 0zm24.1 31.4h-1.6c-.1 5.5-1.2 11.5-7.6 11.5-6 0-12.9-5.4-12.9-12.3 0-.5 0-1 .1-1.4-.3-.2-.9-.6-2.1-.6-1.2 0-1.8.4-2.1.6 0 .4.1.9.1 1.4 0 6.9-6.9 12.3-12.9 12.3-6.4 0-7.5-6-7.6-11.5h-1.6c-.5 0-.9-.4-.9-.9s.4-.9.9-.9h1.6c.1-1.7.7-3.1 1.6-4 1.9-1.9 5-1.9 8.6-1.9h24.7c3.6 0 6.7 0 8.6 1.9.9.9 1.5 2.3 1.6 4h1.6c.5 0 .9.4.9.9-.1.5-.5.9-1 .9z"/></g></g><g id="my"><path id="XMLID_33_" d="M65.8 50.3c3.9-5.2 6.2-11.7 6.2-18.7C71.9 14.1 57.8 0 40.3 0 22.9 0 8.7 14.1 8.7 31.6s14.1 31.6 31.6 31.6c5.5 0 10.7-1.4 15.2-3.9L73 70l-7.2-19.7zm-22.5-7h-3.4v-9.8l.3-10.1h-.1l-8.1 20h-2.2l-8-19.9h-.1l.3 10v9.8h-3.4V18.5H23l7.9 20.2h.1l7.9-20.2h4.3v24.8zm12.4 2.9c-.5 1.2-1.1 2.3-2 3.2-.9.9-2 1.4-3.5 1.4-.3 0-.6 0-1-.1s-.7-.1-1-.2l.3-2.6h.6c.5 0 .8.1.9.1.7 0 1.3-.3 1.8-1s.8-1.3 1.1-2.1l.8-1.9-6.9-18.1h3.8l3.9 11.6.6 2.3h.1l4.5-14h3.7l-7.7 21.4z"/></g></svg>