<?xml version="1.0" encoding="utf-8"?>
<!-- Generator: Adobe Illustrator 15.0.0, SVG Export Plug-In . SVG Version: 6.00 Build 0)  -->
<!DOCTYPE svg PUBLIC "-//W3C//DTD SVG 1.1//EN" "http://www.w3.org/Graphics/SVG/1.1/DTD/svg11.dtd">
<svg version="1.1" xmlns="http://www.w3.org/2000/svg" xmlns:xlink="http://www.w3.org/1999/xlink" x="0px" y="0px" width="17px"
	 height="16px" viewBox="3.5 4 17 16" enable-background="new 3.5 4 17 16" xml:space="preserve">
<g id="Layer_1" xmlns:rdf="http://www.w3.org/1999/02/22-rdf-syntax-ns#" xmlns:cc="http://creativecommons.org/ns#" xmlns:dc="http://purl.org/dc/elements/1.1/">
	<g>
		<path fill="#939393" d="M19.42,10.686c0,0.16-0.082,0.319-0.249,0.478l-3.472,3.343l0.821,4.855c0.007,0,0.01,0.08,0.01,0.16
			c0,0.158-0.034,0.238-0.104,0.318C16.362,19.921,16.267,20,16.138,20c-0.121,0-0.248,0-0.382-0.079l-4.296-2.31l-4.296,2.31
			C7.024,20,6.896,20,6.781,20c-0.134,0-0.236-0.079-0.306-0.159c-0.063-0.08-0.096-0.16-0.096-0.318c0,0,0.007-0.08,0.019-0.16
			l0.823-4.855l-3.482-3.343C3.58,11.005,3.5,10.846,3.5,10.686c0-0.238,0.179-0.398,0.536-0.398l4.803-0.716l2.153-4.378
			c0.121-0.239,0.277-0.398,0.469-0.398s0.348,0.159,0.469,0.398l2.152,4.378l4.804,0.716C19.241,10.288,19.42,10.448,19.42,10.686"
			/>
	</g>
	<g>
		<path fill="#BEBEBE" d="M19.42,9.89c0,0.159-0.082,0.319-0.249,0.478l-3.472,3.343l0.821,4.855c0.007,0,0.01,0.08,0.01,0.16
			c0,0.158-0.034,0.237-0.104,0.317c-0.063,0.08-0.159,0.16-0.288,0.16c-0.121,0-0.248,0-0.382-0.08l-4.296-2.309l-4.296,2.309
			c-0.14,0.08-0.268,0.08-0.383,0.08c-0.134,0-0.236-0.08-0.306-0.16c-0.063-0.08-0.096-0.159-0.096-0.317
			c0,0,0.007-0.08,0.019-0.16l0.823-4.855l-3.482-3.343C3.58,10.209,3.5,10.049,3.5,9.89c0-0.239,0.179-0.398,0.536-0.398
			l4.803-0.716l2.153-4.378C11.112,4.159,11.269,4,11.46,4s0.348,0.159,0.469,0.398l2.152,4.378l4.804,0.716
			C19.241,9.492,19.42,9.651,19.42,9.89"/>
	</g>
</g>
<g id="Layer_2">
	<g>
		<path fill="#E67E22" d="M11.46,4.796c-0.191,0-0.348,0.159-0.469,0.398L8.838,9.572l-4.803,0.716c-0.357,0-0.536,0.16-0.536,0.398
			c0,0.16,0.08,0.319,0.239,0.478l3.482,3.343l-0.823,4.855c-0.012,0.08-0.019,0.16-0.019,0.16c0,0.158,0.032,0.238,0.096,0.318
			C6.545,19.921,6.647,20,6.781,20c0.115,0,0.243,0,0.383-0.079l4.296-2.31V4.796z"/>
	</g>
</g>
<g id="Layer_3">
	<g>
		<path fill="#F1C40F" d="M11.46,4c-0.191,0-0.348,0.159-0.469,0.398L8.838,8.776L4.036,9.492C3.679,9.492,3.5,9.651,3.5,9.89
			c0,0.159,0.08,0.319,0.239,0.478l3.482,3.343l-0.823,4.855c-0.012,0.08-0.019,0.16-0.019,0.16c0,0.158,0.032,0.237,0.096,0.317
			c0.07,0.08,0.172,0.16,0.306,0.16c0.115,0,0.243,0,0.383-0.08l4.296-2.309V4z"/>
	</g>
</g>
</svg>
