<svg id="Layer_1" xmlns="http://www.w3.org/2000/svg" viewBox="-623 989 118 24"><style>.st0{fill:#C3AA6B;} .st1{opacity:0.2;} .st2{fill:#231F20;} .st3{fill:#FFFFFF;}</style><circle class="st0" cx="-611" cy="1001" r="12"/><path class="st1 st2" d="M-603.2 999.5c-.1-.4-.4-.6-.8-.7l-4.2-.6-1.9-3.8c-.2-.3-.5-.5-.9-.5s-.7.2-.9.5l-1.9 3.8-4.2.6c-.4.1-.7.3-.8.7s0 .7.2 1l3.1 3-.7 4.2c-.1.4.1.7.4 1 .2.1.4.2.6.2.2 0 .3 0 .5-.1l3.8-2 3.8 2c.1.1.3.1.5.1s.4-.1.6-.2c.3-.2.5-.6.4-1l-.7-4.2 3.1-3c0-.2.1-.6 0-1z"/><path class="st3" d="M-603.2 998.8c-.1-.4-.4-.6-.8-.7l-4.2-.6-1.9-3.8c-.2-.3-.5-.6-.9-.6s-.7.2-.9.6l-1.9 3.8-4.2.6c-.4.1-.7.3-.8.7s0 .7.2 1l3.1 3-.7 4.2c-.1.4.1.7.4 1 .2.1.4.2.6.2.2 0 .3 0 .5-.1l3.8-2 3.8 2c.1.1.3.1.5.1s.4-.1.6-.2c.3-.2.5-.6.4-1l-.7-4.2 3.1-3c0-.3.1-.7 0-1z"/><g><path class="st0" d="M-593.1 1004.9h4.7v1.1h-6.1v-10h1.3v8.9zM-581.5 1003.4h-4.2l-.9 2.6h-1.4l3.8-10h1.2l3.8 10h-1.4l-.9-2.6zm-3.8-1.1h3.3l-1.6-4.5-1.7 4.5zM-570.5 1006h-1.3l-4.8-7.7v7.7h-1.3v-10h1.3l4.8 7.7V996h1.3v10zM-561.1 1002.8c0 1-.3 1.8-1 2.4-.7.6-1.6.9-2.7.9s-2-.4-2.8-1.2-1.1-1.8-1.1-3v-1.8c0-1.2.4-2.2 1.1-3 .7-.8 1.6-1.2 2.8-1.2 1.1 0 2 .3 2.7.9.7.6 1 1.4 1 2.4h-1.3c0-.7-.2-1.2-.6-1.7s-1-.6-1.7-.6c-.8 0-1.4.3-1.8.9-.4.6-.7 1.4-.7 2.3v1.8c0 .9.2 1.7.7 2.3.4.6 1 .9 1.8.9.7 0 1.3-.2 1.7-.6.4-.4.6-1 .6-1.7h1.3zm-3.1 3.2l-.1.4c.3 0 .5.2.7.4.2.2.3.5.3.8 0 .4-.2.8-.5 1-.4.3-.9.4-1.5.4v-.7c.3 0 .6-.1.8-.2.2-.1.3-.3.3-.5s-.1-.4-.2-.5-.4-.1-.8-.2l.2-.9h.8zM-554 1003.4h-4.2l-.9 2.6h-1.4l3.8-10h1.2l3.8 10h-1.4l-.9-2.6zm-3.8-1.1h3.3l-1.6-4.5-1.7 4.5zM-548.8 996l3.2 8.1 3.2-8.1h1.7v10h-1.3v-3.9l.1-4-3.2 8h-.9l-3.2-8 .1 4v3.9h-1.3v-10h1.6zM-532.4 1001.4h-4.6v3.6h5.3v1.1h-6.6v-10h6.5v1.1h-5.2v3.2h4.6v1zM-522.8 1006h-1.3l-4.8-7.7v7.7h-1.3v-10h1.3l4.8 7.7V996h1.3v10zM-513.9 997.1h-3.2v8.9h-1.3v-8.9h-3.2V996h7.7v1.1zM-505.2 1001.9c0 1.2-.4 2.2-1.1 3-.8.8-1.7 1.2-2.9 1.2s-2.1-.4-2.8-1.2c-.7-.8-1.1-1.8-1.1-3v-1.8c0-1.2.4-2.2 1.1-3 .7-.8 1.7-1.2 2.8-1.2 1.2 0 2.2.4 2.9 1.2.8.8 1.1 1.8 1.1 3v1.8zm-1.4-1.8c0-.9-.2-1.7-.7-2.2s-1.2-.9-2-.9-1.4.3-1.9.9c-.5.6-.7 1.3-.7 2.2v1.8c0 .9.2 1.7.7 2.3.5.6 1.1.9 1.9.9.8 0 1.5-.3 2-.9.5-.6.7-1.3.7-2.3v-1.8z"/></g></svg>