<?xml version="1.0" encoding="utf-8"?>
<!-- Generator: Adobe Illustrator 19.0.0, SVG Export Plug-In . SVG Version: 6.00 Build 0)  -->
<svg version="1.1" id="Layer_1" xmlns="http://www.w3.org/2000/svg" xmlns:xlink="http://www.w3.org/1999/xlink" x="0px" y="0px"
	 viewBox="-653.5 983.5 35 35" style="enable-background:new -653.5 983.5 35 35;" xml:space="preserve">
<style type="text/css">
	.st0{fill:#C3AA6B;}
	.st1{opacity:0.2;}
	.st2{fill:#231F20;}
	.st3{fill:#FFFFFF;}
</style>
<g id="Layer_2">
</g>
<g id="Layer_4">
</g>
<g>
	<g>
		<path class="st0" d="M-644.8,1018.3h-1.2l-4.1-6.6l0,0v6.6h-1.2v-8.5h1.2l4.1,6.6l0,0v-6.6h1.2V1018.3z"/>
		<path class="st0" d="M-636.3,1014.8c0,1-0.3,1.9-1,2.6s-1.5,1-2.5,1c-1,0-1.8-0.3-2.4-1s-0.9-1.6-0.9-2.6v-1.5
			c0-1,0.3-1.9,0.9-2.6s1.4-1,2.4-1c1,0,1.9,0.3,2.5,1s1,1.6,1,2.6V1014.8z M-637.4,1013.2c0-0.8-0.2-1.4-0.6-1.9s-1-0.8-1.7-0.8
			c-0.7,0-1.2,0.2-1.6,0.8s-0.6,1.1-0.6,1.9v1.5c0,0.8,0.2,1.4,0.6,1.9s0.9,0.8,1.6,0.8c0.7,0,1.3-0.2,1.7-0.7s0.6-1.1,0.6-1.9
			V1013.2z"/>
		<path class="st0" d="M-632.1,1016.2l0.2,0.7h0l0.2-0.7l2.2-6.4h1.2l-3.2,8.5h-1l-3.2-8.5h1.3L-632.1,1016.2z"/>
		<path class="st0" d="M-620.7,1014.8c0,1-0.3,1.9-1,2.6s-1.5,1-2.5,1c-1,0-1.8-0.3-2.4-1s-0.9-1.6-0.9-2.6v-1.5
			c0-1,0.3-1.9,0.9-2.6s1.4-1,2.4-1c1,0,1.9,0.3,2.5,1s1,1.6,1,2.6V1014.8z M-621.9,1013.2c0-0.8-0.2-1.4-0.6-1.9s-1-0.8-1.7-0.8
			c-0.7,0-1.2,0.2-1.6,0.8s-0.6,1.1-0.6,1.9v1.5c0,0.8,0.2,1.4,0.6,1.9s0.9,0.8,1.6,0.8c0.7,0,1.3-0.2,1.7-0.7s0.6-1.1,0.6-1.9
			V1013.2z"/>
	</g>
	<g>
		<g>
			<g>
				<circle class="st0" cx="-636.2" cy="995.5" r="12"/>
			</g>
		</g>
		<g class="st1">
			<g>
				<path class="st2" d="M-628.4,994c-0.1-0.4-0.4-0.6-0.8-0.7l-4.2-0.6l-1.9-3.8c-0.2-0.3-0.5-0.5-0.9-0.5s-0.7,0.2-0.9,0.5
					l-1.9,3.8l-4.2,0.6c-0.4,0.1-0.7,0.3-0.8,0.7s0,0.7,0.2,1l3.1,3l-0.7,4.2c-0.1,0.4,0.1,0.7,0.4,1c0.2,0.1,0.4,0.2,0.6,0.2
					c0.2,0,0.3,0,0.5-0.1l3.8-2l3.8,2c0.1,0.1,0.3,0.1,0.5,0.1s0.4-0.1,0.6-0.2c0.3-0.2,0.5-0.6,0.4-1l-0.7-4.2l3.1-3
					C-628.4,994.8-628.3,994.4-628.4,994z"/>
			</g>
		</g>
		<g>
			<g>
				<path class="st3" d="M-628.4,993.3c-0.1-0.4-0.4-0.6-0.8-0.7l-4.2-0.6l-1.9-3.8c-0.2-0.3-0.5-0.6-0.9-0.6s-0.7,0.2-0.9,0.6
					l-1.9,3.8l-4.2,0.6c-0.4,0.1-0.7,0.3-0.8,0.7s0,0.7,0.2,1l3.1,3l-0.7,4.2c-0.1,0.4,0.1,0.7,0.4,1c0.2,0.1,0.4,0.2,0.6,0.2
					c0.2,0,0.3,0,0.5-0.1l3.8-2l3.8,2c0.1,0.1,0.3,0.1,0.5,0.1s0.4-0.1,0.6-0.2c0.3-0.2,0.5-0.6,0.4-1l-0.7-4.2l3.1-3
					C-628.4,994-628.3,993.6-628.4,993.3z"/>
			</g>
		</g>
	</g>
</g>
</svg>
